
<svg 
id="image-border" data-name="image-border"
xmlns="http://www.w3.org/2000/svg" version="1.1" xmlns:xlink="http://www.w3.org/1999/xlink" xmlns:svgjs="http://svgjs.dev/svgjs" viewBox="0 0 600 600">
<path d="M164.1608428955078,222.37762451171875C183.04196294148764,205.5944061279297,202.27273305257162,197.7272720336914,219.7552490234375,188.81118774414062C237.23776499430338,179.89510345458984,252.9720255533854,172.7272720336914,269.0559387207031,168.88111877441406C285.1398518880208,165.03496551513672,299.65033467610675,165.03496805826822,316.25872802734375,165.73426818847656C332.86712137858075,166.4335683186849,351.57343037923175,169.4055913289388,368.706298828125,173.07691955566406C385.83916727701825,176.7482477823893,402.97202555338544,180.06992848714194,419.0559387207031,187.76223754882812C435.1398518880208,195.4545466105143,452.27271525065106,207.34266153971353,465.20977783203125,219.23077392578125C478.14684041341144,231.11888631184897,488.9860026041667,242.3076934814453,496.6783142089844,259.0909118652344C504.37062581380206,275.87413024902344,510.6643473307292,300.5244903564453,511.3636474609375,319.9300842285156C512.0629475911459,339.33567810058594,506.6433461507161,356.293706258138,500.8741149902344,375.52447509765625C495.1048838297526,394.7552439371745,487.2377675374349,419.23077901204425,476.7482604980469,435.314697265625C466.2587534586589,451.39861551920575,455.59441630045575,464.33567810058594,437.93707275390625,472.0279846191406C420.27972920735675,479.7202911376953,391.9580485026042,482.5174916585286,370.80419921875,481.4685363769531C349.6503499348958,480.4195810953776,328.4964955647786,474.99998982747394,311.01397705078125,465.7342529296875C293.5314585367839,456.46851603190106,281.6433512369792,436.5384470621745,265.9090881347656,425.8741149902344C250.1748250325521,415.20978291829425,234.44056701660156,408.39161682128906,216.6083984375,401.7482604980469C198.77622985839844,395.1049041748047,175.8741200764974,394.75523885091144,158.91607666015625,386.01397705078125C141.9580332438151,377.27271525065106,123.60139592488606,365.3846028645833,114.86013793945312,349.3006896972656C106.11887995402019,333.21677652994794,98.25174458821614,310.6643422444661,106.4685287475586,289.510498046875C114.68531290690105,268.3566538492839,145.27972284952799,239.1608428955078,164.1608428955078,222.37762451171875C183.04196294148764,205.5944061279297,202.27273305257162,197.7272720336914,219.7552490234375,188.81118774414062" 
fill="#ffffff" stroke-width="3" stroke="#ffffff" 
fill-opacity="1" stroke-opacity="0.28">
</path>
<!-- <path id="Path_611" data-name="Path 611" d="M1,38a12.225,12.225,0,0,1,2.558-3.025L41.351,13.462A21.12,21.12,0,0,1,46.733,12.4a14.319,14.319,0,0,1,4.81.765L89.2,34.814A7.333,7.333,0,0,1,92,37a7.273,7.273,0,0,1,1,3.4v45.3A6.741,6.741,0,0,1,92,89a12.9,12.9,0,0,1-3.015,2.945L50.42,110.628a8.953,8.953,0,0,1-3.688.786,13.383,13.383,0,0,1-4.153-.992L4.2,92.012A12.105,12.105,0,0,1,1,89a7.112,7.112,0,0,1-1-3.581V41.534A9.569,9.569,0,0,1,1,38Z" transform="translate(1.502 -10.892)" fill="#FFFFFF"/> -->

<defs>
</defs>
</svg>
