<svg xmlns="http://www.w3.org/2000/svg" 
xmlns:xlink="http://www.w3.org/1999/xlink" 
version="1.1" x="0px" y="0px" 
style="enable-background:new 0 0 100 100;" xml:space="preserve" 
viewBox="10 41.65 80 16.71">
  <defs>
    <style>
      .cls-1 {
        fill: #D7DFD8;
        stroke: #fff;
        <!-- stroke-width:0px, -->
        <!-- stroke-dasharray: 5; -->
         <!-- stroke-linecap: round; -->
        <!-- stroke-linejoin: round; -->
        <!-- stroke-width: 0.0003px; -->
      }
    </style>
  </defs>
<path class='cls-1' d="M89,56.3540039c-0.5,0-0.9853516-0.0097656-1.4599609-0.0288086  c-0.5703125-0.0200195-1.0175781,0.4067383-1.0390625,0.9589844c-0.0224609,0.5517578,0.4072266,1.0170898,0.9589844,1.0390625  c0.5,0.0200195,1.0126953,0.0307617,1.5400391,0.0307617c0.5527344,0,1-0.4477539,1-1S89.5527344,56.3540039,89,56.3540039z"/>
<path class='cls-1'  d="M31.1904297,48.2319336c-0.4433594,0.3291016-0.8837891,0.6611328-1.3242188,0.9926758l-1.1113281,0.8354492  c-0.4433594,0.3305664-0.5341797,0.9570312-0.2041016,1.3994141c0.1962891,0.2636719,0.4970703,0.4023438,0.8027344,0.4023438  c0.2080078,0,0.4169922-0.0644531,0.5966797-0.1982422l1.1210938-0.8422852  c0.4355469-0.3286133,0.8720703-0.6577148,1.3105469-0.9838867c0.4443359-0.3291016,0.5361328-0.9555664,0.2070312-1.3989258  C32.2587891,47.9951172,31.6328125,47.9013672,31.1904297,48.2319336z"/>
<path class='cls-1'  d="M61.8886719,46.1977539c0.84375,0.4150391,1.6806641,0.8857422,2.5585938,1.4384766  c0.1660156,0.1044922,0.3505859,0.1538086,0.5322266,0.1538086c0.3320312,0,0.6572266-0.1655273,0.8476562-0.4672852  c0.2939453-0.4672852,0.1533203-1.0849609-0.3134766-1.3789062c-0.9384766-0.590332-1.8349609-1.0942383-2.7421875-1.5410156  c-0.4931641-0.2426758-1.0957031-0.0395508-1.3388672,0.4560547C61.1894531,45.3540039,61.3925781,45.9536133,61.8886719,46.1977539  z"/>
<path class='cls-1'  d="M58.8544922,42.8549805c-0.9853516-0.2973633-2.0185547-0.5429688-3.0703125-0.7294922  c-0.5546875-0.0957031-1.0625,0.2666016-1.1591797,0.8105469c-0.0966797,0.543457,0.265625,1.0625,0.8095703,1.1591797  c0.9755859,0.1723633,1.9316406,0.3994141,2.8417969,0.6748047c0.0966797,0.0288086,0.1933594,0.0429688,0.2890625,0.0429688  c0.4296875,0,0.8271484-0.2792969,0.9570312-0.7114258C59.6826172,43.5727539,59.3828125,43.0146484,58.8544922,42.8549805z"/>
<path class='cls-1'  d="M23.3798828,55.6767578c0.1484375,0,0.2998047-0.0332031,0.4423828-0.1035156  c0.9042969-0.4477539,1.7998047-0.9536133,2.7382812-1.5463867c0.4667969-0.2949219,0.6064453-0.9125977,0.3115234-1.3793945  c-0.2949219-0.4663086-0.9111328-0.6054688-1.3798828-0.3110352c-0.8789062,0.5551758-1.7148438,1.027832-2.5566406,1.4438477  c-0.4951172,0.2451172-0.6982422,0.8447266-0.453125,1.3398438C22.6572266,55.4726562,23.0117188,55.6767578,23.3798828,55.6767578z  "/>
<path class='cls-1'  d="M19.3271484,55.215332c-0.9140625,0.2783203-1.8691406,0.5073242-2.8398438,0.6806641  c-0.5439453,0.097168-0.9052734,0.6166992-0.8085938,1.1601562c0.0869141,0.484375,0.5078125,0.8242188,0.9833984,0.8242188  c0.0585938,0,0.1171875-0.0048828,0.1767578-0.015625c1.0488281-0.1870117,2.0820312-0.4350586,3.0703125-0.7363281  c0.5283203-0.1611328,0.8261719-0.7197266,0.6660156-1.2480469C20.4140625,55.3530273,19.8564453,55.0517578,19.3271484,55.215332z"/>
<path class='cls-1'  d="M40.5917969,44.0625c0.1298828,0.4345703,0.5273438,0.7158203,0.9589844,0.7158203  c0.09375,0,0.1894531-0.0136719,0.2851562-0.0419922c0.9121094-0.2709961,1.8691406-0.4936523,2.84375-0.6621094  c0.5439453-0.09375,0.9091797-0.6113281,0.8154297-1.1552734c-0.09375-0.5444336-0.6103516-0.90625-1.1552734-0.8154297  c-1.0527344,0.1816406-2.0869141,0.4223633-3.0742188,0.7158203C40.7363281,42.9765625,40.4345703,43.5332031,40.5917969,44.0625z"/>
<path class='cls-1'  d="M79.5419922,55.9213867c-0.1582031,0.5292969,0.1425781,1.0864258,0.671875,1.2441406  c0.9882812,0.2954102,2.0224609,0.5380859,3.0732422,0.7216797c0.0585938,0.0097656,0.1162109,0.0146484,0.1728516,0.0146484  c0.4775391,0,0.8994141-0.3422852,0.984375-0.828125c0.0947266-0.5439453-0.2695312-1.0620117-0.8134766-1.1572266  c-0.9736328-0.1694336-1.9306641-0.394043-2.8447266-0.6669922C80.2539062,55.0883789,79.7001953,55.3920898,79.5419922,55.9213867z  "/>
<path class='cls-1'  d="M70.0859375,49.1889648l-1.1777344-0.8847656c-0.4453125-0.3300781-1.0693359-0.2363281-1.3994141,0.2050781  c-0.3300781,0.4428711-0.2382812,1.0693359,0.2041016,1.3994141l1.1679688,0.8769531  c0.4208984,0.3173828,0.8427734,0.6352539,1.2666016,0.9506836c0.1796875,0.1333008,0.3886719,0.1972656,0.5957031,0.1972656  c0.3056641,0,0.6074219-0.1396484,0.8037109-0.4033203c0.3291016-0.4433594,0.2373047-1.0698242-0.2060547-1.3994141  C70.9199219,49.8183594,70.5029297,49.5039062,70.0859375,49.1889648z"/>
<path class='cls-1'  d="M48.5771484,43.6733398c0.9648438-0.0375977,2.0009766-0.0351562,2.9599609,0.0053711  c0.0146484,0.0004883,0.0292969,0.0009766,0.0439453,0.0009766c0.5322266,0,0.9746094-0.4199219,0.9980469-0.9570312  c0.0234375-0.5517578-0.4042969-1.0185547-0.9560547-1.0419922c-1.0126953-0.043457-2.1074219-0.0458984-3.1240234-0.0053711  c-0.5517578,0.0214844-0.9814453,0.4863281-0.9599609,1.0380859C47.5605469,43.265625,48.0390625,43.7167969,48.5771484,43.6733398z  "/>
<path class='cls-1'  d="M37.3417969,44.3466797c-0.90625,0.440918-1.8056641,0.9414062-2.7490234,1.5292969  c-0.46875,0.2919922-0.6113281,0.9091797-0.3193359,1.3774414c0.1894531,0.3041992,0.515625,0.4711914,0.8496094,0.4711914  c0.1806641,0,0.3632812-0.0488281,0.5283203-0.1513672c0.8837891-0.5507812,1.7226562-1.0180664,2.5654297-1.4277344  c0.4960938-0.2416992,0.703125-0.840332,0.4619141-1.3369141S37.8388672,44.1054688,37.3417969,44.3466797z"/>
<path class='cls-1'  d="M74.6083984,52.3994141c-0.4667969-0.2929688-1.0839844-0.1513672-1.3789062,0.315918  c-0.2929688,0.4677734-0.1513672,1.0849609,0.3164062,1.378418c0.9375,0.5878906,1.8359375,1.090332,2.7451172,1.5351562  c0.1416016,0.0688477,0.2910156,0.1015625,0.4384766,0.1015625c0.3701172,0,0.7255859-0.2060547,0.8994141-0.5605469  c0.2421875-0.4960938,0.0371094-1.0952148-0.4589844-1.3378906C76.3242188,53.418457,75.4863281,52.949707,74.6083984,52.3994141z"/>
<path class='cls-1'  d="M11,58.3540039c0.5273438,0,1.0400391-0.0107422,1.5400391-0.0307617  c0.5517578-0.0219727,0.9814453-0.4873047,0.9589844-1.0390625c-0.0224609-0.5522461-0.4951172-0.9794922-1.0390625-0.9589844  C11.9853516,56.3442383,11.5,56.3540039,11,56.3540039c-0.5527344,0-1,0.4477539-1,1S10.4472656,58.3540039,11,58.3540039z"/>
</svg>