<?xml version="1.0" encoding="UTF-8"?>
<svg id="Layer_1" data-name="Layer 1" xmlns="http://www.w3.org/2000/svg" viewBox="0 0 1920 1080">
  <defs>
    <style>
      .cls-1 {
        fill: #000;
        stroke: #f00;
        stroke-dasharray: 0 16.88;
        stroke-linecap: round;
        stroke-linejoin: round;
        stroke-width: .99px;
      }
    </style>
  </defs>
  <path id="Path_923" data-name="Path 923" class="cls-1" d="m0,592.78c21.29,8.93,42.86,17.26,64.64,24.66,65.12,22.15,132.3,36.13,200.77,33.75,60.32-2.11,119.08-16.83,177.51-33.75,13.74-3.98,27.47-8.09,41.19-12.18,2.74-.82,5.48-1.64,8.23-2.45,4-1.19,8-2.38,12.01-3.56,71.38-21.05,142.86-39.93,216.66-37.59,67.71,2.15,132.98,22.1,198.08,42.92,10.09,3.23,20.18,6.45,30.27,9.67,3.36,1.07,6.72,2.13,10.09,3.19,62.32,19.57,124.9,36.72,189.74,36.6,65.2-.12,129.27-17.75,192.93-36.6,1.15-.34,2.29-.68,3.44-1.02l6.75-2.01c4.59-1.36,9.18-2.73,13.78-4.1,85.2-25.34,169.83-49.19,255.6-32.29,40.68,8.01,79,24.95,118.64,37.1h.02c2.59.79,5.19,1.57,7.79,2.32,5.54,1.6,11.11,3.07,16.72,4.42,49.84,11.88,102.44,9.03,152.26-4.42h2.9v-.8"/>
</svg>