<?xml version="1.0" encoding="UTF-8"?>
<svg id="Layer_1" data-name="Layer 1" xmlns="http://www.w3.org/2000/svg" viewBox="0 0 1080 1080">
  <defs>
    <style>
      .cls-1 {
        fill: #ffffff;
      }
    </style>
  </defs>
  <path class="cls-1" d="m1015.24,177.56c-5.2,2.61-8.18,4.01-11.08,5.56-35.62,19.18-73.09,33.32-112.58,42.31-7.71,1.75-12.32.07-17.9-5.23-49.58-47.14-109-67.07-176.46-58.05-119.23,15.95-198.01,125.14-182.35,238.45.95,6.86,1.65,13.76,2.65,22.16-178.83-12.75-324.85-86.61-440.79-222.38-27.47,49.14-34.31,100.44-22.11,153.94,12.2,53.46,42.46,95.56,86.57,128.34-33.5,1.05-63.52-9.28-93.73-23.55-.65,40.46,9.74,76.38,29.74,109.38,31.85,52.56,78.63,84.98,139.56,99.47-2.69,1.67-3.97,2.97-5.48,3.33-28.76,6.83-57.81,7.59-89.61,2.48,36.49,91.47,102.34,139.05,200.57,147.12-93.21,70.55-195.1,99.82-309.39,90.81.99,1.61,1.2,2.35,1.67,2.65,3.75,2.36,7.52,4.7,11.35,6.92,129.82,74.99,269.02,97.86,416.26,73.64,132.33-21.76,244.68-81.95,334.14-181.77,109.56-122.24,164.12-266.21,162.12-430.83-.12-9.67,2.79-15.53,10.42-21.17,11.78-8.7,22.91-18.39,33.64-28.39,22.22-20.71,41.96-43.61,60.27-70.81-38.93,15.5-76.49,27.1-116.64,29.72,41.44-28.21,71.45-64.7,89.12-114.09Z"/>
</svg>