<?xml version="1.0" encoding="UTF-8"?>
<svg id="Layer_1" data-name="Layer 1" xmlns="http://www.w3.org/2000/svg" viewBox="0 0 1080 1080">
  <defs>
    <style>
      .cls-1 {
        fill: #ffffff;
      }
    </style>
  </defs>
  <path class="cls-1" d="m1037.17,323.94c-.78-55.87-14.82-104.81-41.73-145.47-26.52-40.07-65.9-72.65-117.05-96.84-21.42-10.13-46-16.61-75.15-19.82-1.91-.21-3.81-.6-5.82-1.02-.96-.2-1.92-.4-2.88-.57l-.27-.05h-459.54l-.53.05c-4.42.79-8.96,1.48-13.35,2.14-9.62,1.46-19.56,2.97-29.11,5.62-52.89,14.69-96.21,39.55-128.78,73.89-32.5,34.27-55.09,78.84-67.14,132.47-1.48,6.59-2.44,13.35-3.37,19.89-.42,3-.86,6.1-1.35,9.12l-.04.23v459.5l.05.53c.79,4.43,1.48,8.98,2.15,13.38,1.46,9.64,2.97,19.6,5.64,29.17,29.49,106.07,98.84,171.85,206.1,195.52,14.89,3.29,31.41,4.78,53.54,4.84,82.56.23,160.42.34,234.9.34,60.9,0,119.55-.08,176.6-.23,92.95-.24,167.28-38.52,220.92-113.76,30.87-43.3,46.55-93.79,46.62-150.08.04-37.32.18-75.26.3-111.96.35-100.6.71-204.62-.72-306.91ZM180.46,715.91c0-1.48,0-2.97,0-4.46,0-5.86,0-11.72-.01-17.58,0-1.35,0-2.69,0-4.04,0-6.75,0-13.5,0-20.24,0-.09,0-.19,0-.28,0-7.51,0-15.02,0-22.51,0-9.32,0-18.61,0-27.86,0-1.31,0-2.62,0-3.93,0-3.07,0-6.13,0-9.18,0-5.34,0-10.68,0-15.99,0-19.1,0-38.2,0-57.3,0-20.07,0-40.14.01-60.21,0-5.49,0-11,0-16.53,0-1.53,0-3.06,0-4.6,0-3.54,0-7.07,0-10.62,0-3.3,0-6.61,0-9.92,0-1.75,0-3.5,0-5.25,0-3.74,0-7.49,0-11.24,0-.61,0-1.22,0-1.83,0-.65,0-1.3,0-1.96,0-5.45,0-10.9,0-16.36,0-1.56,0-3.11,0-4.67,0-5.14,0-10.29,0-15.43,0-1.71,0-3.42,0-5.14,0-5.22,0-10.44-.01-15.65,0-1.49,0-2.97,0-4.46,0-6.68-.01-13.35-.02-20.01-.06-41.59,10.5-76.27,32.29-106,35.43-48.34,84.15-72.91,144.8-73.02,161.09-.29,292.4-.28,413.24.01,79.18.2,143.5,45.53,167.87,118.31,5.91,17.65,9.1,38.5,9.23,60.3.74,127.68.57,257.51.4,383.06l-.04,27.41c-.1,80.9-44.27,144.04-118.15,168.91-17.73,5.97-38.57,9.19-60.27,9.32-134.44.79-265.85.63-411.39.35-79.39-.15-142.43-44.19-168.65-117.79-6.31-17.7-9.26-37.47-9.28-62.19,0-7.12-.01-14.26-.02-21.41Z"/>
  <path class="cls-1" d="m563.74,778.86c.47,0,.93,0,1.4,0,64.24,0,125.06-25.22,171.37-71.1,47-46.56,73.01-108.33,73.24-173.91.23-64.94-25.19-126.39-71.6-173.02-46.59-46.82-108.26-72.66-173.65-72.75-.11,0-.23,0-.34,0-134.17,0-244.13,109.63-245.19,244.53-.51,64.6,24.56,125.87,70.58,172.52,46.53,47.16,108.39,73.34,174.19,73.72Zm110.87-135.46c-29.44,29.48-68.56,45.77-110.14,45.84-.1,0-.2,0-.29,0-85.65,0-155.42-69.77-155.59-155.66-.16-85.79,69.67-155.72,155.66-155.88.11,0,.21,0,.32,0,41.36,0,80.32,16.16,109.73,45.52,29.48,29.44,45.76,68.55,45.84,110.14.08,41.48-16.09,80.56-45.53,110.04Z"/>
  <path class="cls-1" d="m816.57,345.54c.11,0,.22,0,.33,0,17.03,0,33.14-6.74,45.4-19.01,12.22-12.23,18.9-28.26,18.81-45.13-.19-34.92-28.84-63.52-63.87-63.77-.15,0-.3,0-.45,0-16.99,0-33.04,6.69-45.25,18.87-12.23,12.2-18.92,28.25-18.85,45.21.16,35.02,28.81,63.65,63.88,63.83Z"/>
</svg>