<?xml version="1.0" encoding="UTF-8"?>
<svg id="Layer_1" data-name="Layer 1" xmlns="http://www.w3.org/2000/svg" viewBox="0 0 1080 1080">
  <defs>
    <style>
      .cls-1 {
        fill: #ffffff;
      }

    </style>
  </defs>
  <path class="cls-1" d="m515.99,201.96c32.9,43.79,78.04,60.89,131.67,53.24,47.36-6.75,82.51-32.61,101.27-76.73,28.84-67.86-14.38-146.63-88.25-163.79-5.6-1.3-11.16-2.76-16.73-4.14h-35.12c-17.62,6.28-36.64,10.13-52.61,19.28-63.53,36.4-82.04,116.48-40.22,172.13Z"/>
  <path class="cls-1" d="m618.74,968.18c-18.52-5.29-28.65-17.77-32.57-36.17-5.22-24.53-2.25-48.92,3.38-72.65,10.71-45.12,23.1-89.83,34.75-134.72,17.91-69.05,43.14-136.21,46.01-208.95,2.08-52.87-23.65-103.91-71.37-127.35-46.14-22.67-94.95-23.78-144.29-15.07-50.06,8.85-96.7,28.86-143.88,46.86-2.49.95-5.5,3.5-6.14,5.88-4.87,18.12-9.2,36.38-14.17,56.49,12.05-3.94,22.31-7.46,32.67-10.66,27.73-8.57,55.79-11.33,84.52-5.29,21.77,4.57,34.13,17.46,38.05,39.26,4.48,24.9,2.53,49.67-3.73,73.68-18.56,71.15-37.85,142.13-57.59,212.97-12.32,44.21-23.18,88.59-23.31,134.77-.15,56.03,25.35,97.54,75.42,121.62,55.32,26.61,113.84,24.83,171.54,9.44,34.07-9.09,66.47-24.23,100.1-35.19,15.75-5.13,24.67-13.17,26.6-30.11,1.43-12.6,5.54-24.89,8.61-37.93-12.39,3.91-23.11,7.62-34.02,10.67-29.96,8.39-60.1,11.15-90.58,2.44Z"/>
</svg>