<?xml version="1.0" encoding="UTF-8"?>
<svg id="Layer_1" data-name="Layer 1" xmlns="http://www.w3.org/2000/svg" viewBox="0 0 1080 1080">
  <defs>
    <style>
      .cls-1 {
        fill: #ffffff;
      }
    </style>
  </defs>
  <path class="cls-1" d="m593.71,998.75c10.28-13.21,19.23-27.45,28.75-41.25,52.44-76.03,106.03-151.28,156.97-228.3,43.86-66.32,80.72-136.62,105.21-212.74,22.42-69.7,29.67-140.23,10.83-212.08C846.13,116.24,654.18,7.29,467.52,61.49c-141.97,41.23-242.81,173.66-245.06,321.65-.79,51.95,10.13,101.76,27.34,150.37,27.72,78.34,68.02,150.36,114.19,218.92,55.83,82.9,113.65,164.46,171.03,246.3,5.74,8.19,14.42,14.32,21.73,21.41h15.2c7.32-7.08,15.57-13.44,21.76-21.4Zm-26.39-61.93c-.69,1-1.6,1.84-3.38,3.87-39.29-55.79-78.18-110.42-116.42-165.5-42.97-61.89-83.44-125.35-115.97-193.5-22.83-47.82-40.81-97.17-49.06-149.92-19.26-123.05,48.67-249.75,162.07-300.79,168.05-75.64,357.33,18.44,398.26,198.19,13.41,58.88,5.21,116.38-13.37,172.88-24.7,75.11-62.41,143.9-106.03,209.23-50.76,76.03-103.94,150.45-156.09,225.55Z"/>
  <path class="cls-1" d="m564.66,218.46c-94.25-.12-171.16,76.51-171.27,170.65-.12,94.24,76.52,171.16,170.66,171.28,94.24.12,171.15-76.52,171.27-170.67.12-94.26-76.49-171.14-170.66-171.26Zm-1.06,284.94c-62.17-.27-113.24-51.7-113.23-114.03.02-62.71,51.48-114.03,114.26-113.93,62.69.1,113.89,51.66,113.7,114.48-.19,62.64-51.86,113.74-114.73,113.48Z"/>
</svg>