<?xml version="1.0" encoding="UTF-8"?>
<svg id="Layer_1" data-name="Layer 1" xmlns="http://www.w3.org/2000/svg" viewBox="0 0 1080 1080">
  <defs>
    <style>
      .cls-1 {
        fill: #ffffff;
      }
    </style>
  </defs>
  <path class="cls-1" d="m959.17,758.05c-19.71-22.24-102.05-104.41-129.11-131.42-3.42-3.42-5.87-5.86-7.07-7.06-6.83-7.54-31-31.22-64.71-31.22-15.84,0-30.9,5.28-44.7,15.63-20.61,15.08-51.05,41.98-76.37,64.84-21.91-12.23-75.22-42.99-109.55-71.07-51.44-41.74-97.25-96-140.04-165.89l-9.3-17.28c32-34.52,54.73-60.59,67.6-77.53,15.09-20.04,19.39-42.67,12.44-65.46-4.84-15.85-15.52-32-28.62-43.25-12.47-12.5-114.72-113.51-139.55-135.05-15.16-13.27-34.13-20.29-54.85-20.29-16.62,0-28.74,4.74-31,5.7l-.54.23-9.79,5.94-.12.08c-26.46,16.72-56.46,35.67-79.76,70.05-26.19,38.64-39.74,91.03-41.4,160.15v.19c0,155.32,121.86,305.45,224.16,404.1,107.07,116.13,269.92,254.46,438.06,254.46h.99c69.44-1.55,122.13-14.93,161.08-40.92,34.4-22.95,53.73-52.75,70.78-79.05l3.75-6.07,2.35-4,.21-.5c7.2-17.19,12.17-54.5-14.91-85.3ZM399.06,302.31c-13.4,17.66-41.65,49.76-77.48,88.04l-14.39,15.2,29.51,54.94.22.39c46.58,76.12,96.83,135.57,153.58,181.71,50.78,41.43,132.98,85.05,137.31,87.32l18.26,9.69,15.16-13.96c13.97-12.84,61.55-56.2,87.25-75.28,3.59-2.73,6.71-4,9.8-4,8.05,0,17.7,8.08,20.92,11.81l1.13,1.35.38.43c.17.17.58.58,4.37,4.35,91.64,91.06,121.26,122.03,130.02,132.02,7.89,8.86,6.6,18.51,5.59,23.08l-1.92,2.66-.23.34c-32.57,50.54-58.3,90.47-183.43,93.48h-.17c-155.29,0-314.74-148.35-395.96-236.77l-.34-.35c-94.75-91.4-207.62-228.53-207.36-362.77,2.71-124.31,42.96-149.88,93.99-182.31l2.9-1.85c1.8-.42,4.43-.82,7.16-.82,6.61,0,11.76,1.91,16.7,6.21,24.58,21.23,136.22,131.75,137.35,132.87l1.44,1.41.67.58c.06.04,5.65,4.53,9.05,11.17,3.57,6.99,3.11,13.05-1.48,19.07Z"/>
</svg>