<?xml version="1.0" encoding="UTF-8"?>
<svg id="Layer_1" data-name="Layer 1" xmlns="http://www.w3.org/2000/svg" viewBox="0 0 1080 1080">
  <defs>
    <style>
      .cls-1 {
        fill: #ffffff;
      }
    </style>
  </defs>
  <path class="cls-1" d="m324.6,887.87c59.85,32.45,126.7,49.57,194.38,49.57,225.49,0,408.95-183.46,408.95-408.97S744.47,119.55,518.98,119.55,110.03,303,110.03,528.47c0,68.98,17.68,136.93,51.3,197.55l-59.37,221.49,222.64-59.64Zm194.38-691.01c182.88,0,331.66,148.75,331.66,331.61s-148.78,331.66-331.66,331.66c-59.27,0-117.82-16.22-169.31-46.89l-14.01-8.36-124.34,33.32,33.09-123.64-8.6-14.13c-31.74-52.12-48.45-111.58-48.45-171.96,0-182.86,148.73-331.61,331.61-331.61Z"/>
  <path class="cls-1" d="m349.33,518.62c7.97,13.57,16.62,26.77,25.94,39.44,30.58,41.49,68.54,77.53,112.55,104.48,21.98,13.48,45.65,25.28,70.19,33.4,27.49,9.08,51.98,18.52,81.68,12.89,31.11-5.88,61.73-25.14,74.1-55.09,3.67-8.88,5.46-18.75,3.43-28.14-4.2-19.36-30.43-30.88-46.13-40.25-16.81-10.07-38.74-21.3-58.55-13.19-15.22,6.23-24.93,30.05-34.78,42.21-5.07,6.22-11.11,7.21-18.89,4.07-57.1-22.73-100.86-60.85-132.35-113.38-5.36-8.18-4.4-14.61,2.03-22.16,9.52-11.23,21.5-23.93,24.06-39.05,2.61-15.1-4.49-32.76-10.72-46.2-8.02-17.2-16.91-41.71-34.1-51.43-15.84-8.94-36.71-3.92-50.77,7.55-24.35,19.83-36.08,50.86-35.75,81.66.1,8.76,1.16,17.49,3.24,25.89,4.88,20.32,14.25,39.25,24.83,57.31Z"/>
</svg>