<?xml version="1.0" encoding="UTF-8"?>
<svg id="Layer_1" data-name="Layer 1" xmlns="http://www.w3.org/2000/svg" viewBox="0 0 1080 1080">
  <defs>
    <style>
      .cls-1 {
        fill: #00b1ff;
      }
      .cls-2 {
        fill: #EE8305;
      }
      .cls-3 {
        fill: #E11A4B;
      }
      .cls-4 {
        fill: #C75495;
      }
      .cls-5 {
        fill: #619F75;
      }
      .cls-6 {
        fill: #D7DFD8;
      }
    </style>
  </defs>
  <polygon class="cls-6" points="587.27 48.21 595.8 32.62 611.38 24.11 595.8 15.58 587.27 0 578.77 15.58 563.19 24.11 578.77 32.62 587.27 48.21"/>
  <polygon class="cls-5" points="772.6 92.29 779.18 80.24 791.21 73.66 779.18 67.09 772.6 55.04 766 67.09 753.95 73.66 766 80.24 772.6 92.29"/>
  <polygon class="cls-2" points="129.52 396.31 115.5 388.69 129.52 381.07 137.14 367.06 144.76 381.07 158.78 388.69 144.76 396.31 137.14 410.33 129.52 396.31"/>
  <polygon class="cls-4" points="177.67 167.16 158.06 156.39 177.67 145.72 188.33 126.22 199 145.72 218.5 156.39 199 167.16 188.33 186.66 177.67 167.16"/>
  <polygon class="cls-3" points="331.05 289.25 293.36 268.63 331.05 248.01 351.77 210.33 372.39 248.01 409.97 268.63 372.39 289.25 351.77 326.93 331.05 289.25"/>
  <polygon class="cls-1" points="677.92 176.3 630.9 90.26 584.17 175.69 583.87 176.3 581.43 177.62 539.58 200.57 497.83 223.33 583.87 270.46 630.9 356.49 649.48 322.46 677.92 270.46 678.33 270.25 763.96 223.43 677.92 176.3"/>
  <path class="cls-1" d="m755.25,537.47c-3.49,3.29-8.36,4.41-12.9,5.4-9.48,2.04-16.79,3.49-26.33,5.53-4.48.99-9.22,1.97-13.1,4.67-3.88,2.63-6.52,6.58-8.95,10.67-11.46,20.01-17.12,42.86-22.71,65.31-9.08,37.06-18.24,74-27.32,111-1.45,6.12-3.29,12.57-6.32,18.1l2.44,1.18c-4.87,13.3-9.88,26.53-14.61,39.83-1.25,3.42-2.57,6.91-2.63,10.47-.33,3.88.79,7.51,1.78,11.26,4.61,16.59,9.61,33.31,13.76,50.1,3.23,12.71,86.18,128.24,101.65,133.45-159.38,70.44-334.7,91.64-503.63,63.6,3.36-.79,124.43-17.78,124.43-18.1,118.5-21.46,134.96-152.01,134.96-152.01-14.35,5.27-27.45,9.74-42.27,12.97l-.66-2.44c-1.51.33-3.09.59-4.67.92-38.45,8.23-69.45,9.68-107.44,12.51-23.04,1.84-53-.2-74.66,7.9-4.34,1.65-8.82,3.55-12.11,7.04-3.09,3.23-4.94,7.77-6.65,12.18-3.69,9.02-5.99,15.14-9.68,24.16-1.71,4.34-3.55,8.95-7.44,11.78-3.75,2.76-9.94,2.83-12.38-1.12-2.04-3.36-1.65-4.48-.59-8.1,3.16-12.05,6.72-22.45,13.5-36.41-7.18,9.09-14.55,17.91-21.73,26.86-4.87,5.99-14.61,13.56-19.09,7.18-4.08-5.99,14.02-38.71,29.03-54.12-15.93,12.05-40.95,32.39-47.6,24.36-4.28-9.68,25.67-36.87,45.29-47.86-7.64-5.27-14.75-12.18-20.15-19.82-2.11-2.9-4.08-6.25-4.34-9.94-.2-3.62,1.84-7.7,5.4-8.62,2.5-.59,5.27.13,7.31,1.51,11.13,8.16,12.57,10.07,22.65,17.31,21.33,15.01,53.59,19.49,79.53,17.45,46.94-3.75,90.78-12.31,135.68-24.69-.39-1.51-.79-3.16-1.18-4.67,25.87-9.68,44.7-21.13,63.13-32.79-2.24-3.88-4.34-7.77-6.45-11.52-22.05,13.1-46.54,22.38-71.76,26.86-65.31,11.52-134.7-7.77-187.36-48.06-1.84-1.32-3.75-2.83-5.99-2.76-2.17,0-4.02,1.45-5.6,2.57-9.15,6.45-29.3,14.81-43.32,5.46-8.89-5.79-11.26-19.62-6.06-28.64,3.36-5.6,10.53-10.67,20.8-13.3-15.6-8.43-29.16-21.13-39.5-35.88-11.19-16.06-18.56-34.3-23.63-53.19-5.73,1.51-11.39,2.7-17.12,3.55C75.97,683.35,28.77,672.16,0,639.9c30.28-3.29,59.84-13.1,85.85-28.77-24.89,2.04-50.36-5.2-70.57-19.88,42.66-2.96,84.6-15.67,121.86-36.8-34.43,2.04-69.46-11.65-93.35-36.67,38.71,1.51,77.82-6.71,112.77-23.44,36.87-17.78,68.73-44.83,105.53-62.67,35.95-17.71,80.51-25.61,115.28-5.93,13.89-14.81,28.77-29.76,47.66-37.06,35.16-13.63,76.24,3.29,101.84,30.81,20.87,22.45,33.64,50.76,44.83,79.53,4.94-10.2,18.89-14.75,29.36-9.94,11.26,5.27,16.72,19.55,13.36,31.53-3.36,11.98-14.48,20.94-26.73,23.17,14.35,62.15,18.24,129.69-8.43,187.69-9.94,21.66-24.03,41.08-41.01,57.6,6.98,8.43,4.34,5.27,11.39,13.63,2.83-2.04,5.6-4.28,8.1-6.58,18.43-17.31,28.57-41.34,38.18-64.65,0,0,1.58,1.12,4.08,2.9,20.61-51.94,40.36-104.41,52.21-159.12,2.96-13.3,3.69-27.12,1.12-40.62-4.87-24.89-16.52-29.95-21.92-46.81-.72-2.44-1.32-5.07-.33-7.44,1.51-3.42,5.99-5.27,9.35-3.82,10.86,4.02,21.53,19.16,26,29.36,14.02-17.58,54.64-35.75,59.25-29.36,8.23,8.3-21.33,26.99-34.37,38.97,13.96-11.13,50.82-24.56,54.77-17.97,4.15,6.52-3.69,14.02-10.4,17.78-9.94,5.73-16.46,9.48-26.4,15.14,12.71-2.44,25.21-6.39,37.99-7.44,4.81-.39,5.92-.59,8.76,1.98,3.56,3.03,2.57,9.22-.79,12.44Z"/>
</svg>