<svg xmlns="http://www.w3.org/2000/svg" id="Layer_1" data-name="Layer 1" viewBox="1.34 391.09 1078.67 297.03">
  <defs>
    <style>
      .cls-1 {
        fill: #f28705;
      }

      .cls-1, .cls-2, .cls-3, .cls-4 {
        fill-rule: evenodd;
      }

      .cls-2 {
        fill: #9089b0;
      }

      .cls-5 {
        fill: #e51a4b;
      }

      .cls-3 {
        fill: #61a375;
      }

      .cls-4 {
        fill: #cb5499;
      }

      .cls-6 {
        fill: #00b5ff;
      }

      .cls-7 {
        fill: #b2b3b3;
      }
    </style>
  </defs>
  <path class="cls-6" d="m279.88,453.99l-11.78,6.44-11.77,6.45-.69.37-13.24,24.24-13.26-24.24-24.23-13.26,24.23-13.26,7.54-13.79c-23.48-18.3-52.67-29.63-84.29-30.69-29.49-1-57.1,6.74-80.44,20.84l-.36.2c-1.37.84-2.72,1.71-4.05,2.57l-.82.55c-17.69,12.42-72.63,61.08-42.62,171.07,0,0-22.04-30.65-15.37-95.27-5.21,15.65-7.81,32.49-7.34,49.98,2.1,77.37,65.44,140.29,142.81,141.9,6.56.13,13.01-.15,19.36-.89,35.88-4.48,40.74-43.27,40.74-43.27-4.01,1.49-7.72,2.75-11.89,3.66l-.18-.66c-.44.07-.89.15-1.31.25-10.85,2.33-19.58,2.7-30.27,3.53-6.5.51-14.93-.07-21.03,2.22-1.24.47-2.48,1.02-3.39,1.97-.91.93-1.42,2.2-1.91,3.43-1.02,2.55-1.68,4.26-2.7,6.81-.49,1.24-1.02,2.53-2.09,3.33-1.06.77-2.81.8-3.5-.33-.58-.93-.44-1.24-.18-2.28.89-3.37,1.91-6.32,3.82-10.23-2.04,2.53-4.08,5.03-6.12,7.54-1.38,1.68-4.12,3.84-5.39,2.04-1.13-1.68,3.97-10.91,8.2-15.26-4.5,3.42-11.55,9.14-13.41,6.87-1.22-2.73,7.21-10.4,12.73-13.48-2.13-1.49-4.15-3.44-5.65-5.57-.6-.85-1.15-1.78-1.22-2.82-.06-1.02.51-2.17,1.51-2.41.71-.18,1.48.02,2.06.42,3.15,2.28,3.55,2.83,6.39,4.85,5.99,4.24,15.1,5.5,22.4,4.92,13.21-1.06,25.56-3.46,38.2-6.94-.11-.44-.22-.88-.33-1.33,7.27-2.7,12.57-5.94,17.78-9.22-.62-1.09-1.24-2.18-1.84-3.24-6.21,3.68-13.08,6.28-20.18,7.54-18.4,3.26-37.94-2.18-52.78-13.53-.51-.37-1.06-.8-1.71-.77-.58.02-1.09.4-1.55.73-2.57,1.82-8.25,4.17-12.19,1.55-2.51-1.64-3.18-5.54-1.71-8.07.93-1.58,2.97-3.02,5.85-3.75-4.41-2.4-8.2-5.97-11.11-10.11-3.15-4.52-5.25-9.67-6.67-14.99-1.6.42-3.2.78-4.82,1.02-12.02,1.91-25.32-1.25-33.4-10.33,8.52-.91,16.83-3.7,24.17-8.09-7.01.56-14.19-1.46-19.89-5.61,12.02-.84,23.84-4.41,34.32-10.35-9.69.58-19.58-3.3-26.3-10.34,10.91.42,21.91-1.88,31.76-6.61,10.4-5.01,19.36-12.6,29.71-17.65,10.14-4.97,22.71-7.21,32.47-1.64,3.94-4.18,8.11-8.39,13.44-10.45,9.89-3.84,21.46.91,28.67,8.67,5.88,6.32,9.49,14.28,12.62,22.4,1.41-2.86,5.32-4.17,8.27-2.81,3.17,1.48,4.72,5.52,3.77,8.89-.93,3.37-4.08,5.9-7.52,6.54,4.04,17.5,5.12,36.52-2.37,52.84-2.8,6.1-6.78,11.57-11.55,16.23,1.97,2.37,1.24,1.49,3.22,3.84.8-.58,1.55-1.2,2.29-1.87,5.17-4.85,8.03-11.64,10.74-18.2,0,0,.44.31,1.15.82,5.81-14.64,11.35-29.4,14.71-44.79.82-3.77,1.04-7.65.31-11.44-1.38-7.01-4.66-8.45-6.17-13.21-.22-.67-.38-1.42-.09-2.09.42-.95,1.69-1.46,2.64-1.08,3.06,1.15,6.06,5.43,7.32,8.27,3.95-4.94,15.39-10.07,16.67-8.27,2.33,2.35-6.01,7.62-9.67,11,3.92-3.15,14.31-6.92,15.41-5.06,1.18,1.82-1.02,3.92-2.9,4.99-2.82,1.6-4.63,2.66-7.45,4.26,3.57-.69,7.1-1.8,10.71-2.08,1.33-.11,1.64-.16,2.46.56,1,.86.71,2.59-.24,3.5-.96.93-2.33,1.24-3.62,1.53-2.68.58-4.72.96-7.41,1.53-1.29.29-2.61.58-3.7,1.33-1.08.73-1.84,1.86-2.51,2.99-3.26,5.65-4.86,12.09-6.41,18.4-2.57,10.43-5.12,20.84-7.7,31.27-.42,1.7-.93,3.53-1.77,5.1l.66.33c-1.37,3.75-2.75,7.48-4.1,11.22-.35.95-.71,1.93-.75,2.93-.07,1.09.22,2.13.51,3.17,1.31,4.68,2.68,9.38,3.86,14.1,1.35,5.32,8.1,7.12,11.75,3.01,23.57-26.37,37.72-61.36,37.1-99.66-.44-28.28-9.12-54.71-23.66-76.99l10.22-8.74Zm-174.39,48.72l-2.16,3.95-2.15-3.95-3.95-2.15,3.95-2.15,2.15-3.95,2.16,3.95,3.95,2.15-3.95,2.15Zm15.26-64.55l-2.99,5.5-3.01-5.5-5.5-3.02,5.5-3.01,3.01-5.5,2.99,5.5,5.5,3.01-5.5,3.02Zm48.83,34.39l-5.81,10.62-5.81-10.62-10.62-5.81,10.62-5.81,5.81-10.62,5.81,10.62,10.6,5.81-10.6,5.81Z"/>
  <polygon class="cls-6" points="309.19 478.61 304.39 469.83 299.59 478.61 290.81 483.41 299.59 488.22 304.39 497 309.19 488.22 317.98 483.41 309.19 478.61"/>
  <polygon class="cls-6" points="230.11 404.66 232.51 400.28 236.9 397.88 232.51 395.48 230.11 391.09 227.71 395.48 223.33 397.88 227.71 400.28 230.11 404.66"/>
  <polygon class="cls-6" points="282.3 417.08 284.15 413.69 287.54 411.83 284.15 409.98 282.3 406.59 280.44 409.98 277.05 411.83 280.44 413.69 282.3 417.08"/>
  <path class="cls-6" d="m655.9,514.94c-2.14,2.24-2.27,7.65-2.89,9.98-1.93,7.28-4.94,14.36-9.45,20.43-1.86,2.49-4.04,5.38-7.06,6.5-12.87,4.76-13.21-51.73,12.65-50.83,2.24.06,4.85,1.4,7.24,1.8-.22,4.04-.37,8.08-.5,12.13m23.1-22.91c0-5.81-4.51-10.26-10.14-10.91-7.71-.31-10.54,4.79-11.63,10.79h-.03c-15.02-11.35-48.87-6.13-50.77,40.29-.4,9.36.25,17.94,6.44,25.37,1.74,2.08,3.79,3.92,6.09,5.35,15.86,9.76,29.44-6.19,36.69-23.91.06,5.88.28,11.72.65,17.54.53,8.24,2.3,18.16,13.06,17.16,5.56-.96,9.82-5.66,9.51-11.44-2.52-46.73.16-53.13.12-70.23Zm-77.73,15.02c3.33-26.58-20.77-28.29-38.33-9.89-.03-.09-.03-.19-.03-.28-.62-8.27-2.89-17.91-13.46-16.57-5.53,1.15-9.61,5.97-9.11,11.75,5.53,63.64-5.97,74.87,5.63,81.24,1.27.68,2.64,1.06,4.07,1.27,10.85.78,12.25-9.23,12.78-17.47,1.06-15.64,1.4-31.56.81-47.32,4.04-5.32,10.66-11.44,16.14-8.15,7.21,4.32-9.27,23.01,9.42,23.01,29.69,0,9.89,0,12.09-17.6Zm-90.91-3.17c1.55-2.39,3.36-4.76,6-5.97,7.03-3.2,17.85,1.27,9.98,13.31-4.2,6.47-11.44,10.69-18.37,13.65-1.43.59-3.14,1.15-4.73,1.8.62-8.15,2.89-16.26,7.12-22.79Zm19.15,33.98c-3.73.16-3.26,4.41-4.26,6.93-3.89,9.95-12.47,16.17-15.98,11.5-3.45-4.6-5.19-12.31-5.85-18,5.07.06,11.88-4.97,15.02-7.18,17.82-12.34,25.12-36.16,5.81-45.67-12.22-6.03-28.17-1.31-36.72,16.32-9.76,20.21-9.36,56.55,8.61,67,24.34,14.21,44.52-30.47,33.36-30.9Zm-67.72-32.49c-11.41-4.82-21.33,1.99-28.6,12.19-.09-7.12-.19-15.2-.22-24.34-.06-8.11-.59-17.41-11.04-17.85-6.06.25-10.88,4.85-10.97,11.01-.44,22.11.53,44.24.28,66.38-.09,8.46-1.96,19.77,9.42,21.51,1.43.09,2.83.03,4.26-.37,8.11-2.33,8.74-6.62,8.43-41.79,1.77-3.67,4.13-8.43,9.05-12.19,2.11-1.65,5.81-3.48,8.27-1.43,2.7,2.3,3.23,6.59,3.95,9.89,2.11,9.89,1.4,19.96-.06,29.91-1.15,7.55-1.03,15.61,8.21,17.5,12.41,1.55,13.09-11.19,14.15-19.06,2.15-16.51,3.45-43.56-15.11-51.36Zm-59.45-58.08c-6.4-.5-12.84-.75-19.28-.78-1.49-.65-3.14-1.12-4.85-1.27-3.2-.09-5.81.4-7.96,1.52-6.06.25-12.13.72-18.13,1.37-7.31.81-17.85,1.24-16.98,11.32,1.59,9.61,8.21,7.59,26.8,6.84-1.49,16.32.09,43.15-.16,84.13-.09,10.85.59,23.16,14.55,24,20.86-.34,14.71-22.26,14.95-83.01.03-8.11.68-16.29.9-24.44,5.32.65,10.88,1.96,16.1,1.87,5.25-.12,9.27-4.04,10.17-9.08.96-10.2-8.27-11.85-16.14-12.47Z"/>
  <path class="cls-5" d="m985.34,514.94c-2.15,2.24-2.27,7.65-2.89,9.98-1.93,7.28-4.94,14.36-9.45,20.43-1.86,2.49-4.04,5.38-7.06,6.5-12.87,4.76-13.21-51.73,12.65-50.83,2.24.06,4.85,1.4,7.24,1.8-.22,4.04-.37,8.08-.5,12.13m23.1-22.91c0-5.81-4.51-10.26-10.14-10.91-7.71-.31-10.54,4.79-11.63,10.79h-.03c-15.02-11.35-48.87-6.13-50.77,40.29-.4,9.36.25,17.94,6.44,25.37,1.74,2.08,3.79,3.92,6.09,5.35,15.86,9.76,29.44-6.19,36.69-23.91.06,5.88.28,11.72.65,17.54.53,8.24,2.3,18.16,13.06,17.16,5.57-.96,9.83-5.66,9.51-11.44-2.52-46.73.16-53.13.12-70.23Zm-88.36-10.38c5.47,0,9.89-4.17,9.89-9.33s-4.42-9.36-9.89-9.36-9.89,4.2-9.89,9.36,4.41,9.33,9.89,9.33Zm10.17,18.06c-1.21-5.69-6.53-9.11-12.16-8.58-5.29.93-9.39,5.13-9.51,10.6-.25,10.51.47,21.14.34,31.68-.09,10.07-1.09,20.58-.19,30.65.53,5.78,5.41,9.82,11.07,10.01,5.35-.28,9.95-3.95,10.76-9.39.4-2.7.06.09.4-34.54.09-9.86,1.37-20.77-.72-30.44Zm-52.64,26.83c-2.55,12.28-7.65,28.35-14.68,33.42-5.78,4.17-10.45-1.43-11.85-6.68-4.38-16.45,7.49-40.26,18.41-40.17,2.7,0,5.72,2.11,8.52,2.98-.16,3.48-.31,6.96-.4,10.45Zm24.28-38.86c.06-5.81-4.38-10.35-10.01-11.07-12.13-.62-12.09,11.29-12.56,18.28-.25,3.17-.44,6.34-.65,9.55-23.66-17.26-51.89,9.08-50.46,43.28.53,13.06,6.53,23.91,19.31,26.86,14.92,3.48,24.19-8.36,30.19-24,.12,2.61.28,5.22.47,7.83.53,7.4.9,17.5,9.95,19.34,2.67.53,5.81-.03,8.21-1.65,7.06-4.69,4.1-13.34,3.7-20.33-1.77-28.79,1.77-61.68,1.87-68.09Zm-101.08,16.2c1.55-2.39,3.36-4.76,6-5.97,7.03-3.2,17.85,1.27,9.98,13.31-4.2,6.47-11.44,10.69-18.37,13.65-1.43.59-3.14,1.15-4.73,1.8.62-8.15,2.89-16.26,7.12-22.79Zm19.15,33.98c-3.73.16-3.26,4.41-4.26,6.93-3.89,9.95-12.47,16.17-15.98,11.5-3.45-4.6-5.19-12.31-5.85-18,5.07.06,11.88-4.97,15.02-7.18,17.81-12.34,25.12-36.16,5.81-45.67-12.22-6.03-28.17-1.31-36.72,16.32-9.76,20.21-9.36,56.55,8.61,67,24.34,14.21,44.52-30.47,33.36-30.9Zm-85.72-21.3c-4.17,4.51-11.47,5.13-16.88,2.55.47-15.05.65-30.16-.03-45.14,4.45-3.23,10.79-5.16,16.2-3.64,5.38,1.49,6.12,7.12,7.03,11.91,1.93,10.17,1.31,26.08-6.31,34.32Zm36.66-33.89c-3.51-29.01-30.78-41.13-54.1-24.65-.25.16-.44.31-.65.5-1.52-9.76-6.03-18.84-18.06-17.13-7.52,1.68-13,8.33-12.19,16.2,2.92,28.88,1.52,58.26.47,87.21-.34,8.92-3.11,25.37,13.74,26.99,16.45.19,15.89-15.73,16.26-25.18.12-3.86.28-7.71.44-11.6,2.08,1.24,4.32,2.24,6.59,3.02,30.84,10.1,51.73-20.58,47.51-55.34Z"/>
  <path class="cls-7" d="m1028.33,465.04c-2.81,2.92-4.74.36-5.69-3.61-1.05-4.36-.68-10.09,2.07-13.83,1.42.46,3.22-.14,4.02-1.66,2.03.43,2.64,2.16,3.01,4.21.83,4.67,0,11.32-3.41,14.89m4.55-18.78c-.95-2.36-2.72-3.84-5.01-4.51-1.3-1.15-2.92-1.09-4.15-.23-.48.14-.9.38-1.25.75-9.43,2.6-10.08,27.22.66,28.33,8.72.88,13.38-15.3,9.75-24.35Z"/>
  <path class="cls-7" d="m1072.85,444.51c-5.27-2.11-8.77.83-11.42,5.29-1.1-2.39-2.79-4.28-5.33-5.29-4.62-1.85-7.87.19-10.39,3.72-.01-1.08-.04-2.14-.07-3.22-.08-2.83-1.57-5.34-4.76-5.08-3.95.66-3.59,4.32-3.59,7.39.02,24.75-2,27.44,1.85,29.24.95.44,2.17.51,3.2.13,3.14-1.14,2.78-4.53,2.86-7.23.15-5.2.39-10.42.47-15.62,1.61-3.08,3.68-5.69,5.91-4.33,2.02,1.23,2.34,3.26,2.73,5.42,2.32,12.76-3.89,20.43,2.94,21.84,5.02.64,5.15-5.18,5.53-8.69.48-4.52.83-9.99-.17-14.59,1.57-2.92,3.57-5.29,5.72-3.98,2.01,1.23,2.33,3.26,2.72,5.42,2.33,12.76-3.88,20.43,2.94,21.84,5.02.64,5.16-5.18,5.54-8.69.92-8.51,1.3-20.37-6.68-23.55"/>
  <path class="cls-7" d="m1033.4,476.15c.19-.46.2-1.04,0-1.53-.58-1.39-2.05-1.23-3.28-1.24-3.75-.04-7.5-.15-11.25-.07-1.45.03-3.07.3-3.04,2.13.09,1.02.89,1.86,1.94,1.88,4.06.1,8.14,0,12.21.04,1.27.01,2.83.22,3.42-1.22"/>
  <path class="cls-3" d="m717.37,519.1c.47-15.05.65-30.16-.03-45.14,4.45-3.23,10.79-5.16,16.2-3.64,5.38,1.49,6.12,7.12,7.03,11.91,1.93,10.17,1.31,26.08-6.31,34.32-4.17,4.51-11.47,5.13-16.88,2.55m-31.46-61.53c2.92,28.88,1.52,58.26.47,87.21-.34,8.92-3.11,25.37,13.74,26.99,16.45.19,15.89-15.73,16.26-25.18.12-3.86.28-7.71.44-11.6,2.08,1.24,4.32,2.24,6.59,3.02,30.84,10.1,51.73-20.58,47.51-55.34-3.51-29.01-30.78-41.13-54.1-24.65-.25.16-.44.31-.65.5-1.52-9.76-6.03-18.84-18.06-17.13-7.52,1.68-13,8.33-12.19,16.2Z"/>
  <path class="cls-1" d="m798.42,524.86c-1.43.59-3.14,1.15-4.73,1.8.62-8.15,2.89-16.26,7.12-22.79,1.55-2.39,3.36-4.76,6-5.97,7.03-3.2,17.85,1.27,9.98,13.31-4.2,6.47-11.44,10.69-18.37,13.65m-20.43-23.1c-9.76,20.21-9.36,56.55,8.61,67,24.34,14.21,44.52-30.47,33.36-30.9-3.73.16-3.26,4.41-4.26,6.93-3.89,9.95-12.47,16.17-15.98,11.5-3.45-4.6-5.19-12.31-5.85-18,5.07.06,11.88-4.97,15.02-7.18,17.81-12.34,25.12-36.16,5.81-45.67-12.22-6.03-28.17-1.31-36.72,16.32Z"/>
  <path class="cls-2" d="m878.67,504.43c-23.66-17.26-51.89,9.08-50.46,43.28.53,13.06,6.53,23.91,19.31,26.86,14.92,3.48,24.19-8.36,30.19-24,.12,2.61.28,5.22.47,7.83.53,7.4.9,17.5,9.95,19.34,2.67.53,5.81-.03,8.21-1.65,7.06-4.69,4.1-13.34,3.7-20.33-1.77-28.79,1.77-61.68,1.87-68.09.06-5.81-4.38-10.35-10.01-11.07-12.13-.62-12.09,11.29-12.56,18.28-.25,3.17-.44,6.34-.65,9.55m-1.06,22.11c-2.55,12.28-7.65,28.35-14.68,33.42-5.78,4.17-10.45-1.43-11.85-6.68-4.38-16.45,7.49-40.26,18.41-40.17,2.7,0,5.72,2.11,8.52,2.98-.16,3.48-.31,6.96-.4,10.45Z"/>
  <path class="cls-4" d="m985.34,514.94c-2.15,2.24-2.27,7.65-2.89,9.98-1.93,7.28-4.94,14.36-9.45,20.43-1.86,2.49-4.04,5.38-7.06,6.5-12.87,4.76-13.21-51.73,12.65-50.83,2.24.06,4.85,1.4,7.24,1.8-.22,4.04-.37,8.08-.5,12.13m-.25,24.06c.06,5.88.28,11.72.65,17.54.53,8.24,2.3,18.16,13.06,17.16,5.57-.96,9.83-5.66,9.51-11.44-2.52-46.73.16-53.13.12-70.23,0-5.81-4.51-10.26-10.14-10.91-7.71-.31-10.54,4.79-11.63,10.79h-.03c-15.02-11.35-48.87-6.13-50.77,40.29-.4,9.36.25,17.94,6.44,25.37,1.74,2.08,3.79,3.92,6.09,5.35,15.86,9.76,29.44-6.19,36.69-23.91Z"/>
  <path class="cls-7" d="m1001.87,636.45c0-1.56,2.15-3.63,5.53-3.63.43,0,.98.06,1.23.17v-6.92h-.74c-3.26,0-5.59,3-6.33,4.61v-4.5h-6.14v20.65h6.45v-10.38Zm-22.17-6.29c2.83,0,4.61,1.5,5.28,4.04h-10.57c.68-2.54,2.52-4.04,5.28-4.04Zm11.92,14.07l-3.26-3.75c-2.03,1.44-4.55,2.48-7.56,2.48-3.75,0-6.02-1.62-6.57-4.73h17.76v-1.73c0-6.52-5.28-11.31-12.23-11.31-7.37,0-12.47,4.73-12.47,11.31s4.98,11.31,13.39,11.31c4.49,0,8.36-1.56,10.94-3.58Zm-26.78-12.98v-5.08h-2.58v-14.31l-6.39,2.83v11.48h-2.58v5.08h2.58v15.57h6.39v-15.57h2.58Zm-29.67,3.52c0-2.36,2.21-3.75,4.18-3.75,2.33,0,4.12,1.15,4.12,4.15v11.65h6.45v-13.56c0-4.73-3.38-7.61-7.86-7.61-3.44,0-5.9,1.62-7.25,3.12v-2.6h-6.08v20.65h6.45v-12.06Zm-22.17-4.61c2.83,0,4.61,1.5,5.28,4.04h-10.57c.68-2.54,2.52-4.04,5.28-4.04Zm11.92,14.07l-3.26-3.75c-2.03,1.44-4.55,2.48-7.56,2.48-3.75,0-6.02-1.62-6.57-4.73h17.76v-1.73c0-6.52-5.28-11.31-12.23-11.31-7.37,0-12.47,4.73-12.47,11.31s4.98,11.31,13.39,11.31c4.49,0,8.36-1.56,10.94-3.58Zm-27.52-37.84c-4.98-2.88-9.22-3.98-14.25-3.98-14.81,0-24.94,10.21-24.94,22.84s10.14,22.96,24.94,22.96c5.04,0,9.4-1.15,14.25-3.98l-3.26-5.19c-3.56,1.96-7.07,2.94-10.81,2.94-10.63,0-17.82-7.79-17.82-16.79s7.19-16.56,17.82-16.56c3.99,0,7.68,1.1,10.81,2.94l3.26-5.19Zm-68.13,28.38c0-2.36,2.21-3.75,4.18-3.75,2.33,0,4.12,1.15,4.12,4.15v11.65h6.45v-13.56c0-4.73-3.38-7.61-7.86-7.61-3.44,0-5.9,1.62-7.25,3.12v-2.6h-6.08v20.65h6.45v-12.06Zm-23.03-4.38c3.56,0,6.27,2.71,6.27,6.11s-2.7,6.11-6.27,6.11-6.21-2.65-6.21-6.11,2.64-6.11,6.21-6.11Zm0-5.19c-7.37,0-12.9,4.96-12.9,11.31s5.53,11.31,12.9,11.31,12.96-4.96,12.96-11.31-5.53-11.31-12.96-11.31Zm-16.64.98h-6.45v20.65h6.45v-20.65Zm.12-9.63h-6.7v5.77h6.7v-5.77Zm-10.37,14.71v-5.08h-2.58v-14.31l-6.39,2.83v11.48h-2.58v5.08h2.58v15.57h6.39v-15.57h2.58Zm-26.29,12.75c-2.95,0-4.67-1.5-4.67-3.52s1.72-3.52,4.67-3.52,4.92,1.44,4.92,3.52-2.09,3.52-4.92,3.52Zm5.28,2.83h6.02v-12.81c0-4.73-3.75-8.48-11.18-8.48-2.83,0-4.67.23-7.8.92l1.17,4.73c2.21-.58,3.69-.69,4.98-.69,4.12,0,6.39,1.44,6.39,4.5v.06c-1.54-.98-3.75-1.67-6.64-1.67-5.84,0-9.65,3.06-9.65,7.21,0,4.5,3.93,7.15,9.4,7.15,3.38,0,5.9-.98,7.31-2.13v1.21Zm-18.36-15.57v-5.08h-2.58v-14.31l-6.39,2.83v11.48h-2.58v5.08h2.58v15.57h6.39v-15.57h2.58Zm-15.35-5.08h-6.45v20.65h6.45v-20.65Zm.12-9.63h-6.7v5.77h6.7v-5.77Zm-11.48-14.71h-6.45v44.99h6.45v-44.99Zm-11.36,24.34h-6.45v20.65h6.45v-20.65Zm.12-9.63h-6.7v5.77h6.7v-5.77Zm-29.48,20.02c0-3.35,2.7-5.83,6.21-5.83s6.08,2.42,6.08,5.77-2.58,5.77-6.08,5.77-6.21-2.48-6.21-5.71Zm19.05,0c0-6.17-4.67-11.07-10.75-11.07-3.38,0-6.27,1.38-8.23,3.52v-27.17h-6.45v44.99h6.08v-3c1.97,2.25,4.91,3.69,8.6,3.69,6.08,0,10.75-4.73,10.75-10.96Zm-41.34,7.44c-2.95,0-4.67-1.5-4.67-3.52s1.72-3.52,4.67-3.52,4.92,1.44,4.92,3.52-2.09,3.52-4.92,3.52Zm5.28,2.83h6.02v-12.81c0-4.73-3.75-8.48-11.18-8.48-2.83,0-4.67.23-7.8.92l1.17,4.73c2.21-.58,3.69-.69,4.98-.69,4.12,0,6.39,1.44,6.39,4.5v.06c-1.54-.98-3.75-1.67-6.63-1.67-5.84,0-9.65,3.06-9.65,7.21,0,4.5,3.93,7.15,9.4,7.15,3.38,0,5.9-.98,7.31-2.13v1.21Zm-35.13-12c0-2.36,2.21-3.81,4.18-3.81,2.33,0,4.12,1.15,4.12,4.15v11.65h6.45v-13.56c0-4.73-3.38-7.61-7.86-7.61-3.19,0-5.53,1.38-6.88,2.83v-26.65h-6.45v44.99h6.45v-12Zm-22.17-4.67c2.83,0,4.61,1.5,5.28,4.04h-10.57c.68-2.54,2.52-4.04,5.28-4.04Zm11.92,14.07l-3.26-3.75c-2.03,1.44-4.55,2.48-7.56,2.48-3.75,0-6.02-1.62-6.57-4.73h17.76v-1.73c0-6.52-5.28-11.31-12.23-11.31-7.37,0-12.47,4.73-12.47,11.31s4.98,11.31,13.39,11.31c4.49,0,8.36-1.56,10.94-3.58Zm-44.53-34.32c6.02,0,8.85,3.17,8.85,7.04,0,4.38-3.56,7.38-8.91,7.38h-3.81v-14.42h3.87Zm11.8,36.92h8.85l-15.61-17.48c6.21-1.61,11.06-5.94,11.06-12.46,0-8.65-6.45-13.09-16.16-13.09h-11.06v43.03h7.25v-16.79h.49l15.18,16.79Zm-39.37-5.65h-.25c-1.23.87-2.89,1.15-4.42,1.15-3.69,0-6.39-2.48-6.39-5.83s2.7-5.83,6.39-5.83c1.54,0,3.19.29,4.42,1.15h.25l2.4-4.33c-1.78-1.21-4.48-2.02-7.37-2.02-7.37,0-12.9,4.67-12.9,11.02s5.53,11.02,12.9,11.02c2.89,0,5.53-.81,7.37-2.08l-2.4-4.27Zm-21.62-15h-6.45v20.65h6.45v-20.65Zm.12-9.63h-6.7v5.77h6.7v-5.77Zm-17.44,19.9c0-1.56,2.15-3.63,5.53-3.63.43,0,.98.06,1.23.17v-6.92h-.74c-3.26,0-5.59,3-6.33,4.61v-4.5h-6.14v20.65h6.45v-10.38Zm-9.94-5.19v-5.08h-2.58v-14.31l-6.39,2.83v11.48h-2.58v5.08h2.58v15.57h6.39v-15.57h2.58Zm-26.29,12.75c-2.95,0-4.67-1.5-4.67-3.52s1.72-3.52,4.67-3.52,4.92,1.44,4.92,3.52-2.09,3.52-4.92,3.52Zm5.28,2.83h6.02v-12.81c0-4.73-3.75-8.48-11.18-8.48-2.83,0-4.67.23-7.8.92l1.17,4.73c2.21-.58,3.69-.69,4.98-.69,4.12,0,6.39,1.44,6.39,4.5v.06c-1.54-.98-3.75-1.67-6.64-1.67-5.84,0-9.65,3.06-9.65,7.21,0,4.5,3.93,7.15,9.4,7.15,3.38,0,5.9-.98,7.31-2.13v1.21Zm-20.63-20.65h-6.45v20.65h6.45v-20.65Zm.12-9.63h-6.7v5.77h6.7v-5.77Zm-17.75,20.02c0,3.23-2.7,5.71-6.2,5.71s-6.08-2.54-6.08-5.77,2.58-5.77,6.08-5.77,6.2,2.48,6.2,5.83Zm.31,10.27h6.08v-44.99h-6.45v27.17c-1.97-2.13-4.85-3.52-8.23-3.52-6.08,0-10.75,4.9-10.75,11.07s4.67,10.96,10.75,10.96c3.69,0,6.64-1.44,8.6-3.69v3Zm-34.15-16.67c2.83,0,4.61,1.5,5.28,4.04h-10.57c.68-2.54,2.52-4.04,5.28-4.04Zm11.92,14.07l-3.26-3.75c-2.03,1.44-4.55,2.48-7.56,2.48-3.75,0-6.02-1.62-6.57-4.73h17.76v-1.73c0-6.52-5.28-11.31-12.23-11.31-7.37,0-12.47,4.73-12.47,11.31s4.98,11.31,13.39,11.31c4.49,0,8.36-1.56,10.94-3.58Zm-35.75-34.32c6.45,0,8.72,3.11,8.79,7.21,0,4.44-3.62,7.33-8.79,7.33h-4.85v-14.54h4.85Zm-.8,20.71c8.72,0,16.77-4.5,16.83-13.5-.06-9.58-6.57-13.32-16.53-13.32h-11.61v43.03h7.25v-16.21h4.05Z"/>
</svg>