<?xml version="1.0" encoding="UTF-8"?>
<svg id="shoplogowhite" data-name="Shop logo" xmlns="http://www.w3.org/2000/svg" viewBox="0 0 1080 1080">
  <defs>
    <style>
      .cls-1 {
        fill: none;
        stroke: #ffffff;
        stroke-miterlimit: 10;
        stroke-width: 6.3px;
      }

      .cls-2 {
        fill: #ffffff;
      }
    </style>
  </defs>
  <path class="cls-1" d="m171.59,542.97c-4.12,12.62-16.03,21.76-30.06,21.76H35.94c-17.47,0-31.64-14.17-31.64-31.64v-105.56c0-17.5,14.17-31.67,31.64-31.67h105.59c4.6,0,8.98.99,12.93,2.77-1.02,3.11-1.58,6.44-1.58,9.88v105.59c0,12.87,7.68,23.93,18.71,28.87Z"/>
  <path class="cls-1" d="m321.75,408.51v1.5c-12.79,4.06-22.07,16.03-22.07,30.2v104.04c-3.02.99-6.24,1.5-9.57,1.5h-105.56c-4.63,0-9-.99-12.96-2.77-11.04-4.94-18.71-16-18.71-28.87v-105.59c0-3.44.56-6.77,1.58-9.88,4.12-12.62,16.03-21.76,30.09-21.76h105.56c17.47,0,31.64,14.17,31.64,31.64Z"/>
  <path class="cls-1" d="m466.97,555.62c-4.12,12.64-16.03,21.79-30.06,21.79h-105.59c-17.47,0-31.64-14.17-31.64-31.64v-105.56c0-14.17,9.29-26.14,22.07-30.2,3.02-.96,6.24-1.47,9.57-1.47h105.59c5.42,0,10.53,1.35,14.99,3.75-1.02,3.11-1.58,6.43-1.58,9.88v105.59c0,12.05,6.75,22.52,16.65,27.86Z"/>
  <path class="cls-1" d="m777.61,542.97c-4.12,12.62-16.03,21.76-30.06,21.76h-105.59c-12.76,0-23.77-7.56-28.76-18.43,3.75-5.22,5.98-11.63,5.98-18.54v-105.59c0-4.71-1.02-9.2-2.88-13.21,5.79-7.93,15.1-13.1,25.66-13.1h105.59c4.6,0,8.98.99,12.93,2.77-1.04,3.11-1.58,6.44-1.58,9.88v105.59c0,12.87,7.68,23.93,18.71,28.87Z"/>
  <path class="cls-1" d="m927.77,408.51v1.5c-12.81,4.06-22.07,16.03-22.07,30.2v104.04c-3.02.99-6.24,1.5-9.57,1.5h-105.59c-4.6,0-8.98-.99-12.93-2.77-11.04-4.94-18.71-16-18.71-28.87v-105.59c0-3.44.54-6.77,1.58-9.88,4.12-12.62,16.03-21.76,30.06-21.76h105.59c17.47,0,31.64,14.17,31.64,31.64Z"/>
  <path class="cls-1" d="m1074.57,440.21v105.56c0,17.47-14.17,31.64-31.64,31.64h-105.59c-17.47,0-31.64-14.17-31.64-31.64v-105.56c0-14.17,9.26-26.14,22.07-30.2,3.02-.96,6.24-1.47,9.57-1.47h105.59c17.47,0,31.64,14.17,31.64,31.67Z"/>
  <path class="cls-1" d="m619.19,422.17v105.59c0,6.92-2.23,13.32-5.98,18.54-5.76,7.93-15.1,13.1-25.66,13.1h-105.59c-5.42,0-10.53-1.38-14.99-3.78-9.91-5.33-16.65-15.81-16.65-27.86v-105.59c0-3.44.56-6.77,1.58-9.88,4.12-12.62,16.03-21.76,30.06-21.76h105.59c12.76,0,23.77,7.56,28.76,18.43,1.86,4.01,2.88,8.5,2.88,13.21Z"/>
  <g>
    <path class="cls-2" d="m125.55,430.11c-.84,4.74-4.63,8.43-9.57,8.54-4.94.11-10.16-1.13-15.18-1.74-.21,7.67-.81,15.37-.85,23.02-.23,57.25,5.57,77.9-14.09,78.23-13.14-.81-13.79-12.39-13.72-22.63.24-38.61-1.25-63.91.15-79.29-17.5.72-23.77,2.63-25.26-6.42-.81-9.49,9.11-9.92,16-10.68,5.68-.62,11.39-1.05,17.1-1.3,2.01-1.05,4.47-1.52,7.5-1.44,1.61.17,3.15.59,4.57,1.21,6.06.03,12.11.27,18.14.74,7.43.58,16.13,2.14,15.21,11.75Z"/>
    <path class="cls-2" d="m263.35,499.1c-.98,7.41-1.63,19.44-13.32,17.97-8.71-1.8-8.81-9.39-7.75-16.5,1.4-9.36,2.08-18.86.07-28.18-.66-3.09-1.18-7.13-3.73-9.3-2.3-1.95-5.78-.2-7.77,1.33-4.64,3.56-6.86,8.04-8.55,11.5.31,33.14-.27,37.19-7.93,39.39-1.33.38-2.65.44-4.02.33-10.7-1.65-8.95-12.3-8.86-20.28.23-20.84-.68-41.7-.28-62.54.11-5.81,4.64-10.14,10.36-10.36,9.84.39,10.34,9.17,10.39,16.81.05,8.61.13,16.21.2,22.94,6.87-9.61,16.2-16.04,26.97-11.5,17.47,7.37,16.26,32.85,14.22,48.4Z"/>
    <path class="cls-2" d="m364.37,540.3c-16.94-9.86-17.34-44.1-8.11-63.14,8.04-16.6,23.07-21.08,34.58-15.39,18.21,8.99,11.31,31.4-5.46,43.06-2.98,2.07-9.38,6.8-14.15,6.77.61,5.34,2.23,12.61,5.49,16.94,3.3,4.39,11.4-1.45,15.06-10.82.93-2.39.5-6.4,4-6.54,10.52.41-8.47,42.5-31.42,29.13Zm6.66-39.68c1.52-.63,3.13-1.13,4.45-1.7,6.56-2.79,13.36-6.77,17.34-12.87,7.39-11.34-2.8-15.55-9.4-12.54-2.51,1.14-4.2,3.36-5.66,5.62-3.99,6.17-6.14,13.79-6.73,21.48Z"/>
    <path class="cls-2" d="m551.33,483.99c-17.61,0-2.07-17.61-8.87-21.68-5.16-3.09-11.41,2.69-15.23,7.67.57,14.86.24,29.85-.74,44.6-.52,7.77-1.84,17.19-12.04,16.47-1.36-.2-2.63-.55-3.85-1.21-10.92-6-.09-16.56-5.3-76.55-.47-5.45,3.37-9.98,8.58-11.06,9.96-1.26,12.1,7.84,12.68,15.62,0,.09.01.18.02.27,16.57-17.36,39.27-15.73,36.14,9.3-2.07,16.58,16.58,16.58-11.4,16.58Z"/>
    <path class="cls-2" d="m714.11,525.42c.29,5.47-3.7,9.88-8.95,10.79-10.14.94-11.8-8.41-12.3-16.17-.36-5.49-.55-11-.63-16.52-6.81,16.71-19.62,31.72-34.56,22.53-2.18-1.34-4.1-3.08-5.73-5.04-5.84-7.01-6.44-15.1-6.08-23.9,1.8-43.74,33.68-48.67,47.85-37.99.01,0,.02.02.04.03,1.02-5.66,3.69-10.46,10.94-10.19,5.3.62,9.55,4.82,9.56,10.3.03,16.11-2.49,22.13-.13,66.16Zm-21.18-56.01c-2.26-.38-4.7-1.63-6.82-1.7-24.37-.84-24.06,52.39-11.92,47.92,2.84-1.05,4.9-3.8,6.65-6.14,4.26-5.71,7.08-12.38,8.91-19.24.58-2.2.7-7.3,2.71-9.39.13-3.82.28-7.64.47-11.45Z"/>
    <path class="cls-2" d="m841.74,499.55c-4.61.39-8.48-.48-11.62-2.04-.1,1.82-.2,3.64-.32,5.45-.52,7.77-1.84,17.19-12.04,16.47-1.36-.2-2.63-.55-3.85-1.21-10.92-6-.09-16.56-5.3-76.55-.47-5.45,3.37-9.98,8.58-11.06,8.83-1.12,11.51,5.9,12.41,12.92.45-.49.89-.94,1.3-1.34,16.31-16.01,33.54-8.5,37.02,10.26,3.39,18.27-4.45,45.27-26.18,47.12Zm3.19-52.54c-4.93-2.61-11.71,4.16-14.34,7.57-.07.09-.14.19-.2.28.51,10.48.54,21.04.21,31.55,2.04.39,4.36.02,6.07-.68,14.38-5.86,12.34-36.56,8.26-38.72Z"/>
    <path class="cls-2" d="m1020.16,476.53c.05,12.34-.02,24.79-1.4,37.07-1.13,10.11-3.58,19.76-12.39,25.88-12.17,8.46-29.32,5.88-34.17-10.36-.64-2.15-.66-4.46,1.85-5.32,4.02-1.02,4.34,4.25,6.75,6.11,4.67,3.6,11.61-.72,14.25-4.89,1.97-3.12,3.07-10.81,3.68-19.5-6.66,8.92-16.56,13.25-26.63,7.18-14.26-8.58-16.4-28.44-12.25-43.05,2.27-7.98,6.9-19.42,17.33-14.99,1.18.61,2.24,1.33,3.14,2.33,7.78,8.58-6.07,16.79-.44,34.97,5.18,16.71,14.28,12.66,19.45-2.79.02-.05.03-.11.05-.16.12-7.42.04-13.91.01-17.11-.05-6.21-1.37-17.83,10.29-18.29,12.32.48,10.43,14.29,10.46,22.91Z"/>
  </g>
  <g>
    <g>
      <path class="cls-2" d="m810.77,646.61c-7.57-5.56-15.04-10.99-22.44-16.51-1.54-1.15-2.93-2.53-4.25-3.94-.89-.96-1.3-2.23-.26-3.39.99-1.1,2.04-.41,3.06.09,9.84,4.87,18.68,11.11,26.39,18.94.39.4.83.76,1.26,1.12.09.08.22.11.41.19.17-.09.41-.17.59-.31,9.54-7.54,20.54-11.03,32.55-11.35,14.54-.39,28.74,1.36,41.89,8.17,14.7,7.6,23.55,19.65,26.55,35.85,1.22,6.58.29,13.15-2.12,19.37-3.62,9.33-9.09,17.53-16.33,24.46-7.09,6.78-15.69,10.03-25.44,10.46-15.73.69-30.05-3.59-43.11-12.22-8.93-5.9-13.52-14.31-13.4-24.98.07-6.3.23-12.7,1.38-18.86,2.59-13.86,10.54-23.43,24.22-27.94,10.87-3.58,21.62-3.18,31.78,1.76,12.17,5.92,20.08,15.63,22,29.33.86,6.12-.12,12.26-2.46,18.04-5.92,14.64-25.94,19.11-37.24,8.1-5.09-4.96-7.55-11.43-6.5-18.61,1.01-6.92,8.9-11.57,15.5-9.61,2.06.61,3.64,1.82,4.04,3.99.14.77-.19,2.03-.74,2.39-.47.31-1.9-.09-2.34-.63-1.58-1.95-3.61-1.91-5.65-1.52-3.95.76-6.91,5.05-6.24,8.98.61,3.63,1.97,7.01,4.3,9.88,4.2,5.15,9.85,6.14,15.97,4.9,7.12-1.43,11.67-5.71,13.7-12.82,5.89-20.62-10.45-37.54-27.96-39.19-7.97-.75-15.41.74-22.23,4.59-6.98,3.93-11.52,10.27-12.89,18.08-1.18,6.72-1.33,13.67-1.39,20.52-.05,6.21,2.81,11.41,7.71,15.22,9.76,7.59,20.78,12.15,33.22,12.86,2.81.16,5.63.24,8.43.11,8.1-.38,15.01-3.53,20.7-9.31,5.14-5.22,9.29-11.16,12.21-17.88,4.14-9.53,4.13-19.05-.61-28.44-4.71-9.33-11.64-16.32-21.3-20.5-14.51-6.28-29.64-8.27-45.14-5.43-14.41,2.63-25.22,11.1-32.67,23.46-6.6,10.96-10.27,23.02-10.88,35.91-.22,4.61.67,8.91,2.66,13.07,7.25,15.11,19.6,22.35,35.89,24.52,13.55,1.8,26.66.32,39.77-2.86,5.89-1.43,11.85-2.57,17.8-3.72,1.18-.23,2.51-.11,3.67.2,1.58.43,1.96,1.55,1,2.87-.64.88-1.51,1.74-2.47,2.22-2.22,1.12-4.5,2.21-6.87,2.97-10.93,3.47-22.04,6.32-33.52,7-13.89.81-27.66-.4-40.23-6.82-13.42-6.85-21.59-18.3-24.66-32.92-1.62-7.72.14-15.57,2.07-23.19,2.05-8.1,5.28-15.76,9.3-23.08,2.62-4.76,6.16-8.79,10.13-12.47.46-.42.9-.85,1.18-1.11Z"/>
      <path class="cls-2" d="m938.47,694.52c10.67.53,21.34,1.03,32.01,1.6,1.61.09,3.23.37,4.8.74,1.57.37,2.76,1.33,2.73,3.11-.03,1.7-1.34,2.28-2.72,2.65-5.31,1.44-10.74,1.89-16.18,1.21-8.43-1.06-16.83-2.36-25.24-3.63-1.66-.25-3.28-.78-4.89-1.28-1.38-.42-2.67-1.13-2.35-2.87.32-1.73,1.78-1.9,3.22-1.9,2.87-.01,5.74,0,8.62,0,0,.12,0,.25,0,.37Z"/>
      <path class="cls-2" d="m970.82,655.76c.5.36,1.78.8,2.14,1.65.61,1.44-.68,2.3-1.88,2.75-7.32,2.72-14.56,5.69-22.01,7.98-7.33,2.25-14.87,3.82-22.33,5.65-.9.22-1.89.4-2.78.24-.74-.14-1.78-.68-1.96-1.27-.18-.61.34-1.65.88-2.19.63-.64,1.55-1.08,2.43-1.36,13.26-4.24,26.52-8.47,39.81-12.62,1.59-.5,3.33-.49,5.7-.81Z"/>
      <path class="cls-2" d="m749.1,757.89c-.46-.35-1.25-.66-1.5-1.22-.22-.49,0-1.36.34-1.86.43-.65,1.11-1.2,1.79-1.62,4.81-3.03,9.52-6.23,14.49-8.96,6.96-3.82,14.08-7.33,21.2-10.84,2.16-1.07,4.53-1.77,6.86-2.44.83-.24,1.89-.04,2.72.27.51.19,1.04.95,1.09,1.5.04.39-.63,1-1.12,1.26-2.97,1.58-6.03,2.99-8.96,4.63-9.33,5.21-18.59,10.53-27.93,15.72-2.12,1.18-4.44,1.99-6.69,2.93-.62.26-1.31.37-2.27.63Z"/>
      <path class="cls-2" d="m773.02,690.31c-8.44-1.23-17.52-2.49-26.58-3.92-1.48-.23-2.97-1.05-4.2-1.95-.71-.52-.9-1.74-1.33-2.65.84-.2,1.7-.61,2.53-.57,5.86.26,11.76.26,17.56,1.03,6.8.9,13.5,2.5,20.24,3.82.54.11,1.15.3,1.53.65.4.37.58.99.85,1.49-.4.2-.77.5-1.19.57-2.88.49-5.77.94-9.41,1.52Z"/>
      <path class="cls-2" d="m870.59,621.81c-.62-1.35-1.6-2.65-1.8-4.05-.39-2.77-.67-5.62-.45-8.39.66-8.28,1.57-16.54,2.44-24.8.13-1.23.37-2.53.93-3.6.35-.67,1.44-1.42,2.11-1.34.63.07,1.5,1.11,1.64,1.84.3,1.58.27,3.23.24,4.85-.19,9.87-.43,19.75-2.36,29.47-.39,1.99-1.26,3.89-1.9,5.83-.28.06-.57.13-.85.19Z"/>
      <path class="cls-2" d="m938.53,737.06c-1.75-.73-3.43-1.16-4.8-2.06-6.84-4.49-13.61-9.09-20.36-13.72-.49-.34-.99-1.32-.84-1.79.18-.54,1.03-1.03,1.68-1.18.69-.17,1.51-.04,2.21.16,8.86,2.49,17.02,6.21,23.19,13.38.29.33.71.62.83,1,.27.84.77,1.92.46,2.56-.35.72-1.48,1.07-2.37,1.65Z"/>
      <path class="cls-2" d="m920.26,621.01c2.58,0,3.51,1.09,2.8,2.68-.65,1.45-1.48,2.98-2.65,4.01-4.15,3.68-8.45,7.2-12.78,10.67-.93.75-2.19,1.3-3.37,1.46-.82.11-2.09-.38-2.54-1.03-.45-.65-.25-1.85-.12-2.77.07-.49.53-1.01.94-1.37,4.49-3.95,8.93-7.97,13.55-11.76,1.33-1.09,3.23-1.49,4.15-1.89Z"/>
      <path class="cls-2" d="m896.28,744.73c.01-.13.02-.58.11-1,.25-1.22.75-2.57,2.14-2.39.87.11,2.03,1.05,2.36,1.9,2.16,5.46,4.14,11,6.16,16.51.62,1.7,1.24,3.41,1.8,5.13.38,1.16.68,2.65-.68,3.1-.88.29-2.12-.45-3.17-.8-.26-.08-.43-.44-.63-.68-3.98-4.74-8.07-15.59-8.08-21.77Z"/>
      <path class="cls-2" d="m837.36,775.29c-.44-1.82-.97-3.31-1.13-4.83-.72-7.03-1.37-14.08-.33-21.13.11-.73.78-1.37,1.19-2.05.65.5,1.51.88,1.91,1.54.5.83.76,1.86.88,2.84.87,7.14.4,14.22-1.14,21.23-.13.6-.4,1.18-.64,1.75-.06.14-.25.23-.73.65Z"/>
      <path class="cls-2" d="m793.25,660.82c-1.21,1.39-2.93,1.8-4.55,1.54-2.99-.48-6-1.1-8.83-2.14-3.5-1.29-6.83-3.03-10.19-4.67-.56-.28-1.24-1.08-1.21-1.61.03-.56.75-1.29,1.34-1.54.77-.32,1.71-.35,2.56-.28,1.05.09,2.14.26,3.09.68,5.91,2.61,11.79,5.3,17.78,8.01Z"/>
      <path class="cls-2" d="m777.09,707.08c-2.56,4.31-18.2,8.61-21.47,5.99.62-.74,1.08-1.73,1.86-2.16,6.01-3.33,12.48-4.38,19.61-3.83Z"/>
      <path class="cls-2" d="m847.33,624.36c-1.27.79-2.71.54-3.97-.43-3.48-2.69-4.91-6.35-4.72-10.68.02-.55.13-1.2.45-1.59.43-.53,1.08-1.14,1.68-1.18.43-.03,1.08.73,1.35,1.27.46.94.64,2.02,1.05,3,1.32,3.14,2.69,6.27,4.14,9.62Z"/>
      <path class="cls-2" d="m802.21,765.75c.13-1.51-.03-3.12.46-4.51,1.49-4.23,3.21-8.37,4.89-12.53.22-.56.61-1.14,1.09-1.48.39-.28,1.12-.42,1.52-.23.39.19.67.84.75,1.33.08.46-.09,1-.28,1.45-2.04,4.75-4.08,9.49-6.18,14.21-.33.75-1,1.35-1.51,2.01-.24-.09-.49-.17-.73-.26Z"/>
    </g>
    <g>
      <path class="cls-2" d="m642.07,732.73c-15.37,30.48-70.6,25.62-74.94-6.82-1.49-11.16,5-30.51,13.98-23.78,4.61,4.06.92,7.61-1.66,11.2-16.25,22.62,36.55,27.69,34.53,2.6-.72-9.03-12.57-17.39-18.46-23.08-14.88-14.36-27.56-31.81-20.69-53.54,1.89-5.99,5.44-11.18,10.53-14.9,24.15-17.69,63.28,3.13,50.68,43.97-1.07,3.47-3.23,6.55-7.33,5.19-5.24-2.2-2.61-7.18-1.39-11.08,10.17-32.4-26.76-25.86-22.01-15.7-2.46,13.78,7.34,23,16.61,31.9,15.15,14.54,31.29,31.93,20.15,54.03Z"/>
      <path class="cls-2" d="m737.16,728.05c-.54,9.84-.36,21.61-11.8,25.27-4,1.28-8.6.82-12.15-1.01-10.61-5.46-8.37-16.85-7.86-26.62.29-5.59.53-10.86.71-15.85-7.35.63-15.21.02-22.4-.09.33,12.52.69,20.35.32,21.44,6.93,20.78-28.33,35.09-31.94-1.89-.81-8.26-1.24-16.6-1.43-24.97-1.74-3.15-1.79-7.17-.11-10.35,0-18.18,1-36.45,1.91-54.37.51-10.09.46-22.31,12.37-25.64,2.05-.57,4.08-.65,6.19-.48,15.01,2.4,13.86,16.05,13.28,27.72-.87,17.62-1.05,33.84-.95,47.52,2.26.11,4.5.22,6.68.24,5.2.06,11.13-.63,16.6-.35.39-34.87-1.87-51.82-1.62-64.82.16-8.45,6.81-14.8,14.99-15.6,18.23-.36,17.1,18.4,17.5,27.34,1.37,30.79,1.38,61.74-.3,92.52Z"/>
    </g>
    <path class="cls-2" d="m1029.01,713.04c-2.43-.8-4.78-1.88-7-3.19-.16,4.11-.32,8.22-.48,12.32-.38,10.01.21,26.92-17.23,26.72-17.9-1.71-14.96-19.19-14.61-28.65,1.15-30.73,2.61-61.91-.5-92.54-.85-8.36,4.96-15.43,12.94-17.21,12.79-1.81,17.55,7.84,19.17,18.17.23-.17.45-.35.69-.51,24.77-17.48,53.7-4.61,57.44,26.18,4.48,36.89-17.7,69.46-50.42,58.71Zm18.21-59.18c-.97-5.08-1.76-11.04-7.47-12.65-5.72-1.61-12.46.45-17.19,3.86.75,15.92.54,31.95.05,47.94,5.75,2.73,13.49,2.07,17.92-2.73,8.07-8.75,8.75-25.64,6.7-36.42Z"/>
  </g>
</svg>