<?xml version="1.0" encoding="UTF-8"?>
<svg id="Layer_1" data-name="Layer 1" xmlns="http://www.w3.org/2000/svg" viewBox="0 0 1080 1080">
  <defs>
    <style>
      .cls-1 {
        fill: #1B2980;
      }
    </style>
  </defs>
  <path class="cls-1" d="m179.92,9c-12.57-4.23-26.5-5.05-40.47-1.63,13.97-3.42,27.89-2.6,40.47,1.63Z"/>
  <path class="cls-1" d="m292.12,990.68c5.51-5.64,11.06-7.94,19.04-8.06,28.49-.41,57.18.05,85.41-3.18,38.37-4.4,72.63-20.96,103.77-43.53,7.58-5.5,13.74-5.9,22.6-2.57,20.41,7.7,41.22,14.7,62.36,20.03,34.41,8.69,69.78,7.44,104.92,6.91,8.3-.12,14.23,2.14,20.11,8.13,30.48,31.06,61.39,61.71,92.22,92.43,3.19,3.18,6.46,7.67,10.32,8.45,6.65,1.34,15.2,2.58,20.31-.51,5.11-3.09,9.47-11.49,9.59-17.64.11-5.9-4.46-13.07-9-17.7-34.37-35.05-69.34-69.52-103.87-104.41-7.11-7.19-15.12-10.43-25.08-10.43-24.71,0-49.46.36-74.13-.78-26.09-1.2-51.45-6.82-77.01-16.82,14.6-10.37,28.75-19.25,41.55-29.76,27.43-22.53,29.79-65.19,6.31-91.65-12.9-14.54-29.23-21.39-49.65-23.21,3.33-3.66,5.5-6.24,7.87-8.62,23.85-23.92,47.73-47.8,71.59-71.7,20.35-20.38,26.99-44.27,17.22-71.66-6.1-17.11-18.89-28.71-34.8-36.59,12.51-32.63,10.17-56.09-9.24-76.45-23-24.13-50.56-26.35-79.93-13.12-23.17-45.65-78.95-53.12-113.77-12.51-6.55,7.64-13.56,14.89-21.08,23.11-13.44-24.17-31.74-37.47-57.59-38.84-26.43-1.4-44.66,14.03-61.2,31.63-1.84-1.53-2.71-2.13-3.44-2.86-16.05-15.96-32.2-31.82-48.09-47.93-17.91-18.17-18.59-43.33-1.89-59.47,16.64-16.09,40.56-14.85,58.53,3.07,14.79,14.75,29.4,29.69,44.38,44.26,10.64,10.35,22.67,10.97,31.51,2.31,8.98-8.81,8.39-20.62-1.72-31.55-3.55-3.83-7.36-7.41-11.05-11.11-25.36-25.36-50.82-50.62-76.03-76.13-11.77-11.91-15.58-26.32-10-42.25,5.43-15.5,17-24.38,33.22-26.48,15.13-1.96,26.69,5.11,37.01,15.49,49.1,49.39,98.33,98.63,147.57,147.88,3.18,3.18,6.47,6.49,10.29,8.74,8.43,4.96,16.76,3.84,24.1-2.52,6.93-6,8.79-16.72,4.1-24.7-2.25-3.84-5.39-7.26-8.55-10.44-36.58-36.79-73.19-73.55-109.91-110.19-10.02-10-15.16-21.73-12.9-35.79,2.45-15.24,11.03-26.26,25.75-31.48,14.97-5.3,29.11-2.98,40.76,8.04,15.17,14.36,29.46,29.64,44.65,43.96,9.74,9.18,21.63,8.91,29.93.58,8.35-8.38,8.69-20.31-.71-29.91-16.79-17.15-33.51-34.53-51.75-50.06-26.67-22.71-70.13-21.97-97.95-.79-14.85,11.31-24.23,26.14-30.45,43.38-43.43-25.43-82.05-13.48-103.84,8.56-31.35,31.71-32.52,67.95-11.1,106.77-27.5,9.07-46.57,26.44-55.45,53.9-9,27.82-3.16,53.31,13.89,77.27-31.88,11.52-51.74,32.57-57.75,65.21-6.13,33.32,8.06,59.4,29.81,79.59-11.72,20.74-23.67,39.18-32.95,58.88-17.13,36.38-21.05,75.46-19.31,115.19.4,9.01-2.18,15.5-8.76,21.88-24.99,24.24-49.47,49.01-73.96,73.75-11.17,11.28-12.1,23.05-3.13,32.23,9.07,9.29,21.07,8.71,32.22-2.34,28.94-28.67,58-57.24,86.14-86.68,5.16-5.39,7.95-14.54,8.75-22.27,1.4-13.44.2-27.12.46-40.7.94-48.94,16.85-92.48,50.62-127.97,38.39-40.35,78.26-79.3,117.74-118.59,11.22-11.17,24.81-11.37,34.33-1.67,9.35,9.53,8.39,23.15-2.41,34.24-8.25,8.48-17.02,16.52-24.57,25.58-7.18,8.6-5.97,20.17,1.46,27.49,7.54,7.42,18.51,8.01,27.61,1.24,2.78-2.06,5.23-4.59,7.68-7.05,23.62-23.65,47.2-47.35,70.8-71.01,7.13-7.15,14.1-14.47,21.53-21.3,7.91-7.27,17.16-9.25,26.95-4.1,14.49,7.62,16.3,25.1,3.73,37.81-30.12,30.45-60.47,60.67-90.66,91.04-3.17,3.19-6.48,6.48-8.73,10.3-4.94,8.39-3.89,16.78,2.28,24.17,5.75,6.89,16.82,8.89,24.71,4.28,4.13-2.41,7.78-5.84,11.2-9.25,35.49-35.42,70.88-70.93,106.32-106.4,5.9-5.91,11.58-12.1,17.94-17.48,9.83-8.32,22.82-7.79,31.2.6,8.33,8.34,9.01,20.18,1.48,30.38-2.26,3.06-5.01,5.78-7.71,8.48-38.91,38.89-77.88,77.73-116.75,116.65-3.42,3.42-6.91,7.03-9.32,11.16-5.02,8.61-3.08,16.9,3.33,24,6.07,6.72,17.05,8.16,24.88,3.26,3.78-2.37,7.14-5.53,10.33-8.7,29.13-28.97,58.18-58.03,87.25-87.06,14.34-14.31,27.58-16.17,37.99-5.33,10.45,10.89,8.45,23.61-6.05,38.12-43.07,43.1-86.18,86.17-129.2,129.32-3.42,3.43-6.72,7.11-9.37,11.13-5.65,8.59-5.56,17.72-.83,26.69,4.77,9.04,12.54,14.57,22.69,13.89,6.63-.45,13.56-2.89,19.48-6.08,12.54-6.75,24.32-14.9,36.76-21.86,15.52-8.68,31.34-3.04,36.55,12.47,3.57,10.64-.7,20.97-12.76,29.12-32,21.63-64.01,43.23-96.25,64.5-25.35,16.72-53.05,28.17-83.47,30.21-27.73,1.86-55.62,1.66-83.44,1.67-10.88,0-19.31,3.38-26.92,11.11-26.86,27.3-54.09,54.24-81.15,81.34-16.64,16.67-15.87,27.7,2.82,41.41h10.45c5.57-4.1,11.72-7.61,16.61-12.41,24.1-23.66,48.02-47.51,71.63-71.66Zm-108.5-423.92c-13.15-10.55-22.11-23.94-18.61-42.48,3.11-16.49,13.28-27.62,29.58-31.62,19.13-4.69,33.79,3.42,45.02,18.05-18.89,18.91-37.25,37.29-55.99,56.05Z"/>
  <path class="cls-1" d="m973.17,126.05c-2.35,1.29-6.66.59-9.41-.64-31.05-13.89-64.58-7.4-85.57,16.87-22.59,26.12-24.84,59.32-5.54,88.61,22.29,33.82,51.73,60.83,83.29,85.67,8.25,6.49,17.97,6.97,26.08.29,39.44-32.53,79.37-64.78,97.22-115.53v-20.9c-.51-.88-1.31-1.7-1.49-2.64-9.05-49.02-63.41-74.33-104.57-51.73Zm57.94,81.26c-15.87,26.16-38.65,46.12-61.82,66.35-22.75-19.48-44.36-39.08-60.63-63.71-10.71-16.21-9.38-31.13,2.96-42.39,12.16-11.1,26.72-10.51,42.27,1.72,11.81,9.28,19.52,8.92,32.51-1.52,19.31-15.52,45.61-7,49.81,17.08,1.23,7.06-1.27,16.16-5.1,22.48Z"/>
  <path class="cls-1" d="m1049.82,797.87c-8.77,3.99-13.77,14.13-11.47,23.25,2.5,9.89,10.42,15.92,20.42,15.9,10.62-.01,15.79-7.17,20.46-15.11v-10.45c-1.44-2.32-2.75-4.75-4.36-6.96-5.7-7.83-16.35-10.6-25.06-6.64Z"/>
  <path class="cls-1" d="m693.58,282.72c-22.47,22.58-28.57,50.05-21.74,82.81-3.83-3.49-6.38-5.64-8.74-7.99-14.06-14-27.97-28.15-42.13-42.04-11.18-10.98-23.17-11.96-32.2-3.04-9.22,9.1-8.43,20.93,2.46,32.24,8.21,8.52,16.7,16.77,25.06,25.15,28.54,28.56,57.11,57.09,85.61,85.7,10.06,10.11,21.48,15.59,35.66,9.98,18.31-7.24,24.09-26.6,13.28-45.24-10.99-18.95-22.98-37.33-33.86-56.33-13.78-24.07-3.81-52.15,21.08-60.99,18.67-6.63,37.42-.13,49.76,18.15,30.56,45.26,61.04,90.58,91.16,136.14,31.57,47.76,46.75,100.46,46.23,157.74-.25,27.85-.05,55.7-.19,83.55-.05,9.13,2.47,16.91,9.17,23.49,16.88,16.59,33.44,33.51,50.29,50.13,10.86,10.71,23.46,11.63,32.29,2.78,8.95-8.98,7.98-21.19-2.91-32.26-13.42-13.65-27.37-26.8-40.37-40.84-3.55-3.83-6.22-10.01-6.36-15.19-.63-23.65-.39-47.34-.15-71.01.57-56.12-10.33-110.08-39.63-157.87-35.24-57.47-72.82-113.65-112.17-168.38-28.24-39.28-87.5-40.92-121.59-6.65Z"/>
  <path class="cls-1" d="m179.92,9c-12.58-4.23-26.5-5.05-40.47-1.63-4.62,1.13-9.25,2.73-13.83,4.82-3.21,1.46-8.12,1.77-11.27.39C82.88-1.18,49.28,5.17,28.65,29.28,5.88,55.86,3.51,88.43,22.87,117.89c22.24,33.86,51.7,60.89,83.27,85.73,8.65,6.8,18.35,6.74,26.98-.06,31.26-24.65,60.45-51.44,82.62-84.92,1.02-1.54,2-3.09,2.93-4.67,6.55-11.02,10.88-22.94,10.54-36.29-.53-33.56-21.64-59.37-49.3-68.67Zm3.04,82.35c-12.13,17.23-26.41,33.01-40.45,48.81-6.63,7.47-14.84,13.53-25.05,22.65-20.27-22.79-39.96-44.23-58.76-66.43-6.93-8.18-9.41-18.38-5.13-29.39,7.6-19.57,30.56-26.27,47.21-13.52,16.71,12.8,20.99,12.83,37.24.3,12.24-9.44,27.03-9.37,38.33.18,11.5,9.73,15.54,24.72,6.61,37.4Z"/>
  <path class="cls-1" d="m179.92,9c27.66,9.3,48.76,35.11,49.3,68.67.34,13.35-3.99,25.27-10.54,36.29,6.55-11.02,10.88-22.94,10.57-36.28-.55-33.56-21.66-59.37-49.32-68.68Z"/>
  <path class="cls-1" d="m733.21,558.28c-23.65,21-37.75,46.82-38.25,82.1.46,23.81,9.56,47.23,28.01,66.78,8.4,8.9,20.27,9.69,29,2.43,8.52-7.08,9.84-18.03,3.22-28.06-1.91-2.89-4.23-5.51-6.31-8.29-11.57-15.45-16.57-33.11-9.44-50.98,4.96-12.43,14.51-23.16,22.75-34.09,7.74-10.27,8.29-22.19.18-30.12-7.97-7.81-19.81-8.07-29.17.23Z"/>
  <path class="cls-1" d="m553.88,257.51c-11.43.09-20.35,9.21-20.26,20.71.09,11.23,9.56,20.67,20.61,20.55,10.98-.12,20.56-9.9,20.47-20.91-.08-11.16-9.58-20.44-20.83-20.36Z"/>
</svg>