<?xml version="1.0" encoding="UTF-8"?>
<svg id="Layer_1" data-name="Layer 1" xmlns="http://www.w3.org/2000/svg" viewBox="0 0 1080 1080">
  <defs>
    <style>
      .cls-1 {
        fill: #1B2980;
      }
    </style>
  </defs>
  <path class="cls-1" d="m11.92,925.15c1.56,38.37,3.07,76.75,4.77,115.11.62,13.97,6.78,21.57,16.54,21.24,10.09-.34,15.36-8.17,14.85-22.17-.53-14.3-1.08-28.61-1.68-42.91-2.37-55.81-4.79-111.62-7.13-167.43-.6-14.41,1.84-28.13,10.2-41.9,12.06,14.45,23.05,28.36,34.82,41.58,18.55,20.84,26.94,44.75,26.46,72.76-.78,45.73-.32,91.48-.07,137.22.03,5.38.37,12.31,3.57,15.7,3.59,3.81,10.84,6.55,16.04,5.94,8.84-1.05,11.71-8.67,11.69-17.24-.07-50.63.92-101.29-.64-151.87-.52-16.93-4.53-35.18-12.24-50.09-9.94-19.22-25.04-35.81-38.22-53.31-6.19-8.22-13.09-15.92-20.81-25.23,27.41-12.1,53.09-23.45,79.39-35.06,14.98,24.32,29.39,47.75,43.85,71.15,14.39,23.28,32.85,26.29,53.77,8.83,7.85-6.55,15.66-13.14,25.12-21.08v13.83c0,78.91,0,157.83,0,236.74,0,16.71,5.35,24.77,16.17,24.52,10.4-.24,15.25-7.84,15.25-24.08.01-79.26,0-158.53,0-237.79v-13.63c9.81,8.31,17.65,14.98,25.52,21.61,20.39,17.18,39.28,14.32,53.22-8.18,12.87-20.76,25.59-41.6,38.43-62.38,1.93-3.13,4.11-6.11,6.38-9.47,26.6,11.85,52.15,23.23,78.86,35.13-14.75,17.73-27.92,33.5-41.03,49.32-18.08,21.82-29.95,46.29-30.22,75.14-.46,49.92-.5,99.85-.66,149.77-.05,16.86,5.18,24.77,15.96,24.55,10.62-.22,15.45-8.03,15.46-25.11.02-45.74.06-91.48-.02-137.23-.03-18.45,1.97-36.78,12.96-51.95,14.88-20.54,31.37-39.91,47.69-60.43,8.88,13.02,11.15,26.38,10.64,40.07-1.92,51.29-4.27,102.55-6.46,153.83-.9,20.93-2.05,41.85-2.6,62.79-.28,10.51,6.22,17.7,15.06,18.07,8.79.37,15.31-6.47,16.16-16.98.08-1.04.08-2.09.13-3.14,3.05-70.46,6.62-140.9,8.95-211.38,1.49-44.84-17.71-79.18-58.11-99.67-23.59-11.96-48.39-21.52-72.48-32.55-5.24-2.4-10.24-5.89-14.44-9.85-12.7-11.96-24.31-25.15-37.58-36.4-10.99-9.32-12.11-25.27-.53-33.92,29.52-22.07,49.72-50.73,59.22-86.34,2.5-9.37,5.09-14.78,16.26-15.64,6.87-.53,14.3-5.74,19.72-10.74,20.21-18.63,20.48-59.81.7-78.91-4.65-4.49-4.99-8.29-4.58-14.44,1.35-20.41,3.97-41.3,1.19-61.32-7.33-52.91-35.37-93.75-78.91-124.4-3.56-2.5-5.57-8.01-7.03-12.53-3.31-10.23-4.44-21.36-8.91-30.98-19.75-42.5-63.99-64.34-113.85-57.22-42.61,6.09-77.97,42.57-83.74,87.36-.96,7.47-4.08,11.66-9.93,15.67-24.92,17.07-44.46,39.09-58.33,65.96-19.05,36.9-25.1,75.72-17.31,116.72.81,4.28-.42,10.65-3.25,13.65-17.73,18.8-20.8,53.79-5.54,74.59,7.57,10.32,17.61,17.05,30.65,17.69,5.73.28,7.58,2.7,8.82,7.87,9.38,39.23,30.66,70.56,62.96,94.71,2.97,2.22,5.03,7.17,5.38,11.05.83,9.02,2.61,19.1-9.9,22.7-1.48.43-2.71,2.18-3.79,3.53-23.61,29.42-54.18,48.45-89.58,60.46-7.57,2.57-14.75,6.28-22.07,9.54-23.4,10.41-42.29,25.99-53.31,49.43-5.13,10.91-8.12,22.82-12.07,34.27v39.81c.54,3.38,1.43,6.75,1.58,10.15.97,21.62,1.75,43.26,2.63,64.89Zm274.63-193.82c-7.8-8.93-15.14-17.62-22.8-26-5.17-5.66-10.81-10.9-16.24-16.33q-19.47-19.47-16.79-46.85c19.08,2.53,38.16,7,57.25,7.04,18.87.04,37.76-4.39,57.07-6.92,1.62,15.76,2.92,31.51-13.39,44.5-15.44,12.3-28.36,27.76-45.11,44.56Zm112.31-18.57c-14.2,23.04-29.51,47.86-45.63,74.01-14.33-12.24-27.93-23.85-41.24-35.22,21.67-21.68,42.82-42.85,64.02-64.05,6.93,7.66,14.28,15.79,22.85,25.26Zm-112.27-558.15c32.44-.77,63.87,21.13,69.68,48.56-52.62-12.26-58.95-17.72-136.04-.18,4.1-25.38,34.61-47.62,66.36-48.38Zm-125.97,362.74c-5.22-21.97-12.14-28.63-34.29-31.4-8.95-1.12-13.02-6.7-13.44-14.71-.5-9.49-3.01-20.95,8.74-25.35,4.23-1.58,11.67,1,15.71,4.15,13.18,10.3,21.75,11.17,34.3.36,7.1-6.11,13.84-12.79,19.9-19.93,6.24-7.34,5.44-15.69-.83-21.63-6.53-6.18-14.94-5.82-22.39,1.18-4.3,4.04-8.36,8.32-12.38,12.35-7.13-2.98-13.48-5.03-19.13-8.27-2.72-1.56-5.35-5.15-5.95-8.22-10.38-52.82,4.72-98.17,42.32-135.77,77.63-77.63,212.23-55.28,260.81,43.04,14.39,29.12,17.76,59.89,11.75,91.73-1.8,9.51-10.3,13.49-17.22,6.87-12.23-11.7-26.17-13.3-42.3-13.18-50.42.37-99.85-6.44-144.21-32.39-15.71-9.19-28.58-23.15-43.44-33.97-5.03-3.67-12.72-7-18.31-5.92-11.97,2.31-13.93,16.02-4.78,26.63,20.22,23.46,45.19,40.39,73.51,52.39,45.12,19.11,92.63,25.39,141.21,24.7,7.59-.11,13.6,1.11,18.73,6.66,9.34,10.11,19.77,13.6,33.74,8.74,11.6-4.04,18.71,1.39,20.5,12.47,2.82,17.39-2.03,26.66-14.66,28.03-18.79,2.03-27.97,10.19-32.25,28.64-22.42,96.53-133.04,135.62-210.9,74.14-23.13-18.26-37.91-42.55-44.75-71.36Zm39.08,170.98c20.52,20.54,41.83,41.87,63.76,63.83-12.6,10.75-26.01,22.18-40.56,34.59-15.91-25.82-31.3-50.82-46.87-76.09,8.23-7.77,16.27-15.35,23.67-22.33Z"/>
  <path class="cls-1" d="m990,636.61c-39.82-12.77-76.2-30.32-102.33-64.58-2.03-2.66-5.4-4.31-8.2-6.35-1.32-.96-4.03-1.83-3.98-2.61.88-13.16-5.55-27.42,4.15-39.26,14.11-17.23,25.4-35.95,31.19-57.46,2.93-10.87,5.3-19.03,19.59-20.51,8.03-.83,16.77-8.55,22.49-15.41,14.28-17.13,13.71-49.22,1.03-68.09-2.39-3.56-3.52-8.69-3.45-13.07.44-27.47,4.22-55.2,1.58-82.33-5.5-56.6-32.33-102.19-86.01-124.49-78.2-32.48-154.66-26.76-226.11,21.66-3.36,2.28-7.29,4.15-11.23,5.07-38.09,8.91-61.49,36.24-63.9,75.34-1.94,31.56,1.34,62.71,7.81,93.59,1.02,4.89,3.01,9.37-2.82,13.85-21.66,16.62-27.61,52.23-13.12,75.37,7.23,11.53,17.43,19.36,31.22,20.36,7.08.51,9.38,3.59,10.83,9.8,5.64,24.18,16.86,45.55,32.44,64.92,3.56,4.42,5.39,10.99,6.1,16.8,1.64,13.46-2.27,22.96-12.92,34.4-27.3,29.3-58.53,49.67-96.59,60.72-9.67,2.81-19.09,6.73-28.3,10.85-7.92,3.54-15.85,7.42-22.9,12.4-6.76,4.77-8.1,12.21-3.83,19.55,4.25,7.29,11.11,9.33,18.97,6.8,3.6-1.16,6.74-3.69,10.29-5.12,28.69-11.62,57.43-23.13,86.33-34.75,2.6,3.72,4.64,6.5,6.55,9.37,17.44,26.12,34.94,52.2,52.23,78.42,8.31,12.61,19.26,21.64,34.48,22.86,8.75.7,17.75-1.58,27.51-2.61,0,1.53.07,3.26,0,4.97-3.84,84.76-7.72,169.52-11.51,254.28-.53,11.85-.94,23.73-.75,35.59.14,8.65,5.86,13.64,13.93,14.32,8.15.68,14.21-3.59,15.97-11.98,1.07-5.08,1.34-10.36,1.56-15.57,3.1-71.16,6.11-142.33,9.2-213.49.68-15.61,1.57-31.21,2.39-47.3h31.98c.27,1.83.58,3.15.64,4.48,2.14,48.49,4.23,96.98,6.4,145.46,1.79,40.11,3.75,80.22,5.46,120.34.41,9.54,4.12,16.34,13.96,18.05,10.9,1.9,18.01-7.34,17.38-21.72-4.1-93.14-8.18-186.28-12.24-279.42-.13-2.91-.02-5.83-.02-9.06,33,8.28,46.69,2.96,64.9-24.37,16.26-24.39,32.49-48.8,48.77-73.18,2.06-3.08,4.3-6.05,6.48-9.1,27.3,10.56,53.85,20.2,79.82,31.19,9.87,4.18,18.42,11.47,28.79,18.13-18.01,17.88-33.89,34.05-50.21,49.76-24.51,23.58-36.11,52.05-35.88,86.15.47,69.14.14,138.29.14,207.44,0,16.86,5.19,24.74,16.02,24.42,10.49-.31,15.39-7.99,15.4-24.2,0-70.19.18-140.39-.1-210.58-.09-22.97,7.7-42.2,23.92-58.26,12.9-12.78,25.69-25.68,38.58-38.46,1.81-1.79,3.94-3.26,8.81-7.24,0,11.71.3,20.36-.05,28.98-3.83,93.85-7.77,187.7-11.64,281.54-.2,4.87-.6,9.84.1,14.61,1.22,8.33,6.79,13.38,14.98,13.44,8.67.06,14.25-5.05,15.61-13.95.37-2.4.34-4.87.44-7.31,2.53-59.31,5.17-118.61,7.55-177.92,1.65-41.17,3.8-82.34,4.07-123.52.18-27.28-11.49-50.51-30.72-70.04-16.55-16.81-37.74-25.07-59.28-31.98Zm-361.74-188.77c-5.02-21.44-11.76-27.78-33.62-30.68-8.25-1.1-12.72-5.64-13.46-13.49-.92-9.64-3.26-20.84,7.37-26.13,4.08-2.03,12.45.36,16.66,3.6,13.47,10.38,21.5,11.37,34.32.48,7.14-6.07,13.84-12.8,19.94-19.91,6.44-7.52,5.67-16.75-.78-22.48-6.69-5.93-14.82-5.31-22.38,1.92-4.24,4.06-8.25,8.37-11.85,12.04-24.81-5.4-22.3-25.7-24.38-41.9-2.79-21.68-3.82-43.77-3.37-65.63.51-25.13,15.94-41.01,40.52-46.05,5.62-1.15,11.68-3.05,16.14-6.44,46.56-35.46,99.26-43.9,155.64-35.63,36.49,5.36,68.16,19.95,90.14,51.12,15.57,22.08,22.3,47.34,23.53,73.76.82,17.68-1.21,35.5-2.14,53.25-.24,4.7-1.39,9.91-7.62,8.53-3.57-.79-7.92-3.44-9.55-6.51-4.4-8.27-7.59-17.2-11.13-25.91-3.87-9.51-10.59-12.67-20.8-11.28-24.16,3.29-48.34,7.2-72.64,8.45-35.25,1.8-69.91-2.8-101.02-20.98-11.25-6.58-20.94-16-30.78-24.76-9.33-8.3-17.76-9.61-24.77-2.58-6.51,6.52-5.76,15.38,1.89,24.17,29.43,33.82,68.3,48.4,111.31,53.8,34.16,4.29,68.31,2.95,102.14-3.55,7.5-1.44,11.82.13,13.78,7.89,1.1,4.34,3.4,8.38,5.18,12.55,7.62,17.91,15.73,22.67,34.98,20.57,12.59-1.38,18.66,2.82,20.03,13.86,2.17,17.49-2.64,25.76-15.87,27.29-18.4,2.13-27.23,10.29-31.71,29.31-13.59,57.73-60.26,97.99-118.86,102.56-63.13,4.91-122.2-38.8-136.82-101.25Zm68.83,271.64c-7.64,7.21-16.03,6.11-22.16-2.95-20.09-29.7-39.85-59.62-59.68-89.38,8.56-8.84,16.25-16.78,24.36-25.16,31.11,27.2,62,54.22,93.54,81.8-12.31,12.23-23.93,24.23-36.07,35.69Zm72.72,20.95h-27.52c-3.55-14.93.69-26.19,13.71-33.98,13.43,7.22,16.75,18.84,13.81,33.98Zm-13.71-78.34c-28.28-24.73-56.22-48.9-83.68-73.6-2.68-2.41-2.98-8.07-3.35-12.32-.54-6.11-.14-12.29-.14-20.02,58.67,32.8,116.1,32.77,174.47-.13,0,9.63.27,17.56-.16,25.46-.13,2.44-1.55,5.44-3.37,7.05-27.66,24.48-55.48,48.77-83.77,73.56Zm79.54,56.4c-5.19,7.56-13.75,7.52-20.9.78-9.62-9.07-18.79-18.63-28.13-28-2.19-2.2-4.3-4.49-7.35-7.69,31.31-27.41,61.94-54.21,91.98-80.51,8.14,8.42,15.97,16.51,24.74,25.58-19.26,28.77-39.51,59.5-60.34,89.83Z"/>
  <path class="cls-1" d="m666.55,814.15c-9.4-.33-18.83-.07-28.24-.07v-.04c-9.07,0-18.14-.21-27.2.05-11.04.32-17.29,6.04-17.36,15.35-.07,8.81,5.83,15.42,16.08,15.71,19.16.56,38.37.58,57.52-.04,10.23-.33,15.97-7.05,15.75-15.96-.22-9.02-6.13-14.65-16.55-15.02Z"/>
  <path class="cls-1" d="m228.14,883.43c-13.96-.15-27.92-.26-41.88.05-9.99.22-16.51,6.5-16.68,15.14-.16,8.36,6.38,15.18,16.18,15.94,6.94.53,13.95.1,20.93.1,0-.04,0-.07,0-.11,7.67,0,15.41.59,23.01-.15,9.9-.96,15.78-7.94,14.79-16.83-1.07-9.51-7.06-14.04-16.34-14.14Z"/>
</svg>