<?xml version="1.0" encoding="UTF-8"?>
<svg id="Layer_1" data-name="Layer 1" xmlns="http://www.w3.org/2000/svg" viewBox="0 0 1080 1080">
  <defs>
    <style>
      .cls-1 {
        fill: #1B2980;
      }
    </style>
  </defs>
  <path class="cls-1" d="m0,327.25c6.03-4.95,11.38-11.29,18.19-14.65,145.01-71.53,290.29-142.52,435.25-214.15,29.77-14.71,56.98-13.9,82.3,6.67,10.76-5.1,20.69-11.03,31.4-14.58,15.96-5.29,31.89-2.58,46.85,4.72,44.58,21.73,89.11,43.55,133.56,65.53,12.97,6.41,17.4,18.2,11.78,29.32-5.61,11.08-17.53,14.42-30.64,8.03-43-20.97-85.82-42.32-128.97-63-6.28-3.01-14.18-5.01-20.92-4.17-10.91,1.36-17.82,9.18-20.14,20.15-2.17,10.25,2.57,20.84,12.5,26.73,20.73,12.31,41.69,24.21,62.57,36.27,65.66,37.91,131.43,75.63,196.82,113.99,6.3,3.7,12.08,10.62,14.87,17.38,3.27,7.92-.9,15.89-8.3,20.81-7.74,5.14-15.89,4.52-23.79-.04-29.66-17.11-59.3-34.27-88.95-51.38-8.78-5.06-17.45-10.33-26.42-15.02-15.02-7.86-31.33-3.27-38.93,10.57-7.49,13.64-3.35,29.49,11.05,38.02,31.87,18.87,64.22,36.91,95.97,55.97,5.85,3.51,12.27,9.48,14.15,15.63,16.96,55.45,57.31,84.07,110.59,97.98,32.12,8.38,64.38,7.51,96.45-.94,20.59-5.43,41.16-10.99,61.81-16.2,9.15-2.31,16.65,1.11,21.82,8.77,5.24,7.76,5.17,16.08-.55,23.44-2.63,3.39-6.71,6.74-10.74,7.78-36.78,9.55-72.74,23.28-111.28,24.4-65.86,1.91-124.8-16.18-170.31-65.69-13.83-15.05-21.93-35.32-32.98-53-2.78-4.46-6.05-9.4-10.37-11.98-26.08-15.61-51.86-31.94-79-45.5-46.43-23.18-58.59-83.55-14.07-122.05-17.77-10.24-35.13-20.18-52.42-30.24-17.2-10-34.32-20.13-51.73-30.35-34.05,19.85-68.92,40.17-104.38,60.84,13.88,11.97,23.52,25.8,26.63,43.44,5.29,30.02-6.83,57.66-33.19,73.45-29.07,17.41-58.65,33.97-87.84,51.18-3.32,1.96-6.88,5.2-8.19,8.65-24.99,66.25-76.29,100.28-142.2,116.03-42.19,10.08-83.96,6.29-125.25-5.97-13.72-4.07-27.59-7.66-41.52-10.95-9.82-2.33-17.33-7.09-21.49-16.51v-12.59c11.32-14.6,15.66-16.01,33.92-11.13,17.88,4.78,35.75,9.56,53.64,14.26,32.07,8.42,64.34,9.22,96.44.8,53.27-13.97,93.57-42.66,110.38-98.15,1.78-5.86,7.88-11.6,13.44-14.94,30.85-18.51,62.29-36.03,93.17-54.49,6-3.59,11.74-9.1,15.21-15.11,6.01-10.39,2.8-23.26-5.93-31.62-9.52-9.12-22.02-10.59-34.82-3.29-30.95,17.65-61.73,35.61-92.59,53.42-8.17,4.71-16.2,9.73-24.66,13.84-10.02,4.87-21.08,1.47-26.75-7.37-5.39-8.4-3.89-19.99,3.81-26.68,2.87-2.49,6.29-4.4,9.61-6.31,68.07-39.3,136.16-78.55,204.23-117.84,18.46-10.65,37.08-21.04,55.21-32.22,12.08-7.45,15.33-22.18,8.67-34-6.42-11.39-20.05-16.02-32.62-10.9-3.87,1.58-7.54,3.65-11.3,5.49-144.19,70.76-288.38,141.52-432.58,212.26-17.92,8.79-26.65,6.29-36.48-10.22,0-4.2,0-8.4,0-12.59Z"/>
  <path class="cls-1" d="m130.09,972.28c-9.89,2.54-17.62,4.65-25.42,6.5-14.85,3.52-25.78-3.78-27.5-19.01-8.25-72.92,36.85-151.48,119.92-174.99,26.73-7.57,53.74-8.25,82.86-1.69-3.49-101.69,33.54-183.32,118.91-239.87,50.22-33.27,106.31-45.77,165.99-39.27,69.18,7.53,126.36,38.79,170.8,92.31,44.5,53.59,62.01,116.29,58.56,186.26,8.15-1.14,14.88-2.31,21.67-2.99,104.36-10.46,190.6,75.92,181.76,177.83-1.6,18.48-12.22,25.32-30.46,20.72-7.01-1.77-14.02-3.56-22.6-5.74,2.3,8.82,4.31,16.07,6.07,23.39,4.34,18.04-3.77,28.96-22.9,30.06-44.15,2.53-84.19-9.3-117.37-38.64-16.21-14.34-29.15-32.37-43.48-48.62-49.57,87.69-125.16,139.39-229.45,139.42-104.31.03-180.01-51.48-230.67-141.02-9.08,12.05-17.11,24.76-27.13,35.63-35.58,38.63-80.26,55.78-132.51,53.23-20.04-.98-27.87-12.25-22.86-31.78,1.71-6.67,3.55-13.3,5.8-21.72Zm190.79-181.49c1.42,22.43.64,44.02,4.46,64.76,16.14,87.68,67.16,147.2,152.55,171.92,85.99,24.89,161.1,1.1,221.38-65.12,42.7-46.91,56.24-104.09,53.36-166.17-.32-6.87-4.47-6.63-9.11-7.05-70.33-6.3-132.45-32.38-186.59-77.61-6.06-5.06-11.96-10.31-18.07-15.59-60.03,59.65-131.62,91.01-217.98,94.86Zm253.81-242.21c-55.41-12.95-131.15,3.07-184.65,54.24-41.31,39.52-63.95,87.61-67.46,145.16,125.69-2.34,228.4-95.65,252.11-199.4Zm176.62,199.22c-2.39-92.66-73.87-168.88-135.51-186.86-10.2,36.97-26.81,70.96-49.49,102.49,51.9,50.11,112.77,78.27,185,84.36Zm-580.22,235.08c4.86-.46,8.28-.51,11.59-1.14,66.99-12.74,111.79-82.1,96.2-148.43-1.55-6.59-5.26-8.81-11.19-10.15-64.21-14.47-130.93,27.25-145.94,91.49-1.21,5.17-1.73,10.5-2.74,16.85,11.29-3.02,20.7-5.59,30.14-8.06,22.95-6,35.57,6.49,29.64,29.27-2.51,9.65-4.94,19.33-7.7,30.16Zm783.75-51.69c0-2.98.21-5.04-.03-7.05-8.05-67.97-85.16-119.25-150.6-99.79-3.51,1.04-7.44,6.02-8.3,9.81-13.96,61.44,21.75,124.12,81.63,143.57,7.95,2.58,16.35,3.8,26.37,6.07-3.47-13.03-6.39-23.39-8.97-33.85-4.67-18.96,8.25-31.92,27.11-27.25,10.72,2.66,21.38,5.52,32.79,8.48Z"/>
  <path class="cls-1" d="m1051.37,354.96c-2.22-.79-6.96-1.97-11.26-4.07-45.13-22-90.21-44.1-135.25-66.27-13.89-6.84-18.71-18.03-13.11-29.61,5.62-11.62,17.42-14.87,31.25-8.11,46.06,22.48,92.09,45.03,138.03,67.75,10.79,5.34,15.43,15.01,12.85,24.71-2.47,9.29-10.35,15.46-22.5,15.6Z"/>
  <path class="cls-1" d="m846.33,222.27c.06,11.64-8.76,20.78-20.25,21.01-11.74.23-21.46-9.51-21.24-21.26.21-11.27,9.76-20.64,20.97-20.56,11.42.07,20.47,9.25,20.52,20.81Z"/>
  <path class="cls-1" d="m536.87,966.93c-21.32-.87-40.3-7.66-56.07-22.38-10.1-9.42-11.3-21.44-3.21-30.61,8.19-9.29,19.84-9.65,30.76-.95,19.94,15.9,37.76,15.95,57.7.19,11.14-8.81,22.55-8.59,30.76.59,8.4,9.39,7.07,21.72-3.61,31.39-15.96,14.47-34.96,21.21-56.33,21.78Z"/>
  <path class="cls-1" d="m467.32,867.06c-11.57-.19-20.43-9.28-20.34-20.85.09-11.36,9.4-20.65,20.73-20.7,11.59-.05,21.5,10.13,21.03,21.61-.46,11.45-9.79,20.13-21.42,19.94Z"/>
  <path class="cls-1" d="m607.32,867.06c-11.62.24-20.98-8.41-21.49-19.86-.51-11.51,9.32-21.68,20.95-21.68,11.32,0,20.68,9.28,20.81,20.62.13,11.57-8.7,20.68-20.27,20.92Z"/>
</svg>