<?xml version="1.0" encoding="UTF-8"?>
<svg id="Layer_1" data-name="Layer 1" xmlns="http://www.w3.org/2000/svg" viewBox="0 0 1080 1080">
  <defs>
    <style>
      .cls-1 {
        stroke: #00b1ff;
      }

      .cls-1, .cls-2 {
        fill: none;
        stroke-miterlimit: 10;
        stroke-width: 2.9px;
      }

      .cls-2 {
        stroke: #ee8305;
      }
    </style>
  </defs>
  <path class="cls-1" d="m364.35,822.2l-24.29-44.43-24.29,44.43-43.29,23.66c.26.54.48,1.09.73,1.63l42.56,23.3,24.29,44.41,24.29-44.41,44.44-24.32-44.44-24.28Z"/>
  <polygon class="cls-1" points="687.1 718.67 699.25 696.47 721.44 684.34 699.25 672.2 687.1 650 674.99 672.2 652.8 684.34 674.99 696.47 687.1 718.67"/>
  <polygon class="cls-2" points="508.18 555.71 488.21 544.86 508.18 534 519.03 514.04 529.88 534 549.85 544.86 529.88 555.71 519.03 575.68 508.18 555.71"/>
  <polygon class="cls-2" points="749.37 483.51 721.44 468.18 749.37 452.99 764.56 425.2 779.75 452.99 807.53 468.18 779.75 483.51 764.56 511.29 749.37 483.51"/>
  <polygon class="cls-2" points="593.51 277.21 539.83 247.84 593.51 218.47 623.03 164.79 652.4 218.47 705.93 247.84 652.4 277.21 623.03 330.89 593.51 277.21"/>
</svg>