<?xml version="1.0" encoding="UTF-8"?>
<svg id="Layer_1" data-name="Layer 1" xmlns="http://www.w3.org/2000/svg" viewBox="0 0 1080 1080">
  <defs>
    <style>
      .cls-1 {
        fill: #ee8305;
      }
    </style>
  </defs>
  <path class="cls-1" d="m1013.14,350.41c-24.87-45.45-59.4-86.02-96.38-122.06s-74.75-64.95-116.75-91.05c-82.31-51.15-176.76-87.8-274.07-94.18-95.96-6.29-198.49,20.4-271.54,85.07-33.9,30.01-59.15,68.19-78.65,108.77-21.12,43.96-33.74,91.28-54.56,135.31-10.92,23.1-24.53,44.3-39.32,65.07-13.45,18.9-27.27,37.66-38.39,58.07-10.98,20.15-18.95,41.87-21.22,64.81-2.3,23.26,1.08,46.84,8.49,68.94,30.02,89.59,116.59,150.05,203.43,177.41,49.64,15.64,101.54,21.22,153.45,18.87,54.99-2.49,109.2-12.74,163.38-21.77,55.68-9.28,111.99-16.13,168.51-11.88,53.17,4,100.88,26.88,150.47,44.35,23.81,8.39,49.76,17.14,75.28,12.33,20.96-3.95,39.32-16.7,53.2-32.53,14.76-16.84,25.65-37.65,34.74-57.99s16.13-41.6,21.33-63.28c10.85-45.25,13.91-92.23,11.37-138.62-2.58-47.25-10.55-94.81-24.94-139.93-7.24-22.72-16.48-44.74-27.82-65.72-.68-1.26-2.61-.14-1.93,1.13,23.41,43.3,37.03,90.89,45.18,139.26,7.61,45.17,10.19,91.38,6.43,137.06-3.78,45.85-14.1,91.56-33.55,133.39s-48.16,85.72-97.78,86.35c-26.22.33-52.18-10.15-76.36-19.23-23.44-8.8-46.61-18.38-70.51-25.89-24.18-7.6-48.6-12.08-73.91-13.48-27.29-1.51-54.68-.59-81.89,1.85-53.77,4.83-106.67,16.2-160.03,24.04-54.15,7.96-109.2,12.4-163.7,5.17-91.99-12.2-186.27-55.81-241.56-132.68-27.85-38.72-45.63-87.21-38.01-135.3,7.39-46.63,37.68-84.18,64-121.73,14.14-20.17,26.51-41.18,36.68-63.64,9.96-22,17.75-44.79,26.04-67.44,15.45-42.23,33.85-83.87,60.06-120.63,57-79.95,152.48-123.92,248.71-132.61,96.13-8.68,193.07,17.79,278.71,60.22,87.92,43.56,167.09,105.44,228.54,182.1,15.98,19.93,30.68,40.76,42.96,63.19.69,1.26,2.62.14,1.93-1.13Z"/>
</svg>