<?xml version="1.0" encoding="UTF-8"?>
<svg id="Layer_1" data-name="Layer 1" xmlns="http://www.w3.org/2000/svg" viewBox="0 0 1080 1080">
  <defs>
    <style>
      .cls-1 {
        fill: #c4b9b9;
      }
    </style>
  </defs>
  <path class="cls-1" d="m598.54,873.54l-35.4-64.73-35.4,64.73-63.07,34.48c.37.79.7,1.58,1.07,2.37l62.01,33.95,35.4,64.71,35.4-64.71,64.74-35.43-64.74-35.37Z"/>
  <polygon class="cls-1" points="852.8 375.35 870.5 343.01 902.84 325.34 870.5 307.65 852.8 275.31 835.16 307.65 802.83 325.34 835.16 343.01 852.8 375.35"/>
  <polygon class="cls-1" points="602.67 148.25 616.32 123.25 641.3 109.59 616.32 95.96 602.67 70.96 588.98 95.96 563.98 109.59 588.98 123.25 602.67 148.25"/>
  <polygon class="cls-1" points="424.09 344.31 326.49 165.76 229.51 343.05 228.88 344.31 223.82 347.05 136.97 394.69 50.33 441.91 228.88 539.73 326.49 718.28 365.06 647.66 424.09 539.73 424.93 539.31 602.64 442.13 424.09 344.31"/>
</svg>