<?xml version="1.0" encoding="UTF-8"?>
<svg id="Layer_1" data-name="Layer 1" xmlns="http://www.w3.org/2000/svg" viewBox="0 0 1080 1080">
  <defs>
    <style>
      .cls-1 {
        fill: #619f75;
      }
    </style>
  </defs>
  <path class="cls-1" d="m627.74,53.51c91.26,37.24,174.88,92.73,244.75,162.26,69.78,69.43,131.1,154.89,153.21,252.27,23.2,102.16-4.84,209.11-63.41,294.42-56.3,82.01-139.33,147.33-229.94,187.61-90.98,40.44-194.81,53.12-289.85,19.04-44.28-15.87-85.14-41.58-116.92-76.43-30.96-33.95-52.65-74.94-71.16-116.68-18.68-42.15-34.45-85.57-54.5-127.12-9.89-20.48-20.83-40.5-33.59-59.35s-28.03-36.96-43.05-54.63c-31.07-36.55-63.26-74.61-73.92-122.66-11.48-51.71,1.15-106.26,26.34-152.01,24.32-44.16,59.63-81.32,97.64-113.98,38.41-33.01,80.82-61.62,126.68-83.22,47.75-22.5,99.28-37.07,152.02-40.81,48.75-3.46,100.66,1.43,146.38,19.63,9.77,3.89,19.54,7.78,29.31,11.66,1.7.68,2.44-2.07.76-2.74-10.16-4.04-20.29-8.21-30.5-12.14-22.31-8.59-46.21-13.85-69.87-17.01-53.54-7.16-108.49-2.14-160.32,12.74s-96.25,37.25-138.93,65.94c-41.95,28.2-81.41,61.71-114.45,100.05-33.45,38.83-59.95,84.52-68.88,135.5-4.37,24.94-4.56,50.68.69,75.5,5,23.64,15.29,45.64,28.39,65.83,26.44,40.77,62.52,74.16,89.65,114.44,26.51,39.35,45.01,83.33,62.97,127.03,17.51,42.62,34.65,85.74,58.66,125.22,24.28,39.93,56.02,74.23,95.79,99.07,83.59,52.21,187.24,60.07,281.12,34.88,50.19-13.47,97.88-35.58,141.78-63.26,42.35-26.71,81.7-58.57,115.76-95.32,69.54-75.03,116.25-172.92,116.52-276.47.27-102.84-49.33-197.47-113.35-275.17-63.23-76.73-142.07-140.54-230.12-186.7-21.14-11.09-42.82-21.12-64.93-30.14-1.7-.69-2.43,2.06-.76,2.74Z"/>
</svg>