<?xml version="1.0" encoding="UTF-8"?>
<svg id="Layer_1" data-name="Layer 1" xmlns="http://www.w3.org/2000/svg" viewBox="0 0 1080 1080">
  <defs>
    <style>
      .cls-1 {
        fill: #EE8305;
      }
    </style>
  </defs>
  <path class="cls-1" d="m707.67,1011.73c-48.9-.96-93.84-21.41-132.94-49.69-40.01-28.94-73.03-65.25-107.93-99.84-33-32.7-68.23-63.5-107.66-88.27-19.4-12.19-39.75-22.84-60.91-31.63-22.61-9.4-46-15.91-69.62-22.16-44.6-11.79-90.97-24.29-127.21-54.32-37.78-31.31-57.6-77.72-60.74-126.11-3.28-50.52,11.45-99.87,34.55-144.37s54.13-86.06,87.27-124.08c62.19-71.36,138.32-132.86,226.33-169.17,44.7-18.44,92.15-29.98,140.45-33.01,54.44-3.41,109.33,3.53,161.58,19.03,47.45,14.07,92.48,35.45,134.42,61.64s77.63,54.82,109.8,89.6c31.37,33.91,57.83,73.05,73.7,116.64,8.77,24.1,14.74,49.42,19.56,74.58,5.02,26.24,8.34,52.8,9.97,79.46,3.28,53.3-.07,107.05-10.24,159.48-9.51,49.08-24.66,97.64-47.58,142.17-41.75,81.11-109.99,155.65-197.6,186.77-24.18,8.59-49.47,13.56-75.18,13.28-1.32-.01-1.33,2.04,0,2.06,96.76,1.07,182.43-65.96,237.12-140.54,59.81-81.57,88.93-182.38,95.41-282.52,3.47-53.69.2-107.85-9.92-160.7-4.82-25.16-10.79-50.48-19.56-74.58-7.91-21.72-18.45-42.43-30.9-61.89-50.25-78.51-129.18-137.96-212.38-177.99-96.28-46.32-207.37-62.61-311.85-37.41-93.17,22.47-176.62,75.09-245.65,140.55-35.29,33.46-67.18,70.5-95.56,109.98-30.6,42.57-57.36,89.22-69.59,140.62-10.82,45.44-9.16,94.92,9.87,138.02,19.01,43.06,55.11,73.01,97.89,90.99,44.58,18.73,92.98,25.42,137.92,43.06,45.6,17.9,87,44.67,124.47,76.02,38.01,31.8,70.74,68.8,106.7,102.74,34.84,32.88,73.62,63.57,118.89,80.58,21.51,8.08,44.15,12.61,67.13,13.07,1.32.03,1.32-2.03,0-2.06Z"/>
</svg>