<?xml version="1.0" encoding="UTF-8"?>
<svg id="Layer_1" data-name="Layer 1" xmlns="http://www.w3.org/2000/svg" viewBox="0 0 1080 1080">
  <defs>
    <style>
      .cls-1 {
        fill: #fff;
      }
    </style>
  </defs>
  <g id="g3352">
    <g id="g3358">
      <path class="cls-1" d="m808.17,857.32c-8.74,0-15.82-7.08-15.82-15.82v-30.19h-95.01c-23.76,0-43.1-19.33-43.1-43.09v-12.81c0-8.34,3.62-16.29,9.92-21.8l35.76-31.15-51.46-35.41c-9.53-6.55-14.73-17.79-13.54-29.33l16.06-152.34c.92-8.69,8.7-14.99,17.39-14.07,8.69.92,14.99,8.7,14.08,17.39l-16.05,152.3,56.26,38.7c6.97,4.82,11.23,12.41,11.7,20.83.47,8.42-2.9,16.43-9.26,21.97l-39.21,34.16v11.56c0,6.31,5.14,11.45,11.45,11.45h110.83c8.74,0,15.82,7.08,15.82,15.82v46.01c0,8.74-7.08,15.82-15.82,15.82Z"/>
    </g>
    <g id="g3362">
      <path class="cls-1" d="m947.35,857.32c-8.74,0-15.82-7.08-15.82-15.82v-115.03c0-8.74,7.08-15.82,15.82-15.82s15.82,7.08,15.82,15.82v115.03c0,8.74-7.08,15.82-15.82,15.82Z"/>
    </g>
    <g id="g3366">
      <path class="cls-1" d="m947.38,742.3h-58.02c-8.74,0-15.82-7.08-15.82-15.82v-24.53c0-15.34,9.67-29.36,24.07-34.89,17-6.52,27.99-21.22,27.99-37.43,0-22.52-20.91-40.85-46.62-40.85-3.75,0-7.49.4-11.12,1.18-7.41,1.6-15.04-.22-20.96-4.99-5.97-4.82-9.39-11.98-9.39-19.65v-39.41c-28.59,1.11-83.97,1.01-137.07-11.76-70.11-16.87-113.13-49.88-127.86-98.12-2.23-7.31-.74-15.27,3.97-21.3,4.74-6.06,12.13-9.43,19.82-9.04,10.07.53,19.39.82,27.89.89-12.63-18.94-24.85-48.75-16.96-87.74,1.41-6.98,5.85-12.88,12.17-16.19,6.32-3.3,13.7-3.57,20.23-.75,18.97,8.21,49.65,17.71,84.17,26.07,8.49,2.06,13.71,10.61,11.66,19.1-2.06,8.49-10.61,13.71-19.1,11.65-30.93-7.49-59.2-15.97-79.58-23.83-2.84,29.46,9.64,50.8,21.3,63.95,6.13,6.92,7.68,16.49,4.03,24.96-3.63,8.45-11.61,13.9-20.82,14.21-10.04.34-21.53.28-34.28-.18,14.52,30.92,48.33,52.94,100.74,65.55,49.67,11.95,102.07,11.95,128.88,10.89,8.46-.33,16.75,2.82,22.84,8.67,6.09,5.85,9.59,14.06,9.59,22.52v32.25c3.25-.38,6.54-.57,9.82-.57,43.15,0,78.26,32.52,78.26,72.49,0,29.43-18.95,55.71-48.29,66.97-2.29.88-3.77,2.98-3.77,5.35v8.71h36.48c76.03-63.89,114.4-136.13,105.43-198.84-4.6-32.13-22.33-59.19-45.17-68.93-6.31-2.69-10.17-9.15-9.55-15.98.64-7.03-2.75-14.66-10.06-22.67-22.99-25.17-75-44.15-120.98-44.15-19.27,0-43.08-2.19-70.75-6.51-8.63-1.35-14.54-9.44-13.19-18.07,1.35-8.63,9.45-14.54,18.07-13.19,25.7,4.01,48.48,6.13,65.88,6.13,54.82,0,115.53,22.9,144.34,54.46,10.22,11.19,16.3,23.3,17.95,35.54,28.53,16.47,49.15,49.55,54.78,88.9,4.92,34.38-1.74,72.01-19.25,108.8-20.25,42.53-54.48,83.77-101.75,122.57-2.83,2.32-6.38,3.59-10.04,3.59Z"/>
    </g>
    <g id="g3370">
      <path class="cls-1" d="m775.81,953.93c-7.31,0-14.33-2.93-19.57-8.35-6.66-6.9-9.2-16.55-6.8-25.83l19.06-73.59c3.13-12.05,14-20.47,26.45-20.47h171.26c15.06,0,27.32,12.26,27.32,27.32v31.2c0,12.9-8.79,23.87-21.39,26.67l-190.31,42.4c-2.01.45-4.03.67-6.02.67Zm22.49-96.61l-16.46,63.52,180.05-40.12v-23.41h-163.59Z"/>
    </g>
    <g id="g3374">
      <path class="cls-1" d="m333.06,530c-6.38,0-12.38-3.88-14.79-10.19l-78.2-205.32-77.47,205.27c-3.09,8.17-12.22,12.3-20.39,9.22-8.17-3.09-12.3-12.21-9.22-20.39l87.3-231.34c.05-.15.11-.29.17-.43,3.27-7.96,10.95-13.1,19.55-13.1h.02c8.61,0,16.28,5.17,19.54,13.14.05.12.1.24.14.36l88.11,231.33c3.11,8.17-.99,17.31-9.15,20.42-1.85.71-3.76,1.04-5.63,1.04Z"/>
    </g>
    <g id="g3378">
      <path class="cls-1" d="m305.58,472.38h-130.74c-8.74,0-15.82-7.08-15.82-15.82s7.08-15.82,15.82-15.82h130.74c8.74,0,15.82,7.08,15.82,15.82s-7.08,15.82-15.82,15.82Z"/>
    </g>
    <g id="g3382">
      <path class="cls-1" d="m222.86,933.12c-34.56,0-62.67-28.11-62.67-62.67s28.11-62.67,62.67-62.67,62.67,28.11,62.67,62.67-28.11,62.67-62.67,62.67Zm0-93.69c-17.11,0-31.03,13.92-31.03,31.02s13.92,31.03,31.03,31.03,31.02-13.92,31.02-31.03-13.92-31.02-31.02-31.02Z"/>
    </g>
    <g id="g3386">
      <path class="cls-1" d="m269.71,939.35c-8.74,0-15.82-7.08-15.82-15.82v-106.15c0-8.74,7.08-15.82,15.82-15.82s15.82,7.08,15.82,15.82v106.15c0,8.74-7.08,15.82-15.82,15.82Z"/>
    </g>
    <g id="g3390">
      <path class="cls-1" d="m388.29,933.12c-34.56,0-62.67-28.11-62.67-62.67s28.11-62.67,62.67-62.67,62.67,28.11,62.67,62.67-28.11,62.67-62.67,62.67Zm0-93.69c-17.11,0-31.03,13.92-31.03,31.02s13.92,31.03,31.03,31.03,31.02-13.92,31.02-31.03-13.92-31.02-31.02-31.02Z"/>
    </g>
    <g id="g3394">
      <path class="cls-1" d="m435.14,939.35c-8.74,0-15.82-7.08-15.82-15.82v-106.15c0-8.74,7.08-15.82,15.82-15.82s15.82,7.08,15.82,15.82v106.15c0,8.74-7.08,15.82-15.82,15.82Z"/>
    </g>
    <g id="g3398">
      <path class="cls-1" d="m454.49,608.78H26.37c-14.54,0-26.37-11.83-26.37-26.37V211.31c0-14.54,11.83-26.37,26.37-26.37h428.12c14.54,0,26.37,11.83,26.37,26.37v371.1c0,14.54-11.83,26.37-26.37,26.37Zm-422.85-31.64h417.58V216.58H31.64v360.56Z"/>
    </g>
    <g id="g3402">
      <path class="cls-1" d="m89.37,216.57c-4.95,0-9.82-2.31-12.91-6.65-5.06-7.12-3.4-17,3.72-22.06l120.34-85.58c7.12-5.06,17-3.4,22.06,3.72,5.06,7.12,3.4,17-3.72,22.06l-120.34,85.58c-2.78,1.98-5.98,2.93-9.16,2.93Z"/>
    </g>
    <g id="g3406">
      <path class="cls-1" d="m391.49,216.57c-3.17,0-6.37-.95-9.16-2.93l-120.34-85.58c-7.12-5.06-8.79-14.94-3.72-22.06s14.94-8.79,22.06-3.72l120.34,85.58c7.12,5.06,8.79,14.94,3.72,22.06-3.09,4.34-7.96,6.65-12.91,6.65Z"/>
    </g>
    <g id="g3410">
      <path class="cls-1" d="m240.43,148.36c-28.49,0-51.66-23.18-51.66-51.66s23.18-51.66,51.66-51.66,51.66,23.18,51.66,51.66-23.17,51.66-51.66,51.66Zm0-71.68c-11.04,0-20.02,8.98-20.02,20.02s8.98,20.02,20.02,20.02,20.02-8.98,20.02-20.02-8.98-20.02-20.02-20.02Z"/>
    </g>
    <g id="g3414">
      <path class="cls-1" d="m517.49,1018.89H241.33c-8.74,0-15.82-7.08-15.82-15.82s7.08-15.82,15.82-15.82h270.88v-162.36c0-22.45,8.64-43.66,24.33-59.72l27.34-27.98-131.48,15.86c-3.37.41-6.82.62-10.23.62H98.94v233.59h68.56c8.74,0,15.82,7.08,15.82,15.82s-7.08,15.82-15.82,15.82h-73.83c-14.54,0-26.37-11.83-26.37-26.37v-244.14c0-14.54,11.83-26.37,26.37-26.37h328.5c2.15,0,4.32-.13,6.44-.39l158.26-19.09c9.45-1.14,18.29,3.64,22.51,12.18,4.22,8.54,2.64,18.47-4.01,25.29l-46.19,47.27c-9.88,10.12-15.32,23.47-15.32,37.61v167.64c0,14.54-11.83,26.37-26.37,26.37Z"/>
    </g>
  </g>
</svg>