<?xml version="1.0" encoding="UTF-8"?>
<svg id="Layer_1" data-name="Layer 1" xmlns="http://www.w3.org/2000/svg" viewBox="0 0 1080 1080">
  <defs>
    <style>
      .cls-1 {
        fill: #fff;
      }
    </style>
  </defs>
  <path class="cls-1" d="m1003.25,460.8c43.92-2.33,79.06-46.7,79.06-100.9,0-49.45-29.25-90.71-67.71-99.35v-12.9c3.61-3.47,6.91-7.31,9.82-11.61,2.02-2.99,2.96-6.59,2.67-10.19-5.14-61.86-33.22-119.23-79.1-161.53C901.86,21.78,841.84-1.65,778.95-1.65h-68.74c-137.34,0-249.06,111.35-249.06,248.21v3.48c0,4.92,2.29,9.56,6.21,12.57,5.58,4.28,12.01,7.88,19.09,10.69.58.23,1.16.4,1.73.62v115.45c0,70.61,23.59,129.85,68.2,171.33,13,12.08,27.68,22.44,43.69,30.97-6.76,6.67-12.95,13.82-18.53,21.42-19.62,8.12-40.88,12.39-62.83,12.39-4,0-7.98-.17-11.93-.47v-50.19c0-16.19-13.23-29.36-29.49-29.36h-23.73c-.22-24.94-20.7-45.16-45.84-45.16h-87.31c-25.14,0-45.63,20.23-45.85,45.16h-23.73c-16.27,0-29.49,13.17-29.49,29.36v222.07h-98.76c-16.26,0-29.49,13.17-29.49,29.36v224.39c0,16.19,13.23,29.36,29.49,29.36h573.9c1.2,0,2.38-.14,3.52-.4,12.71-1.37,24.21-6.64,33.31-14.55,9.09,7.89,20.57,13.16,33.27,14.54,1.15.27,2.35.4,3.58.4h182.26c41.51,0,75.28-33.52,75.28-74.73,0-37.08-27.35-67.92-63.06-73.73v-31.11c0-8.75-7.09-15.84-15.84-15.84s-15.84,7.1-15.84,15.84v30.11h-102.67c-8.62-23.26-31.09-39.48-57.06-39.48-15.27,0-29.22,5.63-39.92,14.89-10.69-9.26-24.64-14.89-39.9-14.89-25.97,0-48.44,16.22-57.06,39.48h-4.08v-43.86c11.39,1.46,22.79,2.2,34.16,2.2,99.98,0,196.41-55.36,243.36-150.35,6.92-14.01,7.96-29.85,2.89-44.59-5.08-14.79-15.65-26.7-29.79-33.53-29.02-14.01-64.22-1.96-78.48,26.89-13.58,27.48-34.96,49.98-61.8,65.05-7.63,4.28-10.35,13.95-6.07,21.57,4.29,7.63,13.95,10.35,21.58,6.07,32.44-18.22,58.27-45.41,74.7-78.65,6.58-13.32,22.86-18.86,36.28-12.39,6.47,3.12,11.3,8.55,13.61,15.28,2.29,6.68,1.82,13.88-1.33,20.26-46.79,94.68-149.28,144.63-249.11,130.12v-3.42c7.9-10.41,13.08-23,14.47-36.85.4-3.89.45-7.77.21-11.63,10.82,1.19,21.74,1.45,32.66.71,8.73-.6,15.32-8.17,14.72-16.9-.6-8.73-8.16-15.28-16.9-14.72-13.81.96-27.64-.05-41.1-2.82-.46-.75-.93-1.5-1.42-2.24l-16.18-42.31c-4.87-12.88-17.38-21.53-31.14-21.53-2.7,0-5.36.35-7.98,1,4.07-40.18,22.65-74.13,51.82-98.48,14.23,5.03,29.2,8.79,44.73,11.24,6.64,29.92,33.55,52.39,65.66,52.39s57.75-21.42,65.16-50.3c23.91-2.46,46.89-8.57,68.3-17.85,36.24,27.4,57.67,68.58,57.67,117.84v107.74c0,8.75,7.1,15.84,15.84,15.84s15.84-7.1,15.84-15.84v-107.74c0-53.7-20.33-99.87-58.86-133.83,45.17-28.13,80.33-71.54,97.48-124.12Zm-259.14,490.66c0-15.83,13.06-28.71,29.12-28.71,14.82,0,27.25,10.94,28.92,25.44.92,8,7.69,14.04,15.74,14.04h134.54c24.04,0,43.59,19.31,43.59,43.04s-19.55,43.04-43.59,43.04h-180.07c-.37-.05-.74-.09-1.12-.12-15.21-1.02-27.12-13.58-27.12-28.59v-68.15Zm-111.84,10.77h16.48c8.05,0,14.82-6.03,15.74-14.04,1.67-14.5,14.1-25.44,28.92-25.44,8.79,0,16.67,3.88,22.02,9.98-1.95,5.9-3.01,12.2-3.01,18.73v68.15c0,6.5,1.06,12.78,3.01,18.68-4.93,5.62-12,9.38-20.02,9.92-.38.02-.75.07-1.12.12h-62.02v-86.09Zm-125.51-305.44c3.96.24,7.94.39,11.93.39,13.94,0,27.62-1.49,40.92-4.31-7.4,18.91-11.71,39.5-12.43,61.36-9.39,1.03-18.9,1.56-28.5,1.56-3.99,0-7.97-.12-11.93-.31v-58.7Zm2.57,240.17c1.85,0,5.83,2.25,6.77,3.83l19.77,33.93c.88,1.53.88,5.93,0,7.47l-19.77,33.93c-.93,1.58-4.92,3.84-6.77,3.84h-39.55c-1.86,0-5.84-2.26-6.78-3.84l-19.77-33.93c-.88-1.53-.88-5.93,0-7.46l19.77-33.93c.93-1.58,4.92-3.84,6.78-3.84h39.55Zm-188.94-364.97h87.31c7.67,0,13.92,6.01,14.14,13.48h-115.6c.22-7.47,6.47-13.48,14.14-13.48Zm-67.37,45.16h222.05v219.74h-222.05v-219.74Zm93.82,471.17H124.78v-219.73h222.06v219.73Zm253.74,0h-222.05v-219.73h106.88c-.74,2.22-1.28,4.54-1.52,6.96l-.45,4.4c-.97,9.68,2.51,18.79,8.76,25.32h-22.43c-13.18,0-27.55,8.24-34.16,19.57l-19.76,33.93c-6.65,11.4-6.65,27.97,0,39.37l19.76,33.93c6.62,11.34,20.98,19.57,34.16,19.57h39.55c13.18,0,27.55-8.24,34.15-19.58l19.77-33.93c6.64-11.4,6.64-27.96,0-39.37l-19.76-33.93c-1.53-2.6-3.47-5.03-5.69-7.25l26.81,2.7c2.57.26,5.17.39,7.73.39,9.99,0,19.52-1.91,28.25-5.4v173.05Zm-19.54-290.58c3.27-4.33,4.08-10.04,2.17-15.13l-1.58-4.15c-.16-.41-.14-.83.04-1.23.18-.4.49-.68.91-.84l4.43-1.68c.2-.07.39-.12.58-.12.11,0,1.11.03,1.53,1.11l16.87,44.09c.46,1.23,1.08,2.38,1.83,3.46,5.76,8.19,8.38,18.11,7.4,27.93-2.17,21.55-20.61,37.8-42.89,37.8-1.51,0-3.04-.08-4.56-.23l-52.5-5.28c-.18-.02-.31-.18-.3-.35l.45-4.39c.02-.24.25-.3.35-.3h0l37.92,3.81c8.69.9,16.47-5.46,17.35-14.17l.28-2.81c.43-4.18-.83-8.37-3.49-11.62-2.66-3.26-6.5-5.32-10.69-5.74l-46.29-4.66c-.15-.02-.31-.21-.29-.35l.44-4.39c.02-.24.26-.27.36-.3l46.29,4.66c4.18.41,8.36-.84,11.62-3.5,3.25-2.66,5.31-6.5,5.74-10.68l.28-2.82c.87-8.71-5.47-16.48-14.18-17.35l-37.93-3.81c-.16-.02-.31-.21-.3-.36l.45-4.39c.02-.24.26-.26.35-.29l42.99,4.32c.11,0,.31.02.4.04,5.42.45,10.68-1.93,13.94-6.27Zm160.77-120.37c-13.1,0-24.55-7.04-30.71-17.48,2.82.08,5.64.13,8.49.13h52.84c-6.17,10.37-17.58,17.35-30.62,17.35Zm41.34-49.04h-63.55c-121.33,0-199.74-78.09-199.74-198.96v-110.88c15.95-1.4,31.33-8.49,45.5-21.23,2.62-2.35,5.2-4.89,7.75-7.62.9,3.01,2.01,5.9,3.33,8.64,6.73,14.03,18.68,23.9,34.56,28.53,25.79,7.54,51.84-3.53,77.73-32.95,6.48,15.41,19.7,26.73,39.12,32.86,8.52,2.68,16.98,4.02,25.33,4.01,27.73,0,54.28-14.7,77.89-43.43,8.01-9.75,14.65-19.88,19.84-28.8,6.69,9.23,15.61,19.48,26.93,28.46,6.86,5.43,16.83,4.28,22.26-2.57,5.44-6.86,4.28-16.82-2.57-22.26-22.26-17.65-33.03-42.57-33.11-42.78-2.47-5.9-8.24-9.74-14.62-9.74h-.13c-6.44.06-12.21,4.01-14.59,9.99-.38.96-38.77,95.48-97.69,76.9-14.52-4.58-28.07-13.67-18.47-46.36,2.24-7.65-1.54-15.78-8.85-18.97-7.3-3.2-15.84-.47-19.95,6.37-25.72,42.93-51.3,64.41-70.24,58.87-7.3-2.14-12.02-5.89-14.87-11.83-5.62-11.71-3.66-31.55,5.22-53.06,3.28-7.94-.36-17.04-8.21-20.53-7.83-3.48-17.04-.1-20.74,7.66-39.37,82.56-72.33,69.49-83.17,65.2-1.83-.73-3.57-1.53-5.22-2.39,2.74-117.03,99.17-211.4,217.31-211.4h68.74c110.17,0,203.88,84.05,215.97,192.44-4.41,5-9.84,8.6-16.49,10.95-6.56,2.33-13.04,4-19.28,4.98-8.64,1.36-14.54,9.47-13.18,18.12,1.37,8.64,9.47,14.55,18.12,13.18,6.17-.98,12.47-2.45,18.81-4.4v9.43c0,4.23,1.68,8.28,4.68,11.25,2.97,2.95,6.98,4.6,11.17,4.6.32,0,.64,0,1.02-.02,28.05.12,50.84,31.17,50.84,69.32s-22.88,69.31-51.01,69.31c-1.81,0-3.66-.14-5.65-.45-8-1.22-15.62,3.78-17.7,11.59-23.12,87.13-102.53,147.97-193.1,147.97Z"/>
  <path class="cls-1" d="m831.82,329.18c-8.76,0-15.84,7.09-15.84,15.84v25.99c0,8.76,7.09,15.84,15.84,15.84s15.84-7.09,15.84-15.84v-25.99c0-8.76-7.1-15.84-15.84-15.84Z"/>
  <path class="cls-1" d="m597.71,329.18c-8.76,0-15.84,7.09-15.84,15.84v25.99c0,8.76,7.09,15.84,15.84,15.84s15.84-7.09,15.84-15.84v-25.99c0-8.76-7.1-15.84-15.84-15.84Z"/>
  <path class="cls-1" d="m714.75,409.66h10.27c8.76,0,15.84-7.1,15.84-15.84s-7.09-15.84-15.84-15.84h-4.7v-14.7c0-8.76-7.1-15.84-15.84-15.84s-15.84,7.09-15.84,15.84v19.98c0,14.56,11.71,26.41,26.11,26.41Z"/>
  <path class="cls-1" d="m777.24,434.74h-117.82c-16.26,0-29.49,13.17-29.49,29.36,0,48.38,39.65,87.73,88.39,87.73s88.4-39.36,88.4-87.73c0-16.18-13.23-29.36-29.49-29.36Zm-58.91,85.41c-30.48,0-55.42-23.89-56.66-53.72h113.33c-1.25,29.83-26.18,53.72-56.67,53.72Z"/>
  <path class="cls-1" d="m425.33,650.93l-27.77-3.97-12.38-24.72c-4.02-8.03-12.11-13.02-21.13-13.02s-17.12,4.99-21.13,13.01l-12.38,24.72-27.8,3.98c-8.92,1.29-16.22,7.39-19.05,15.94-2.81,8.51-.44,18.03,6.03,24.24l19.96,19.17-4.7,27.02c-1.54,8.82,2.19,17.89,9.42,23.05,4.04,2.92,8.83,4.46,13.83,4.46,3.81,0,7.61-.92,10.91-2.66l24.9-12.9,24.81,12.86c3.37,1.77,7.16,2.7,10.98,2.7,5.01,0,9.8-1.54,13.77-4.41,7.3-5.22,11.03-14.28,9.49-23.1l-4.7-27.02,19.95-19.16c6.48-6.21,8.85-15.74,6.04-24.25-2.81-8.54-10.11-14.64-19.07-15.94Zm-34.95,42.34c-3.8,3.65-5.54,8.95-4.63,14.14l3.33,19.13-17.74-9.19c-2.28-1.19-4.79-1.77-7.29-1.77s-5,.59-7.29,1.77l-17.73,9.19,3.33-19.13c.9-5.19-.83-10.49-4.64-14.14l-13.89-13.34,19.41-2.77c5.14-.74,9.59-3.95,11.92-8.59l8.9-17.76,8.9,17.76c2.33,4.65,6.78,7.86,11.92,8.59l19.4,2.77-13.89,13.34Z"/>
  <path class="cls-1" d="m220.2,1006c4.18,4.09,9.73,6.35,15.61,6.35s11.42-2.25,15.61-6.35l56.71-55.47c9.72-9.51,15.08-22.18,15.08-35.7s-5.36-26.19-15.08-35.7c-9.64-9.42-22.42-14.61-36-14.61s-26.37,5.19-36,14.61l-.33.32-.32-.32c-9.63-9.42-22.42-14.61-36-14.61s-26.37,5.18-36,14.61c-9.72,9.51-15.08,22.18-15.08,35.7s5.36,26.19,15.08,35.71l56.7,55.46Zm-34.55-104.21c3.67-3.6,8.59-5.58,13.84-5.58s10.17,1.98,13.85,5.58l11.4,11.16c6.16,6.02,16,6.02,22.16,0l11.4-11.15c3.68-3.6,8.59-5.59,13.85-5.59s10.16,1.98,13.84,5.58c3.57,3.49,5.54,8.13,5.54,13.05,0,4.92-1.96,9.56-5.54,13.05l-50.17,49.06-50.17-49.06c-3.57-3.49-5.55-8.13-5.54-13.05,0-4.92,1.96-9.56,5.54-13.05Z"/>
  <path class="cls-1" d="m998.27,409.53c2.54,0,5.12-.61,7.52-1.91,33.84-18.29,28.31-56.59,20.66-74.3-3.47-8.03-12.8-11.73-20.84-8.25-8.03,3.47-11.73,12.8-8.25,20.83.44,1,10.41,24.63-6.63,33.84-7.7,4.16-10.56,13.77-6.4,21.47,2.86,5.3,8.32,8.31,13.95,8.31Z"/>
</svg>