<?xml version="1.0" encoding="UTF-8"?>
<svg id="Layer_1" data-name="Layer 1" xmlns="http://www.w3.org/2000/svg" viewBox="0 0 1080 1080">
  <defs>
    <style>
      .cls-1 {
        fill: #fff;
      }
    </style>
  </defs>
  <path class="cls-1" d="m216.87,308.08h17.95c29.73-.03,53.82-24.13,53.85-53.85v-17.95h-35.9v17.95c-.01,9.91-8.04,17.94-17.95,17.95h-17.95v35.9Z"/>
  <circle class="cls-1" cx="198.92" cy="200.37" r="17.95"/>
  <circle class="cls-1" cx="306.63" cy="200.37" r="17.95"/>
  <path class="cls-1" d="m934.94,613.26c-.01,9.91-8.04,17.94-17.95,17.95h-17.95v35.9h17.95c29.73-.03,53.82-24.13,53.85-53.85v-17.95h-35.9v17.95Z"/>
  <path class="cls-1" d="m970.84,343.98h-71.81c-59.46.07-107.64,48.25-107.71,107.71v160.91l-37.17-43.37-17.03-85.16c-.06-.31-.16-.61-.24-.91h.03s-9.41-36.87-9.41-36.87l34.59-13.84c6.82-2.73,11.28-9.33,11.28-16.67v-71.81c0-3.54-1.05-7.01-3.02-9.96l-35.9-53.85c-3.33-4.99-8.93-7.99-14.94-7.99h-36.48l-1.02-3.99,4.52-6.03c31.04-41.25,48.49-91.12,49.95-142.73.47-16.85-8.87-32.45-23.94-40.01-.06-.03-.12-.06-.19-.09-10.63-5.23-22.95-5.87-34.06-1.77-7.84-26.81-34.87-43.17-62.26-37.7l-13.38,2.68c-51.52,10.3-86.35,58.63-79.83,110.76.03.25.07.5.11.74l17.32,103.15c.02.11.04.23.06.34l15.37,81.98-20.03,5.01c-6.43,1.61-11.45,6.63-13.06,13.06l-16.64,66.57-48.81,44.74-117.73-65.41-9.42-28.26c41.34-26.35,66.38-71.97,66.41-121v-125.66c-.08-69.37-56.29-125.58-125.66-125.66h-35.9c-69.37.08-125.58,56.29-125.66,125.66v125.66c.03,49.02,25.07,94.65,66.41,121l-9.42,28.26-118.53,65.85c-28.49,15.84-46.16,45.87-46.17,78.46v119.31c0,5.8,2.8,11.24,7.52,14.61l28.39,20.28v360.05c0,9.91,8.04,17.95,17.95,17.95h412.89c9.91,0,17.95-8.04,17.95-17.95v-359.03h53.85c6.6,0,12.67-3.63,15.81-9.44l33.96-63.07,22.39,111.94c.59,2.93,1.9,5.67,3.81,7.97l86.64,103.97,35.1,210.62c1.44,8.66,8.93,15,17.71,15h305.18c9.91,0,17.95-8.04,17.95-17.95v-323.13c0-7.73-4.94-14.59-12.27-17.03l-27.8-9.27c25.72-26.68,40.09-62.3,40.07-99.36v-161.56c-.07-59.46-48.25-107.64-107.71-107.71Zm-143.61,107.71c.04-39.64,32.17-71.76,71.81-71.81h71.81c39.64.04,71.76,32.17,71.81,71.81v17.95h-51.64c-35.28.04-66.04-23.98-74.55-58.21-2.4-9.62-12.15-15.47-21.77-13.06-6.43,1.61-11.45,6.63-13.06,13.06l-.54,2.14c-6.6,26.54-27.32,47.26-53.85,53.87v-15.76Zm-117.32-143.61l27.56,41.34v54.22l-18.93,7.57-26.33-103.13h17.7Zm-134.28-57l-17.22-102.58c-3.98-33.36,18.35-64.17,51.29-70.75l13.38-2.68c9.72-1.94,19.18,4.36,21.12,14.08.23,1.16.35,2.34.35,3.52v17.8c-22.55,15.41-36,40.99-35.9,68.3v13.71h35.9v-13.71c-.06-17.82,10.02-34.12,25.98-42.04,3.16-1.58,5.78-4.05,7.54-7.12l8.7-15.14c1.96-3.4,6.22-4.69,9.73-2.94l.1.05c2.52,1.3,4.08,3.94,4,6.78-1.24,44.2-16.19,86.92-42.78,122.25l-9.68,12.91c-3.26,4.35-4.38,9.94-3.03,15.21l53.64,210.05-72.64,41.51-6.47-34.5,36.1-18.05c6.08-3.04,9.92-9.26,9.92-16.06v-89.76c0-6.8-3.84-13.02-9.92-16.06l-35.9-17.95c-3.83-1.92-8.23-2.4-12.38-1.36l-16.88,4.22-14.94-79.71Zm-41.45,195.89c2.59-2.38,4.43-5.47,5.29-8.88l15.34-61.36,54.91-13.73,20.04,10.02v67.57l-61.88,30.94c-2.28,1.14-4.3,2.76-5.9,4.74l-227.98,280.6h-59.02l-85.59-42.79,52.79-95.03,56.43,28.22c6.65,3.33,14.67,2.21,20.16-2.82l215.42-197.47ZM234.82,38.8h35.9c28.16,0,54.68,13.23,71.62,35.72-20.17,33.64-56.57,54.17-95.8,54.04h-101.48c.06-49.55,40.21-89.7,89.76-89.76Zm-89.76,215.42v-89.76h101.48c43.3.15,84.47-18.81,112.5-51.82.95,5.25,1.43,10.58,1.44,15.91v125.66c0,59.49-48.22,107.71-107.71,107.71s-107.71-48.22-107.71-107.71Zm107.71,143.61c15.13,0,30.16-2.39,44.53-7.1l6.74,20.21-28.06,28.06c-.84.84-1.59,1.75-2.24,2.74l-20.97,31.45-20.97-31.45c-.66-.98-1.41-1.9-2.24-2.74l-28.06-28.06,6.74-20.21c14.37,4.71,29.41,7.11,44.53,7.1Zm-215.42,149.96c0-19.56,10.61-37.58,27.7-47.08l112.79-62.66,25.07,25.07,34.92,52.38c5.5,8.25,16.64,10.48,24.89,4.98,1.97-1.31,3.66-3.01,4.98-4.98l34.92-52.38,25.07-25.07,101.54,56.41-125.63,115.16-60.76-30.38-71.81-35.9-16.06,32.11,55.04,27.52-70.89,127.6-101.78-72.7v-110.07Zm412.89,496.3H73.26v-316.46l61.37,43.84c8.07,5.76,19.28,3.89,25.04-4.18.39-.55.76-1.12,1.08-1.71l11.17-20.1,90.78,45.39c2.49,1.25,5.24,1.9,8.03,1.9h71.81c5.41,0,10.52-2.44,13.93-6.63l67.54-83.13h26.24v341.08Zm79.04-376.98h-76.1l133.19-163.93,6.74,35.97-8.16,4.66c-6.71,3.83-10.21,11.53-8.7,19.11l2.47,12.36-49.45,91.83Zm513.37,376.98h-272.02l-33.4-200.42c-.52-3.14-1.88-6.09-3.92-8.54l-86.84-104.21-32.47-162.36,92.8-53.03,13.07,65.34c.6,3.02,1.97,5.83,3.97,8.16l107.71,125.66,1.01-.86c45.05,46,115.25,56.31,171.61,25.2l38.48,12.82v292.24Zm-107.71-323.13c-59.46-.07-107.64-48.25-107.71-107.71v-109.22c29.2-4.79,55.23-21.17,72.18-45.43,21.18,29.5,55.28,46.98,91.6,46.94h51.64v107.71c-.07,59.46-48.25,107.64-107.71,107.71Z"/>
  <circle class="cls-1" cx="881.08" cy="559.4" r="17.95"/>
  <circle class="cls-1" cx="988.79" cy="559.4" r="17.95"/>
</svg>