<?xml version="1.0" encoding="UTF-8"?>
<svg id="Layer_1" data-name="Layer 1" xmlns="http://www.w3.org/2000/svg" viewBox="0 0 1080 1080">
  <defs>
    <style>
      .cls-1 {
        fill: #fff;
      }
    </style>
  </defs>
  <path class="cls-1" d="m92.18,548.4c-8.67,0-15.7-7.03-15.7-15.7v-151.37c0-8.67,7.03-15.7,15.7-15.7,31.35,0,56.85-25.49,56.85-56.83s-25.5-56.83-56.85-56.83c-8.67,0-15.7-7.03-15.7-15.7V105.82c0-20.21,16.44-36.64,36.64-36.64h130.43c8.67,0,15.7,7.03,15.7,15.7,0,31.35,25.49,56.85,56.83,56.85s56.83-25.5,56.83-56.85c0-8.67,7.03-15.7,15.7-15.7h151.37c8.67,0,15.7,7.03,15.7,15.7s-7.03,15.7-15.7,15.7h-137.07c-7.43,41.2-43.54,72.56-86.84,72.56s-79.41-31.35-86.84-72.56h-116.13c-2.89,0-5.23,2.35-5.23,5.23v116.13c41.2,7.43,72.56,43.54,72.56,86.84s-31.35,79.41-72.56,86.84v137.07c0,8.67-7.03,15.7-15.7,15.7Z"/>
  <path class="cls-1" d="m987.82,548.4h-151.37c-8.67,0-15.7-7.03-15.7-15.7,0-31.34-25.49-56.83-56.83-56.83s-56.83,25.49-56.83,56.83c0,8.67-7.03,15.7-15.7,15.7h-151.37c-8.67,0-15.7-7.03-15.7-15.7v-151.37c0-8.67,7.03-15.7,15.7-15.7,31.34,0,56.83-25.49,56.83-56.83s-25.49-56.83-56.83-56.83c-8.67,0-15.7-7.03-15.7-15.7V84.88c0-8.67,7.03-15.7,15.7-15.7h137.07c7.43-41.19,43.54-72.54,86.84-72.54s79.41,31.34,86.84,72.54h22.88c8.67,0,15.7,7.03,15.7,15.7s-7.03,15.7-15.7,15.7h-37.19c-8.67,0-15.7-7.03-15.7-15.7,0-31.34-25.49-56.83-56.83-56.83s-56.83,25.49-56.83,56.83c0,8.67-7.03,15.7-15.7,15.7h-135.67v121.36c41.19,7.43,72.53,43.54,72.53,86.84s-31.34,79.41-72.53,86.84v121.36h121.36c7.43-41.19,43.54-72.54,86.84-72.54s79.41,31.34,86.84,72.54h121.36v-135.67c0-8.67,7.03-15.7,15.7-15.7,31.34,0,56.83-25.49,56.83-56.83s-25.49-56.83-56.83-56.83c-8.67,0-15.7-7.03-15.7-15.7V105.82c0-2.89-2.35-5.23-5.23-5.23h-19.96c-8.67,0-15.7-7.03-15.7-15.7s7.03-15.7,15.7-15.7h19.96c20.21,0,36.64,16.44,36.64,36.64v116.13c41.19,7.43,72.53,43.54,72.53,86.84s-31.34,79.41-72.53,86.84v137.07c0,8.67-7.03,15.7-15.7,15.7Z"/>
  <path class="cls-1" d="m316.09,1068.75c-43.3,0-79.41-31.34-86.84-72.53h-116.13c-20.21,0-36.64-16.44-36.64-36.64v-122.7c-41.19-7.43-72.54-43.54-72.54-86.84s31.34-79.43,72.54-86.86v-130.47c0-8.67,7.03-15.7,15.7-15.7h43.03c8.67,0,15.7,7.03,15.7,15.7s-7.03,15.7-15.7,15.7h-27.33v129.07c0,8.67-7.03,15.7-15.7,15.7-31.34,0-56.83,25.5-56.83,56.85s25.49,56.83,56.83,56.83c8.67,0,15.7,7.03,15.7,15.7v137.01c0,2.89,2.35,5.23,5.23,5.23h130.43c8.67,0,15.7,7.03,15.7,15.7,0,31.34,25.49,56.83,56.83,56.83s56.83-25.49,56.83-56.83c0-8.67,7.03-15.7,15.7-15.7h135.67v-32.98c0-8.67,7.03-15.7,15.7-15.7s15.7,7.03,15.7,15.7v48.68c0,8.67-7.03,15.7-15.7,15.7h-137.07c-7.43,41.19-43.54,72.53-86.84,72.53Z"/>
  <path class="cls-1" d="m540,874.24c-8.67,0-15.7-7.03-15.7-15.7v-21.67c-41.19-7.43-72.54-43.54-72.54-86.84s31.34-79.43,72.54-86.86v-114.77h-121.45c-7.64,40.92-43.73,72.05-86.75,72.05s-79.09-31.14-86.74-72.05h-20.85c-8.67,0-15.7-7.03-15.7-15.7s7.03-15.7,15.7-15.7h35.05c8.63,0,15.65,6.97,15.7,15.6.21,31.13,25.71,56.46,56.83,56.46s56.63-25.32,56.83-56.45c.06-8.63,7.07-15.61,15.7-15.61h151.37c8.67,0,15.7,7.03,15.7,15.7v144.78c0,8.67-7.03,15.7-15.7,15.7-31.34,0-56.83,25.5-56.83,56.85s25.49,56.83,56.83,56.83c8.67,0,15.7,7.03,15.7,15.7v35.98c0,8.67-7.03,15.7-15.7,15.7Z"/>
  <path class="cls-1" d="m987.82,577.34c-8.67,0-15.7-7.03-15.7-15.7v-28.94c0-8.67,7.03-15.7,15.7-15.7s15.7,7.03,15.7,15.7v28.94c0,8.67-7.03,15.7-15.7,15.7Z"/>
  <path class="cls-1" d="m966.88,996.22h-119.15c-8.67,0-15.7-7.03-15.7-15.7,0-31.35-25.49-56.85-56.83-56.85s-56.85,25.5-56.85,56.85c0,8.67-7.03,15.7-15.7,15.7h-162.64c-8.67,0-15.7-7.03-15.7-15.7s7.03-15.7,15.7-15.7h148.33c7.43-41.2,43.55-72.56,86.86-72.56s79.41,31.35,86.84,72.56h104.84c2.89,0,5.23-2.35,5.23-5.23v-122.7c-41.2-7.43-72.56-43.54-72.56-86.84s31.35-79.43,72.56-86.86v-28.24c0-8.67,7.03-15.7,15.7-15.7s15.7,7.03,15.7,15.7v42.55c0,8.67-7.03,15.7-15.7,15.7-31.35,0-56.85,25.5-56.85,56.85s25.5,56.83,56.85,56.83c8.67,0,15.7,7.03,15.7,15.7v137.01c0,20.21-16.44,36.64-36.64,36.64Z"/>
  <path class="cls-1" d="m835.39,410.9c-3.04,0-6.11-.88-8.81-2.72-40.79-27.72-93.5-27.72-134.29,0-7.17,4.88-16.94,3.01-21.82-4.16-4.88-7.17-3.01-16.94,4.16-21.82,51.52-35.01,118.08-35.01,169.6,0,7.17,4.88,9.04,14.64,4.16,21.82-3.04,4.47-7.98,6.88-13,6.88Z"/>
  <path class="cls-1" d="m716.59,280.05c-2.24,0-4.5-.48-6.66-1.49l-52.88-24.81c-7.85-3.68-11.23-13.04-7.55-20.89,3.68-7.85,13.03-11.23,20.89-7.55l52.88,24.81c7.85,3.68,11.23,13.04,7.55,20.89-2.67,5.7-8.33,9.04-14.23,9.04Z"/>
  <path class="cls-1" d="m802.27,280.05c-5.9,0-11.56-3.34-14.23-9.04-3.68-7.85-.3-17.2,7.55-20.89l52.88-24.81c7.86-3.69,17.2-.3,20.89,7.55,3.68,7.85.3,17.2-7.55,20.89l-52.88,24.81c-2.16,1.01-4.43,1.49-6.66,1.49Z"/>
  <path class="cls-1" d="m694.08,311.93c-8.67,0-15.7-7.03-15.7-15.7v-37.68c0-8.67,7.03-15.7,15.7-15.7s15.7,7.03,15.7,15.7v37.68c0,8.67-7.03,15.7-15.7,15.7Z"/>
  <path class="cls-1" d="m824.78,311.93c-8.67,0-15.7-7.03-15.7-15.7v-37.68c0-8.67,7.03-15.7,15.7-15.7s15.7,7.03,15.7,15.7v37.68c0,8.67-7.03,15.7-15.7,15.7Z"/>
  <path class="cls-1" d="m320.57,411.07c-29.52,0-59.04-8.75-84.8-26.26-7.17-4.88-9.04-14.64-4.16-21.82,4.88-7.17,14.64-9.04,21.82-4.16,40.79,27.72,93.5,27.72,134.28,0,7.18-4.88,16.94-3.01,21.82,4.16,4.88,7.17,3.01,16.94-4.16,21.82-25.76,17.5-55.28,26.26-84.8,26.26Z"/>
  <path class="cls-1" d="m255.22,311.93c-8.67,0-15.7-7.03-15.7-15.7v-37.68c0-8.67,7.03-15.7,15.7-15.7s15.7,7.03,15.7,15.7v37.68c0,8.67-7.03,15.7-15.7,15.7Z"/>
  <path class="cls-1" d="m385.92,311.93c-8.67,0-15.7-7.03-15.7-15.7v-37.68c0-8.67,7.03-15.7,15.7-15.7s15.7,7.03,15.7,15.7v37.68c0,8.67-7.03,15.7-15.7,15.7Z"/>
  <path class="cls-1" d="m759.43,841.72c-29.52,0-59.04-8.75-84.8-26.26-7.17-4.88-9.04-14.64-4.16-21.82,4.88-7.17,14.64-9.04,21.82-4.16,40.79,27.72,93.5,27.72,134.29,0,7.18-4.88,16.94-3.01,21.82,4.16,4.88,7.17,3.01,16.94-4.16,21.82-25.76,17.5-55.28,26.26-84.8,26.26Z"/>
  <path class="cls-1" d="m694.08,742.59c-8.67,0-15.7-7.03-15.7-15.7v-37.69c0-8.67,7.03-15.7,15.7-15.7s15.7,7.03,15.7,15.7v37.69c0,8.67-7.03,15.7-15.7,15.7Z"/>
  <path class="cls-1" d="m824.78,742.59c-8.67,0-15.7-7.03-15.7-15.7v-37.69c0-8.67,7.03-15.7,15.7-15.7s15.7,7.03,15.7,15.7v37.69c0,8.67-7.03,15.7-15.7,15.7Z"/>
  <path class="cls-1" d="m320.57,841.72c-29.52,0-59.04-8.75-84.8-26.26-7.17-4.88-9.04-14.64-4.16-21.82,4.87-7.17,14.64-9.04,21.82-4.16,40.79,27.72,93.5,27.72,134.28,0,7.18-4.88,16.94-3.01,21.82,4.16,4.88,7.17,3.01,16.94-4.16,21.82-25.76,17.5-55.28,26.26-84.8,26.26Z"/>
  <path class="cls-1" d="m255.22,742.59c-8.67,0-15.7-7.03-15.7-15.7v-37.69c0-8.67,7.03-15.7,15.7-15.7s15.7,7.03,15.7,15.7v37.69c0,8.67-7.03,15.7-15.7,15.7Z"/>
  <path class="cls-1" d="m385.92,742.59c-8.67,0-15.7-7.03-15.7-15.7v-37.69c0-8.67,7.03-15.7,15.7-15.7s15.7,7.03,15.7,15.7v37.69c0,8.67-7.03,15.7-15.7,15.7Z"/>
</svg>