<?xml version="1.0" encoding="UTF-8"?>
<svg id="Layer_1" data-name="Layer 1" xmlns="http://www.w3.org/2000/svg" viewBox="0 0 1080 1080">
  <defs>
    <style>
      .cls-1 {
        fill: #fff;
      }
    </style>
  </defs>
  <g>
    <g>
      <path class="cls-1" d="m540,622.84c-25.83,0-46.85-22.69-46.85-50.58s21.02-50.58,46.85-50.58,46.85,22.69,46.85,50.58-21.01,50.58-46.85,50.58Zm0-70.22c-8.77,0-15.91,8.81-15.91,19.64s7.14,19.64,15.91,19.64,15.91-8.81,15.91-19.64-7.14-19.64-15.91-19.64Z"/>
      <path class="cls-1" d="m447.62,566.72c-8.54,0-15.47-6.92-15.47-15.47,0-5.97-4.86-10.83-10.83-10.83s-10.83,4.86-10.83,10.83c0,8.54-6.93,15.47-15.47,15.47s-15.47-6.92-15.47-15.47c0-23.03,18.74-41.77,41.77-41.77s41.77,18.74,41.77,41.77c0,8.54-6.93,15.47-15.47,15.47Z"/>
      <path class="cls-1" d="m682.72,566.72c-8.54,0-15.47-6.92-15.47-15.47,0-5.97-4.86-10.83-10.83-10.83s-10.83,4.86-10.83,10.83c0,8.54-6.92,15.47-15.47,15.47s-15.47-6.92-15.47-15.47c0-23.03,18.74-41.77,41.77-41.77s41.77,18.74,41.77,41.77c0,8.54-6.92,15.47-15.47,15.47Z"/>
    </g>
    <path class="cls-1" d="m590.04,170.26h-100.08c-8.54,0-15.47-6.93-15.47-15.47V18.83c0-8.54,6.93-15.47,15.47-15.47h100.08c8.54,0,15.47,6.93,15.47,15.47v135.96c0,8.54-6.92,15.47-15.47,15.47Zm-84.62-30.94h69.15V34.3h-69.15v105.02Z"/>
    <path class="cls-1" d="m153.53,266.49h-68.38c-35.06,0-63.58-28.52-63.58-63.58s28.52-63.58,63.58-63.58h99.28c6.59,0,12.45,4.17,14.61,10.4,2.16,6.22.14,13.13-5.03,17.21-15.9,12.55-25.02,31.34-25.02,51.54v32.54c0,8.54-6.93,15.47-15.47,15.47Zm-68.38-96.23c-18,0-32.64,14.64-32.64,32.64s14.64,32.64,32.64,32.64h52.91v-17.07c0-17.23,4.51-33.77,12.85-48.22h-65.76Z"/>
    <path class="cls-1" d="m994.85,266.49h-68.38c-8.54,0-15.47-6.93-15.47-15.47v-32.55c0-20.2-9.12-38.99-25.02-51.54-5.17-4.08-7.19-10.99-5.03-17.21,2.16-6.22,8.02-10.4,14.61-10.4h99.29c35.06,0,63.58,28.52,63.58,63.59s-28.52,63.58-63.58,63.58Zm-52.91-30.94h52.91c18,0,32.64-14.64,32.64-32.64s-14.64-32.65-32.64-32.65h-65.76c8.35,14.45,12.85,30.98,12.85,48.22v17.08Z"/>
    <path class="cls-1" d="m764.25,266.49h-448.49c-8.54,0-15.47-6.93-15.47-15.47v-32.55c0-20.2-9.12-38.99-25.02-51.54-5.17-4.08-7.19-10.99-5.03-17.21,2.16-6.22,8.02-10.4,14.61-10.4h510.31c6.59,0,12.45,4.17,14.61,10.4,2.16,6.22.14,13.13-5.03,17.21-15.9,12.55-25.02,31.34-25.02,51.54v32.55c0,8.54-6.92,15.47-15.47,15.47Zm-433.02-30.94h417.55v-17.08c0-17.23,4.51-33.77,12.85-48.22h-443.26c8.34,14.45,12.85,30.98,12.85,48.22v17.08Z"/>
    <path class="cls-1" d="m267.83,604.28h-114.3c-8.54,0-15.47-6.92-15.47-15.47V218.48c0-53.26,43.33-96.58,96.58-96.58s96.58,43.33,96.58,96.58v209.29c0,3.14-.95,6.2-2.74,8.79-29.62,42.92-45.28,93.29-45.28,145.68,0,2.07.03,4.15.08,6.21.1,4.17-1.48,8.2-4.39,11.18-2.91,2.98-6.9,4.66-11.07,4.66Zm-98.83-30.94h83.41c1.63-53.87,18.08-105.56,47.88-150.33v-204.54c0-36.2-29.45-65.64-65.64-65.64s-65.64,29.45-65.64,65.64v354.87Z"/>
    <path class="cls-1" d="m926.47,604.28h-114.3c-4.17,0-8.16-1.68-11.07-4.66-2.91-2.98-4.5-7.01-4.4-11.18.05-2.07.08-4.14.08-6.21,0-52.39-15.65-102.76-45.27-145.68-1.78-2.58-2.74-5.65-2.74-8.79v-209.29c0-53.26,43.33-96.58,96.58-96.58s96.58,43.33,96.58,96.58v370.33c0,8.54-6.92,15.47-15.47,15.47Zm-98.88-30.94h83.41V218.48c0-36.2-29.45-65.64-65.64-65.64s-65.64,29.45-65.64,65.64v204.54c29.79,44.76,46.25,96.46,47.88,150.33Z"/>
    <path class="cls-1" d="m704.83,480.23c-20.57,0-40.07-7.71-54.94-21.23-14.87,13.52-34.37,21.23-54.94,21.23s-40.07-7.71-54.94-21.23c-14.87,13.52-34.37,21.23-54.94,21.23s-40.07-7.71-54.94-21.23c-14.87,13.52-34.37,21.23-54.94,21.23-31.34,0-59.43-17.48-73.29-45.63-2.48-5.03-2.04-11.01,1.15-15.62,53.81-77.94,142.4-124.48,236.98-124.48,38.84,0,76.53,7.62,112.04,22.64,7.87,3.33,11.55,12.41,8.22,20.28-3.33,7.87-12.42,11.54-20.28,8.22-31.67-13.4-65.31-20.2-99.98-20.2-81.12,0-157.32,38.36-205.76,103.11,9.46,12.97,24.47,20.74,40.93,20.74s32.65-8.38,42.12-22.43c2.88-4.27,7.68-6.82,12.83-6.82h0c5.15,0,9.95,2.56,12.83,6.82,9.46,14.04,25.21,22.43,42.11,22.43s32.65-8.38,42.12-22.43c2.88-4.27,7.68-6.82,12.83-6.82h0c5.14,0,9.95,2.56,12.83,6.82,9.46,14.04,25.21,22.43,42.11,22.43s32.65-8.38,42.12-22.43c2.87-4.27,7.68-6.82,12.83-6.82h0c5.14,0,9.95,2.56,12.83,6.82,9.46,14.04,25.21,22.43,42.11,22.43s31.48-7.77,40.93-20.74c-15.66-20.93-34.36-39.3-55.71-54.7-6.93-5-8.49-14.67-3.5-21.6,5-6.93,14.67-8.49,21.6-3.5,26.89,19.4,50.05,43.02,68.82,70.21,3.19,4.61,3.63,10.59,1.15,15.62-13.86,28.15-41.95,45.63-73.29,45.63Z"/>
    <path class="cls-1" d="m540,964.04c-81.79,0-148.59-63.97-152.1-145.64-.24-5.65,2.62-10.98,7.46-13.9,4.84-2.93,10.89-2.98,15.77-.13,38.97,22.66,83.53,34.63,128.87,34.63s89.89-11.98,128.87-34.63c4.89-2.84,10.93-2.79,15.78.13,4.84,2.92,7.7,8.25,7.45,13.9-3.5,81.67-70.31,145.64-152.1,145.64Zm-116.66-118.76c14.5,51,61.27,87.83,116.66,87.83s102.16-36.82,116.66-87.83c-36.55,16.2-76.33,24.66-116.66,24.66s-80.11-8.46-116.66-24.66Z"/>
    <path class="cls-1" d="m540,869.93c-78.94,0-152.58-31.34-207.34-88.25-5.92-6.16-5.74-15.95.42-21.87,6.16-5.92,15.95-5.73,21.87.42,48.88,50.79,114.6,78.76,185.05,78.76,141.59,0,256.79-115.18,256.79-256.77,0-44.85-11.47-88.22-33.36-126.7-15.1,15.62-36,24.7-58.6,24.7-20.58,0-40.08-7.71-54.94-21.23-14.87,13.52-34.37,21.23-54.94,21.23s-40.07-7.71-54.94-21.23c-14.87,13.52-34.37,21.23-54.94,21.23s-40.07-7.71-54.94-21.23c-14.87,13.52-34.37,21.23-54.94,21.23-22.59,0-43.5-9.09-58.6-24.7-21.89,38.48-33.36,81.86-33.36,126.7s12.79,92.9,37,132.84c4.43,7.31,2.09,16.82-5.21,21.25-7.31,4.43-16.82,2.09-21.25-5.21-27.13-44.78-41.48-96.26-41.48-148.88,0-58.69,17.55-115.14,50.75-163.25,3.12-4.52,8.39-7.04,13.86-6.64,5.47.4,10.32,3.67,12.75,8.59,8.62,17.49,26.07,28.36,45.54,28.36,16.91,0,32.65-8.38,42.12-22.43,2.87-4.27,7.68-6.82,12.83-6.82h0c5.15,0,9.95,2.56,12.83,6.82,9.46,14.04,25.21,22.43,42.11,22.43s32.65-8.38,42.12-22.43c2.88-4.27,7.68-6.82,12.83-6.82h0c5.14,0,9.95,2.56,12.83,6.82,9.46,14.04,25.21,22.43,42.11,22.43s32.65-8.38,42.12-22.43c2.87-4.27,7.68-6.82,12.83-6.82h0c5.14,0,9.95,2.56,12.83,6.82,9.46,14.04,25.21,22.43,42.11,22.43,19.47,0,36.92-10.87,45.54-28.36,2.43-4.92,7.28-8.19,12.75-8.59,5.46-.4,10.75,2.13,13.86,6.64,33.2,48.11,50.75,104.56,50.75,163.25,0,158.64-129.07,287.7-287.73,287.7Z"/>
  </g>
  <path class="cls-1" d="m831.72,1059.4H248.28c-8.54,0-15.47-6.92-15.47-15.47v-133.56c-60.3-57.24-94.75-137.21-94.75-220.53v-101.03c0-8.54,6.93-15.47,15.47-15.47s15.47,6.92,15.47,15.47v101.03c0,76.92,32.68,150.66,89.67,202.32,3.23,2.93,5.08,7.09,5.08,11.46v124.84h552.51v-124.84c0-4.37,1.85-8.53,5.08-11.46,56.99-51.66,89.67-125.4,89.67-202.32v-101.03c0-8.54,6.92-15.47,15.47-15.47s15.47,6.92,15.47,15.47v101.03c0,83.32-34.45,163.29-94.75,220.53v133.56c0,8.54-6.92,15.47-15.47,15.47Z"/>
</svg>