<?xml version="1.0" encoding="UTF-8"?>
<svg id="Layer_1" data-name="Layer 1" xmlns="http://www.w3.org/2000/svg" viewBox="0 0 1080 1080">
  <defs>
    <style>
      .cls-1 {
        fill: #fff;
      }
    </style>
  </defs>
  <g id="Outline">
    <path class="cls-1" d="m1057.91,972.42h-35.86v-125.52c0-9.9-8.03-17.93-17.93-17.93h-233.1v35.86h215.17v35.86h-233.1c-9.9,0-17.93,8.03-17.93,17.93s8.03,17.93,17.93,17.93h233.1v35.86h-430.34v-35.86h125.52c9.9,0,17.93-8.03,17.93-17.93s-8.03-17.93-17.93-17.93h-122.22c7.57-21.42,27.78-35.77,50.49-35.86h124.35v-35.86h-124.35c-28.33.08-54.94,13.59-71.72,36.42-16.78-22.83-43.39-36.34-71.72-36.42H71.72c-9.9,0-17.93,8.03-17.93,17.93v125.52H17.93C8.03,972.42,0,980.44,0,990.35v71.72C0,1071.97,8.03,1080,17.93,1080h197.24v-35.86H35.86v-35.86h1004.12v35.86H251.03v35.86h806.88c9.9,0,17.93-8.03,17.93-17.93v-71.72c0-9.9-8.03-17.93-17.93-17.93Zm-968.26-35.86h233.1c9.9,0,17.93-8.03,17.93-17.93s-8.03-17.93-17.93-17.93H89.65v-35.86h376.55c22.71.09,42.92,14.45,50.49,35.86h-122.22c-9.9,0-17.93,8.03-17.93,17.93s8.03,17.93,17.93,17.93h125.52v35.86H89.65v-35.86Z"/>
    <path class="cls-1" d="m830.48,100.71L543.59,5.07c-3.68-1.23-7.65-1.23-11.33,0L245.36,100.71c-9.39,3.14-14.46,13.3-11.32,22.69,1.86,5.57,6.33,9.87,11.96,11.52l112.61,32.85v105.34c.08,8.57,6.29,15.85,14.74,17.29-16.93,25.42-27.65,54.47-31.31,84.79-9.08,77.81,28.54,153.66,95.98,193.51,17.15,9.57,27.89,27.57,28.17,47.21v123.4c0,39.61,32.11,71.72,71.72,71.72s71.72-32.11,71.72-71.72v-123.36c.33-19.72,11.14-37.76,28.37-47.36,60.06-35.59,96.97-100.15,97.15-169.97.1-38.49-11.12-76.15-32.28-108.3,8.28-1.58,14.28-8.79,14.34-17.21v-105.34l53.79-15.69v49.31c0,9.9,8.03,17.93,17.93,17.93s17.93-8.03,17.93-17.93v-59.76l22.95-6.71c9.5-2.78,14.95-12.75,12.16-22.25-1.65-5.63-5.95-10.1-11.52-11.96h0Zm-256.7,602.74h-71.72v-35.86h71.72v35.86Zm-35.86,71.72c-19.81,0-35.86-16.06-35.86-35.86h71.72c0,19.81-16.06,35.86-35.86,35.86Zm81.87-237.47c-28.22,15.98-45.76,45.82-46.01,78.25v15.78h-17.93v-128.06c31.57-8.15,53.67-36.57,53.79-69.18v-17.93h-35.86v17.93c0,19.81-16.06,35.86-35.86,35.86s-35.86-16.06-35.86-35.86v-17.93h-35.86v17.93c.12,32.61,22.22,61.03,53.79,69.18v128.06h-17.93v-15.81c-.2-32.37-17.7-62.17-45.87-78.12-55.2-32.66-85.98-94.77-78.54-158.47,4.02-32.89,18.12-63.72,40.36-88.27h239.93c26.64,29.5,41.38,67.84,41.35,107.58-.15,57.13-30.36,109.96-79.5,139.07Zm61.57-282.52h-286.89v-76.96l138.43,40.38c3.28.96,6.76.96,10.04,0l138.43-40.38v76.96Zm-143.45-72.48l-226.77-66.13,226.77-75.6,226.75,75.6-226.75,66.13Z"/>
    <path class="cls-1" d="m896.54,398.63c0-9.9-8.03-17.93-17.93-17.93h-53.79c-9.9,0-17.93,8.03-17.93,17.93s8.03,17.93,17.93,17.93h53.79c9.9,0,17.93-8.03,17.93-17.93Z"/>
    <path class="cls-1" d="m179.31,398.63c0,9.9,8.03,17.93,17.93,17.93h53.79c9.9,0,17.93-8.03,17.93-17.93s-8.03-17.93-17.93-17.93h-53.79c-9.9,0-17.93,8.03-17.93,17.93Z"/>
    <path class="cls-1" d="m804.34,506.57c-8.68-4.77-19.58-1.6-24.35,7.08-4.77,8.68-1.6,19.58,7.08,24.35.57.31,1.15.59,1.75.84l48.41,23.31c9.15,3.8,19.64-.54,23.44-9.68,3.51-8.45.09-18.19-7.93-22.59l-48.41-23.31Z"/>
    <path class="cls-1" d="m214.61,243.49c-4.28,8.92-.53,19.63,8.39,23.92l48.5,23.31c9.15,3.8,19.64-.54,23.44-9.68,3.51-8.45.09-18.19-7.93-22.59l-48.41-23.31c-8.91-4.33-19.64-.61-23.96,8.3,0,.02-.02.04-.03.06Z"/>
    <path class="cls-1" d="m841.99,243.96l-49.15,21.84c-9.05,4.02-13.13,14.61-9.11,23.66,2.88,6.49,9.31,10.67,16.41,10.66,2.5,0,4.98-.52,7.26-1.54l49.15-21.88c9.06-4.02,13.14-14.62,9.12-23.68-4.02-9.06-14.62-13.14-23.68-9.12v.05Z"/>
    <path class="cls-1" d="m268.44,498.69l-49.17,21.88c-9.06,4.03-13.13,14.63-9.11,23.69,4.03,9.06,14.63,13.13,23.69,9.11l49.15-21.84c9.05-4.02,13.13-14.62,9.11-23.67-4.02-9.05-14.62-13.13-23.67-9.11v-.05Z"/>
  </g>
</svg>