<?xml version="1.0" encoding="UTF-8"?>
<svg id="Layer_1" data-name="Layer 1" xmlns="http://www.w3.org/2000/svg" viewBox="0 0 1080 1080">
  <defs>
    <style>
      .cls-1 {
        fill: #fff;
      }
    </style>
  </defs>
  <path class="cls-1" d="m1054.08,795.3h-63.91c15.6-13.15,27.41-31.7,33.63-57.88,4.1-17.27,2.24-33.4.26-50.47-2.27-19.59-4.61-39.85,1.27-66.1h0c4.52-20.19,1.23-35.34-9.79-45.03-13.34-11.73-35.12-12.23-64.75-1.47-9.39,3.42-17.79,8.57-24.94,15.14-17.71-6.68-36.8-9.14-55.86-7.11-34.56,3.69-66.54,24.42-86.91,54.57-20.75-13.96-46.16-25.07-74.56-32.49-8.44-2.21-17.06,2.85-19.26,11.28-2.2,8.43,2.85,17.06,11.28,19.26,26.49,6.92,49.74,17.3,68.01,30.27-.49,1.32-.96,2.65-1.41,3.99-5.2,15.82-7.1,32.2-5.47,47.34,3.32,31.12,16.34,58.46,36.37,78.7h-154.43v-49.08h41.96c8.72,0,15.78-7.06,15.78-15.78s-7.07-15.78-15.78-15.78h-181.65v-58.98c1.9-.84,3.87-1.83,5.96-3.06,30.6-17.88,74.49-27.7,120.44-26.96.09,0,.17,0,.26,0,8.6,0,15.63-6.9,15.78-15.52.14-8.72-6.81-15.9-15.52-16.04-18.2-.29-35.92.89-52.83,3.4v-83.88c13.99-10.23,27.2-23.46,37.44-41.22,15.09-26.18,15.69-40.52,16.78-66.56.17-4.17.37-8.73.63-13.8,0-.14,0-.28,0-.42,0-.14.02-.27.02-.41v-38.71c0-45.9-37.34-83.25-83.24-83.25h-5.52c23.38-23.9,39.02-54.89,39.02-82.76v-32.39c0-40.68-13.03-75.25-37.67-99.97-22.08-22.14-51.8-34.61-83.67-35.12-.17,0-.33,0-.5,0-31.88.5-61.6,12.97-83.7,35.11-24.67,24.72-37.71,59.29-37.71,99.97v32.39c0,27.85,15.64,58.85,39.04,82.76h-5.54c-40.92,0-61.07,25.01-72.67,43.83l-91.89,149.23c-10.39-18.66-36.16-58.8-66.62-61.14-8.48-.64-19.11-.38-26.2,7.47-7.46,8.27-5.59,18.62-4.22,26.17l22.2,126.61c1.97,11.23,3.52,20.09,10.94,26.12,7.76,6.31,16.7,5.36,27.05,4.25,2.12-.23,4.51-.48,7.22-.73,43.8-4.04,77.03,8.7,89.27,14.36,13.26,6.13,25,12.8,35.39,19.69v84.59c-.49,0-.95,0-1.45,0h-126.99c-18.56,0-19.06-1.06-21.46-6.1-3.09-6.54-31.29-64.03-69.73-66.98-8.5-.66-19.17-.39-26.26,7.49-7.46,8.29-5.62,18.28-4.15,26.31l21.87,124.89H28.48c-14.26,0-25.86,11.6-25.86,25.86v123.71c0,14.29,11.6,25.92,25.86,25.92h39.33v29.31c0,33.57,27.31,60.88,60.88,60.88h825.18c33.57,0,60.88-27.31,60.88-60.88v-29.31h39.33c14.29,0,25.92-11.63,25.92-25.92v-123.71c0-14.26-11.63-25.86-25.92-25.86h0Zm-110.75-93.83c-12.7-27.59-15.23-53.46-7.14-72.84,4.95-11.86,13.73-20.37,25.39-24.61,12.55-4.56,21.02-5.83,26.29-5.83,4,0,6.16.74,6.84,1.34.54.48,2.1,4.32-.17,14.43h0c-7.06,31.47-4.16,56.51-1.83,76.63,1.72,14.86,3.2,27.68.39,39.55-8.96,37.66-30.77,55.81-82.2,62.28.13-.12.27-.23.41-.35,43.65-37.68,41.51-70.07,32.03-90.59Zm-150.27,11.78c-1.15-10.73.26-22.53,4.05-34.08,9.84-29.56,37.22-61.24,76.23-65.4,11.4-1.22,22.81-.22,33.68,2.79-11.49,27.61-8.78,62.44,7.64,98.13,15.45,33.45-43.34,69.02-61.99,79.27-32.96-12.5-55.59-42.87-59.62-80.7h0Zm-181.01,32.97v49.08h-137.36c-12.47-1.19-22.25-11.71-22.25-24.48,0-13.56,11.03-24.6,24.6-24.6h135.01Zm-65.61-142.22c-19.34,5.2-37.08,12.37-52.49,21.37-.3.18-.58.34-.85.49-1.76-2.07-4.03-4.99-6.13-7.69-2.57-3.29-5.76-7.39-9.6-12.09-8.18-9.97-19.88-21.94-31.95-32.93l86.93-35.07c4.54-1.83,9.27-3.87,14.09-6.11v72.03h0Zm-137.06-50.34c-4.81,1.93-10.12,1.84-14.94-.22-4.82-2.07-8.54-5.85-10.48-10.71-1.94-4.81-1.87-10.12.2-14.94,2.07-4.84,5.87-8.57,10.7-10.5.14-.05.28-.12.42-.17l79.73-34.55,18.74,37.05-84.37,34.04Zm52.16-503.08c39.27.73,81.16,27.54,88.8,84.47-34.48-6.57-104.82-20.65-112.99-22.77,0,0,0,0-.01,0-4.58-1.18-8.81-1.7-12.75-1.7-14.92,0-25.54,7.39-34.44,13.57-5.46,3.8-10.74,7.47-17.37,10.16,7.91-56.42,49.64-83,88.76-83.73h0Zm-90.09,135.91v-18.81c16.91-3.87,28.09-11.61,36.73-17.62,10.35-7.2,13.68-9.19,21.26-7.23h0c5.66,1.46,87.51,18.21,122.14,24.58v19.08c0,27.13-25.89,66.88-61.58,83.87-.5.2-.99.42-1.46.66-1.96.89-3.93,1.73-5.94,2.48-8.2,3-14.7,4.34-21.06,4.34s-13.02-1.38-21.04-4.32c-1.92-.71-3.83-1.52-5.72-2.39-.51-.27-1.03-.51-1.57-.73-33.16-15.91-61.77-53.98-61.77-83.91h0Zm126.51,114.86v4.73c0,22.97-16.33,41.66-36.41,41.66s-36.47-18.69-36.47-41.66v-4.74c1.49.63,2.99,1.22,4.5,1.78,11.68,4.28,21.84,6.27,31.97,6.27s20.23-1.99,31.98-6.3c1.48-.55,2.96-1.14,4.43-1.75h0Zm-170.37,28.29c12.62-20.47,25.89-28.83,45.8-28.83h20.13v5.28c0,40.38,30.52,73.23,68.04,73.23s67.97-32.85,67.97-73.23v-5.28h20.13c28.5,0,51.68,23.19,51.68,51.68v38.31c-.26,5.02-.45,9.56-.63,13.71-1.05,25.07-1.37,32.64-12.59,52.12-12.77,22.14-32.32,37.51-64.99,51.1l-19.24-38.03c7.35-3.84,12.58-7.91,19.97-15.66.78-.82,1.48-1.72,2.06-2.69l19.03-31.32c4.53-7.45,2.16-17.16-5.29-21.68-7.45-4.53-17.16-2.16-21.68,5.29l-18.12,29.82c-6.02,6.18-8.77,7.7-17.85,11.67l-99.06,42.92c-8.88,3.59-16.37,9.52-21.91,17.09-14.09-7.77-29.29-13.46-44.98-17.71l32.13-52.24c4.57-7.42,2.25-17.14-5.17-21.71-7.42-4.56-17.14-2.25-21.71,5.17l-38.04,61.85c-15.25-2.45-30.55-3.99-45.38-5.17l89.72-145.71Zm-103.61,230.93c-14.18-1.86-30.23-2.55-47.67-.94-2.88.26-9.49.97-10.38,1.06-.32-1.69-22.3-127.02-22.3-127.02,12.47,5.3,31.25,29.85,41.56,51.49,5.86,12.4,12.09,17.66,20.43,19.65,9.82,1.26,16.98,1.05,20.21,1.28,4.17.3,8.41.63,12.67.98l-14.52,53.5Zm111.44,89.64c24.76,23.72,35.44,45.77,36.77,54.08-4.76,2.43-17.1,4.05-36.77,4.84v-58.92Zm-132.41,91.06h99.4c61.26,0,82.35-3.62,94-16.12,3.8-4.08,8.16-11.2,7.4-21.97-1.99-29.13-42.18-89.44-122.1-126.41-5.55-2.56-14.71-6.35-26.76-9.79l15.32-56.47c28.91,4.04,57.49,11.1,80.73,25.34.04,6.31,1.26,12.62,3.68,18.63,5.05,12.65,14.76,22.58,27.34,27.97,6.5,2.78,13.34,4.18,20.18,4.18,3.2,0,6.4-.31,9.57-.92,14.77,12.16,31.28,28.28,41.19,40.35,3.59,4.4,6.53,8.18,9.13,11.51,3.44,4.41,6.75,8.65,10.28,12.16v65.12c-28.78,2.39-51.48,26.56-51.48,55.95,0,8.77,2.02,17.08,5.63,24.48h-223.52v-54.04Zm-77.58-24.17c10.63,22.41,29,24.04,46.02,24.16v54.05h-63.71l-22.09-126.27c12.56,4.93,30.23,27.81,39.79,48.07h0Zm923.03,222.14h-469.46c-8.72,0-15.78,7.06-15.78,15.78s7.07,15.78,15.78,15.78h404.2v29.31c0,16.16-13.15,29.31-29.31,29.31H128.69c-16.16,0-29.31-13.15-29.31-29.31v-29.31h410.17c8.72,0,15.78-7.06,15.78-15.78s-7.07-15.78-15.78-15.78H34.18v-112.37h60.21s.03,0,.05,0c.01,0,954,0,954,0v112.37Z"/>
</svg>