<?xml version="1.0" encoding="UTF-8"?>
<svg id="Layer_1" data-name="Layer 1" xmlns="http://www.w3.org/2000/svg" viewBox="0 0 1080 1080">
  <defs>
    <style>
      .cls-1 {
        fill: #231f20;
      }
    </style>
  </defs>
  <path class="cls-1" d="m902.78,539.46c11.34,0,21.03-.18,30.71.04,21.45.48,33.4,10.72,37.5,31.75,24.59,126.19,49.17,252.39,73.78,378.58,7.11,36.47-16.41,64.75-54.48,64.79-114.34.12-228.68.09-343.02-.06-7.08,0-12.16,1.52-17.34,7.11-12.06,13.01-28.47,18.4-45.36,22.06-36.41,7.87-72.8,7.77-108.02-4.78-12.15-4.33-22.34-13.98-33.75-20.64-3.67-2.14-8.39-3.48-12.64-3.49-93.89-.19-187.77-.15-281.66-.15-20.79,0-41.58.13-62.37-.03-38.47-.3-61.13-28.55-53.76-66.17,24.52-125.18,48.88-250.4,73.24-375.61,4.6-23.64,15.93-33.22,40.07-33.39,9.01-.06,18.02-.01,28.25-.01.88-28.44,14.66-44.4,43.08-44.65-1.65-14.42-4.02-27.85-4.56-41.36-1.01-25.04,6.06-48.23,17.98-70.18,2.36-4.35,3.79-10,3.47-14.9-2-30.5,10.38-53.03,36.03-69.09,3.32-2.08,6.58-6.39,7.31-10.17,9.72-50.56,51.53-79.68,102.54-71.3,3.01.49,7.74-.59,9.5-2.73,33.58-40.77,98.15-57.55,154.62-23.19,14.95-12.74,32.21-19.66,52.38-18.33,20.19,1.34,36.29,10.24,49.76,25.11,3.09,3.41,8.51,6.29,13.03,6.58,69.17,4.44,119.46,45.37,137.86,112.22.98,3.56,5.1,7.59,8.67,8.89,36.07,13.15,55.11,48.08,46.07,85.13-.82,3.35-1.62,7.73-.18,10.44,12.1,22.76,15.66,46.74,11.03,73.09,27.51,1.38,39.33,17.62,40.24,44.44Zm-119.19,89.21c4.84,11.84,10.46,22.34,13.31,33.54,2.4,9.44,3.54,20.06,1.81,29.53-3.67,20.07-16.8,33.43-36.32,39.12-20.45,5.96-38.81.44-53.25-14.9-12.06-12.82-25.98-21.58-42.52-27.41-13.51-4.76-27.14-10.23-39.14-17.87-10.77-6.86-23.52-15.38-28.02-26.23-7.77-18.76-20.71-23.87-38.21-25.94-5.73-.68-9.73-.58-14.42,3.25-17.63,14.4-37.99,22.46-60.83,23.34-42.08,1.63-74.59-15.6-97.61-50.68-2.65-4.04-4.63-6.2-10.16-5.27-58.04,9.8-104.79-9.24-139.94-56.23-7.41-9.91-15.8-3.71-23.55-2.65-2.58.35-5.68,6.28-6.32,10.04-16.71,98.72-33.14,197.5-49.59,296.27-3.61,21.68-7.1,43.38-10.87,66.42,124.84-40.16,248.56-40.04,373.22.04,0-5.67,0-9.64,0-13.61,0-65.71-.05-131.43.06-197.14.02-13.48,6.83-21.36,17.52-21.13,10.38.23,16.51,7.79,16.86,20.83.07,2.68.02,5.36.02,8.05,0,63.37,0,126.73,0,190.1v12.94c124.97-40.18,248.69-40.16,372.3-.41.29-2.08.54-2.75.44-3.36-20.02-120.58-40.08-241.15-60.01-361.75-.83-5.03-2.57-7.38-7.95-8.16-10.48-1.51-17.94,2.54-21.19,15.35-8.75,34.49-27.33,62.23-55.65,83.9Zm-121.02-387.81c-.35,2.19-.57,3.82-.88,5.44-1.79,9.15-7.37,14.1-16.66,14.37-8.87.25-15.14-5.57-16.93-15.28-.42-2.3-.54-4.66-.87-6.98-2.58-17.82-17.4-30.55-35.54-30.54-18.17.01-32.84,12.64-35.49,30.58-.44,2.98-.61,6.03-1.3,8.95-2.04,8.63-8.98,13.81-17.56,13.31-8.46-.49-15.12-6.61-15.64-15.43-.31-5.28-.3-11.04,1.48-15.88,2.69-7.32-.45-10.12-6.29-13.05-43.81-22.02-98.04-.85-115.53,45.3-1.3,3.44-2.24,7.03-3.73,10.38-3.78,8.53-12.27,12.59-20.53,10.05-8.45-2.6-13.24-10.42-11.77-19.64.57-3.57,1.71-7.05,2.6-10.6-25.28-5.02-53.74,15.74-54.59,39.69,2.17.49,4.42.96,6.65,1.5,16.21,3.92,29.69,12.22,39.76,25.58,5.95,7.9,4.91,17.48-2.02,23.5-7.05,6.13-16.28,5.72-23.54-1.12-1.7-1.6-3.12-3.51-4.78-5.17-10.89-10.88-25.77-13.7-39.82-7.6-13.33,5.79-21.69,18.75-21.53,33.45.15,13.57,6.83,23.24,17.55,31.04,8.46,6.15,10.05,16.14,4.76,23.86-5.56,8.11-15.58,9.6-24.82,3.54-3.49-2.29-6.78-4.9-11.05-8.02-14.34,39.71-9.89,75.74,16.51,107.51,26.43,31.8,61.13,42.52,101.58,35.94q.66-15.73-12.84-20.2c-24-7.95-41.09-31.28-40.85-55.37.08-8.33,3.54-14.3,11.21-17.31,11.04-4.34,21.36,3.11,23.09,16.32,2.04,15.59,9.65,23.27,23.84,24.19,3.57-7.23,6.51-14.79,10.8-21.5,4.9-7.65,12.5-10.05,21.05-6.25,8,3.55,11.55,10.13,9.84,18.77-.69,3.51-2.8,6.76-4.35,10.09-12.31,26.55-10.76,52.27,6.19,76.14,26.34,37.1,78.96,40.99,111.68,8.42,7.09-7.06,14.14-11.1,24.06-7.37,27.29,10.27,54.91,10.72,82.94,3.21,11.59-3.11,20.69,1.47,23.46,11.05,2.87,9.93-2.99,18.71-15.01,22-7,1.91-14.13,3.35-24.14,5.68,7.59,6.71,12.82,12.97,19.45,16.82,10.07,5.85,20.84,10.75,31.79,14.76,17.76,6.5,34.98,13.65,48.83,27.02,4.1,3.95,7.7,8.48,12.09,12.07,6.55,5.36,14.07,6.34,21.52,1.9,7.49-4.47,10.66-11.76,8.2-19.84-3.16-10.38-7.89-20.28-11.79-30.02-11.8,3-21.73,6.09-31.89,7.91-8.05,1.44-14.57-2.36-17.88-9.97-3.09-7.12-2.12-14.37,4.17-19.11,4.06-3.06,9.52-4.71,14.61-5.89,16.97-3.92,32.32-11.08,45.6-22.27,6.11-5.15,11.47-11.19,18.61-18.25-3.81,0-4.83-.17-5.78.02-32.67,6.78-62.47.71-89.42-19.34-2.33-1.74-6.79-1.81-9.92-1.1-25,5.62-45.8-1.23-62.11-20.8-10.77-12.93-11.24-23.65-2.35-31,9.22-7.62,17.58-5.02,28.77,8.96,8.05,10.06,21.38,12.93,32.53,7.02,10.6-5.62,15.46-17.96,11.83-30.15-.67-2.24-1.78-4.36-2.36-6.62-2.15-8.41,1.69-16.32,9.54-19.93,7.61-3.5,16.54-1.09,21.15,6.25,2.1,3.35,3.57,7.22,4.71,11.04,5.37,18.01,2.05,34.91-7.56,50.55,25.97,19.72,65.22,16.98,90.43-5.82,22.03-19.93,31.01-57.12,18.57-76.99-4.09,2.27-7.98,5.08-12.31,6.69-7.62,2.83-14.74,1.44-19.84-5.28-4.72-6.23-5.11-13.31-.58-19.63,2.42-3.37,6.41-5.73,9.98-8.11,12.58-8.39,18.91-20.05,17-35.04-3.44-26.97-31.29-39.78-55.51-25.98-11.5,6.56-20.82,5.3-26.42-3.57-5.75-9.11-2.51-19.09,8.87-25.95,5.34-3.22,11.1-5.73,16.52-8.48-8.15-45.18-55.82-85.57-100.04-84.39Zm-27.63,675.78c1.49,18.82,3.36,35.75,3.96,52.72.31,8.71,3.09,11.17,11.86,11.15,112.3-.3,224.6-.18,336.89-.21,20.49,0,26.63-7.72,22.74-27.6-19.26-98.55-38.4-197.12-57.61-295.68-5.36-27.51-10.82-54.99-16.24-82.49h-26.94c.18,1.99.22,3.29.43,4.56,17.29,104.37,34.48,208.75,51.98,313.09,5.32,31.71-16.69,52.08-47.34,42.44-66.57-20.94-134.68-29.56-204.25-25.76-24.96,1.37-49.79,5.06-75.5,7.78Zm-193.04,0c-26.36-2.72-51.87-6.4-77.5-7.79-69.59-3.75-137.63,5.5-204.2,26.26-27.7,8.64-50.59-11.51-45.91-39.95,10.82-65.73,21.97-131.41,32.93-197.12,6.82-40.9,13.53-81.81,20.42-123.48h-27.16c-.89,3.94-1.72,7.18-2.36,10.46-17.94,91.98-35.87,183.97-53.8,275.95-6.15,31.54-12.37,63.06-18.42,94.62-2.3,12.03,1.3,20.39,10.33,23.17,4.37,1.35,9.24,1.48,13.89,1.49,111.62.08,223.25.06,334.87.06,2.35,0,4.93.57,6.97-.23,2.05-.81,4.94-2.86,5.11-4.59,1.83-18.92,3.19-37.89,4.83-58.84Zm159.02,8.26c-15.64,5.23-30.31,8.9-43.87,15.03-12.99,5.87-24.35,5.74-37.3-.03-13.58-6.05-28.22-9.75-43.77-14.94-1.95,22.01-3.31,42.31-5.75,62.48-1.04,8.61,2.06,12.93,9.45,16.23,19.42,8.66,39.97,10.96,60.8,10.74,19.8-.2,39.55-2.26,57.54-11.52,3.6-1.85,8.47-6.43,8.32-9.53-1.12-22.29-3.38-44.53-5.42-68.46Z"/>
  <path class="cls-1" d="m390.18,133.25c-2.44-2.02-8.96-4.93-11.35-9.85-7.74-15.91-14.28-32.44-20.66-48.98-3.57-9.24.61-18.23,8.93-21.84,8.85-3.84,18.25-.51,22.52,9.08,7.06,15.89,13.84,31.93,19.92,48.21,4.42,11.81-3.76,23.28-19.37,23.38Z"/>
  <path class="cls-1" d="m719.83,69.72c-.48,1.67-1,4.29-1.99,6.73-6.04,14.83-12.02,29.68-18.35,44.38-4.71,10.95-13.81,14.97-23.3,10.88-8.89-3.84-12.55-13.29-8.44-23.59,6.17-15.49,12.61-30.88,19.31-46.14,3.67-8.36,10.63-12.17,19.58-10.01,8.36,2.02,12.77,8,13.2,17.76Z"/>
  <path class="cls-1" d="m206.38,316.9c.08,15.42-11.19,23.82-23,19.46-16.55-6.12-32.84-13.04-48.92-20.3-8.88-4.01-11.92-13.52-8.35-21.98,3.37-7.96,11.98-12.56,20.7-9.3,17.15,6.41,34.18,13.28,50.69,21.17,4.58,2.19,7.11,8.65,8.88,10.96Z"/>
  <path class="cls-1" d="m952.18,304.63c-2.25,2.56-5.5,9.09-10.71,11.65-15.23,7.47-31.14,13.62-46.98,19.76-10.09,3.91-19.7-.45-23.13-9.59-3.29-8.77.61-17.71,10.35-21.97,15.27-6.68,30.59-13.27,46.16-19.18,12.36-4.69,24.17,3.24,24.31,19.33Z"/>
  <path class="cls-1" d="m278.74,187.31c-.03,13.81-14.44,23.12-24.82,15.74-9.35-6.65-17.45-15.54-24.59-24.63-4.67-5.95-3.43-14.57,2.96-18.86,4.85-3.26,14.34-6.3,17.7-3.85,10.27,7.48,18.67,17.57,27.56,26.87,1.18,1.23.99,3.77,1.21,4.72Z"/>
  <path class="cls-1" d="m851.41,169.33c-2.61,5.64-3.57,9.84-6.08,12.69-5.97,6.78-12.37,13.25-19.14,19.24-7.03,6.21-16.37,5.73-22.81-.34-6.77-6.37-7.63-16.15-1.22-23.5,5.93-6.8,11.93-14.08,19.36-18.86,4.8-3.09,12.99-4.15,18.29-2.26,4.87,1.73,7.91,8.62,11.59,13.03Z"/>
  <path class="cls-1" d="m521.19,61.58c0-17.25,5.47-25.57,16.95-25.77,11.8-.21,17.52,8.37,17.5,26.25-.02,16.97-5.89,25.45-17.47,25.27-11.5-.18-16.98-8.48-16.98-25.74Z"/>
  <path class="cls-1" d="m535.09,481.45c-20.69-5.48-37.63-14.42-51.53-28.64-8.98-9.19-10.03-19.02-2.88-26.52,7.09-7.44,17.44-6.77,26.61,1.73,41.38,38.31,101.59,21.6,116.74-32.4,3.63-12.96,11.85-18.81,22.24-15.84,9.79,2.79,14.17,11.95,10.87,24.43-10.16,38.39-34.47,63.61-72.36,75.11-7.57,2.3-12.21,5.36-16.1,12.53-15.2,28.05-39.19,43.22-71.21,44.97-12.59.69-20.73-5.85-21.13-16.25-.38-9.84,6.72-17.05,18.92-17.88,15.95-1.09,28.86-7.3,39.82-21.25Z"/>
  <path class="cls-1" d="m404.64,386.91c1.01-41.37,36.27-76.32,76.84-76.14,10.95.05,18.01,5.78,18.82,15.29.86,10.04-5.68,17.5-16.54,18.85-28.95,3.62-40.79,15.31-45,44.45-1.64,11.34-8.6,17.83-18.35,17.1-9.82-.73-16.04-8.44-15.77-19.55Z"/>
</svg>