<?xml version="1.0" encoding="UTF-8"?>
<svg id="Layer_2" data-name="Layer 2" xmlns="http://www.w3.org/2000/svg" viewBox="0 0 1080 1080">
  <defs>
    <style>
      .cls-1 {
        fill: #231f20;
      }
    </style>
  </defs>
  <path class="cls-1" d="m864.49,4.91c20.36,5.03,37.87,14.41,49.08,32.94,26.3,43.49.16,98.1-50.22,104.91-5.86.79-11.87.77-17.81.77-102.2.04-204.42,1.29-306.6-.4-71.72-1.19-127.92,53.73-130.54,122.78-.63,16.67-2.71,33.29-4.23,51.14,5.69,0,10.16,0,14.64,0,82.25.16,164.52-.88,246.73.85,67.83,1.43,123.58,55.25,129.79,122.76,8.85,96.14,16.88,192.36,25.32,288.55,5.29,60.29,11.16,120.53,15.77,180.87,1.62,21.17.26,42.57.26,65.55,6.49,0,11.58-.26,16.63.05,12.34.76,18.47,5.94,18.79,18.07.6,22.73.59,45.5-.02,68.23-.32,11.8-6.11,17.61-17.9,17.71-45.85.39-91.7.4-137.54-.03-11.6-.11-17.44-6.36-17.69-17.99-.48-22.39-.47-44.8-.05-67.19.23-12.48,6.48-18.12,19.21-18.83,4.8-.27,9.62-.04,16.62-.04-3.54-116.62-21.56-230.68-30.09-346.06h-327.91c-1,9.59-2.17,19.46-3.04,29.37-6.46,73.53-12.96,147.06-19,220.62-.31,3.78,2.49,9.29,5.62,11.64,36.49,27.42,50.79,64.04,41.21,107.92-8.95,41.01-35.77,67.35-76.93,77.35-51.06,12.41-98.67-11.41-119.82-59.08-20.6-46.45-5.11-98.56,37.86-128.56,2.93-2.04,5.68-6.36,5.98-9.84,6.72-79.48,13.02-159,19.54-238.49,6.66-81.24,13.49-162.47,20.19-243.71,4.43-53.69,9.47-107.35,12.99-161.1,6.85-104.77,93.36-191.59,198.17-195.04,67.13-2.21,134.38-.84,201.57-1.07,4.48-.02,8.96,0,14.31,0,1.68-12.99-2.26-27.58,12.59-34.65h136.53Zm-218.34,70.84c-.89-.67-1.17-1.07-1.45-1.07-53.14.51-106.53-1.99-159.37,2.31-73.6,5.99-137.89,71.93-145.5,145.35-6.78,65.41-11.62,131.01-17.16,196.55-5.96,70.42-11.67,140.85-17.61,211.27-6.61,78.43-13.35,156.86-19.98,235.29-.19,2.26.33,4.57.5,6.59h33.25c.51-3.17,1.11-5.88,1.36-8.62,6.29-70.03,12.54-140.07,18.79-210.1,12-134.5,24-268.99,35.99-403.49,6.83-76.63,69.56-137.24,146.46-140.09,37.4-1.38,74.88-.56,112.33-.73,4.04-.02,8.07,0,12.39,0v-33.25Zm-259.18,448.8h306.48c-2.04-22.57-3.74-44.46-6.05-66.28-2.78-26.14-15.75-37.36-42.43-37.37-79.46-.02-158.92,0-238.38,0h-11.1c-2.88,34.98-5.67,68.99-8.52,103.66Zm12.17-138.08c7.72,0,14.28,0,20.83,0,75.6,0,151.2-.14,226.8.06,44.13.11,71.02,25.31,75.2,69.25,4.87,51.19,10.07,102.35,15.12,153.52,7.49,75.89,14.96,151.77,22.47,227.66,2.26,22.86,4.63,45.71,6.96,68.58h34.44c-2.85-33.85-5.54-66.95-8.43-100.03-10.19-116.75-20.61-233.48-30.61-350.25-5.44-63.51-48.34-103.63-111.93-103.67-78.75-.05-157.5-.01-236.25-.01-3.68,0-7.35,0-11.36,0-1.14,12.21-2.13,22.89-3.25,34.89Zm-19.06,207.12h320.55c-1.31-11.89-2.52-22.78-3.7-33.44h-313.52c-1.12,11.24-2.18,21.94-3.33,33.44Zm-10.94,382.62c.23-38.17-31.23-69.95-69.13-69.81-37.35.13-68.72,31.36-69.27,68.96-.54,37.25,30.7,68.96,68.43,69.47,38.38.52,69.73-30.23,69.97-68.62ZM820.79,108.04c14.31,0,27.61,1.11,40.65-.28,15.96-1.71,27.83-16.77,28.11-32.92.27-15.62-10.73-31.62-25.95-33.63-13.89-1.83-28.21-.39-42.81-.39v67.22Zm-86.58,936.2h102.57v-32.67h-102.57v32.67Zm17.23-1004v67.91h34.04c0-20.65.02-40.46-.03-60.26,0-2.35-.38-4.7-.64-7.65h-33.37Zm-69.01,34.34v33.7h32.79v-33.7h-32.79Zm86.23,867.26v33.08h33.81v-33.08h-33.81Z"/>
  <path class="cls-1" d="m248.45,975.83c-.03-29.51,22.18-51.81,51.65-51.85,29.32-.04,51.88,22.46,51.89,51.76,0,29.22-22.66,51.98-51.8,52-29.22.03-51.71-22.53-51.74-51.91Zm51.27,16.92c10.31.19,17.27-6.42,17.46-16.57.18-9.97-6.87-17.41-16.67-17.6-9.8-.19-17.35,7.02-17.59,16.8-.25,9.93,6.77,17.19,16.81,17.38Z"/>
</svg>