<?xml version="1.0" encoding="UTF-8"?>
<svg id="Layer_3" data-name="Layer 3" xmlns="http://www.w3.org/2000/svg" viewBox="0 0 1080 1080">
  <defs>
    <style>
      .cls-1 {
        fill: #231f20;
      }
    </style>
  </defs>
  <path class="cls-1" d="m1069.03,665.09c-25.43-138.07-51.28-276.06-76.03-414.25-8.29-46.27-21.72-89.74-52.21-126.58-4.16-5.03-7.85-10.62-10.9-16.39C889.09,30.71,804.99-10.54,716.94,3.6c-82.01,13.17-148.82,81.02-163.07,164.86-3.15,18.53-8.22,36.74-12.41,55.09-1.12,0-2.24,0-3.35,0-4.19-18.35-9.27-36.56-12.43-55.09C510.89,81.55,444.41,16.76,354.38,2.25c-81.02-13.06-166.39,31.63-205.52,107.46-2.21,4.28-4.93,8.41-8.01,12.1-26.17,31.42-42.6,67.31-50,107.48-25.5,138.41-50.97,276.82-76.69,415.19-6.83,36.72-12.1,73.18-5.1,110.72,20.09,107.76,112.91,185.61,223.67,186.64,108.02,1,203.3-76.59,223.57-183.76,26.41-139.65,51.67-279.51,77.47-419.28,1.56-8.45,3.43-16.85,5.15-25.28,3.02,5.07,4.06,9.8,4.94,14.55,26.42,143.18,52.36,286.46,79.38,429.53,19.62,103.89,106.9,178.62,212.73,183.92,103.8,5.2,198.1-61.39,228.21-161.67,4.46-14.86,6.79-30.37,10.11-45.58v-41.76c-1.74-9.14-3.54-18.26-5.22-27.41ZM335.54,32.3c123.79,6.03,199.49,138.23,142.13,247.86-3.57,6.83-6.87,10.17-15.01,7.6-7.22-2.28-14.91-3.05-23.81-4.75,20.22-29.32,28.46-60.09,26.08-94.03-5.95-84.91-95.35-145.81-176.54-119.91-11.35,3.62-16.39,11.48-13.42,20.91,2.84,9,11.1,12.2,23.35,9.05,58.87-15.15,115.94,16.46,131.6,73.73,9.83,35.97,2.36,68.77-21.37,97.79-3.73,4.56-7.35,5.87-13.38,4.73-52.21-9.93-104.47-19.62-156.81-28.87-6.63-1.17-9.56-4.16-11.43-9.92-11.44-35.19-6.41-67.86,14.73-98.13,1.39-1.99,3.1-3.77,4.46-5.78,5.5-8.14,4.56-17-2.28-22.36-6.82-5.35-15.97-4.39-22.26,3.08-16.74,19.89-27.81,42.74-30.21,68.62-1.68,18.06-.32,36.4-.32,55.48-7.87-1.38-17.43-2.59-26.67-5-2.11-.55-4.1-5.14-4.51-8.1-14.7-104.79,69.91-197.16,175.69-192Zm-20.04,449.45c-2.43,14.32-4.67,27.55-7.1,41.85-25.8-4.73-51.25-9.39-77.69-14.23,2.73-13.97,5.34-27.35,8.17-41.8,26.47,4.9,51.24,9.48,76.62,14.18Zm-70.93-45.1c2.48-13.89,4.82-27.01,7.45-41.76,25.89,4.72,51.16,9.32,77.11,14.05-2.62,14.16-5.05,27.32-7.72,41.8-25.58-4.69-50.56-9.27-76.84-14.08Zm59.7,118.34c2.77.54,6.74,3.38,7.23,5.76,4.93,23.87,18.02,43.46,31.79,62.76,1.14,1.59,1.89,3.46,3.45,6.35-63.54-11.71-125.87-23.2-190.57-35.12,9.45-6.64,17.38-11.14,23.98-17.1,11.04-9.96,21.73-20.41,31.54-31.55,4.14-4.7,7.28-7.21,13.71-5.96,26.26,5.11,52.62,9.68,78.87,14.85Zm-44.51-190.89c-1.55-.3-3.67-3.31-3.7-5.09-.4-29.2-11.09-54.75-27.18-78.48-.53-.77-.49-1.93-1.01-4.21,55.44,10.22,110.21,20.31,166.06,30.61-12.26,11.38-24.46,20.75-34.14,32.25-9.47,11.25-16.36,24.67-25.35,38.65-23.71-4.29-49.23-8.83-74.69-13.72Zm-141.92-107.99c21.03,3.82,40.19,7.15,59.28,10.89,3.13.61,7.12,2.22,8.66,4.66,10.56,16.73,21.47,33.35,30.39,50.96,5.04,9.94,6.52,21.69,10.24,34.9-10.21-1.62-17.88-2.86-25.56-4.04-10.27-1.57-18.05,3.2-19.84,12.1-1.75,8.67,3.71,16.12,14.02,18.49,8.08,1.86,16.28,3.22,25.95,5.09-2.52,13.9-4.96,27.3-7.52,41.42-8.46-1.39-15.97-2.54-23.44-3.87-12.31-2.18-20.16,1.74-22.08,11.16-2.07,10.15,3.45,16.85,16.32,19.55,7.43,1.56,14.92,2.88,23.52,4.53-2.64,13.7-5.18,26.84-8,41.48-8.65-1.54-16.37-2.89-24.09-4.28-11.51-2.07-19.79,2.68-21.58,12.39-1.65,8.98,4.32,16,15.51,18.32,3.73.77,7.46,1.62,14.26,5.6-5.85,4.53-11.54,9.29-17.57,13.55-16.47,11.63-33.01,23.15-49.71,34.45-2.36,1.59-5.89,2.77-8.58,2.33-16.04-2.64-31.99-5.81-49.22-9.04,19.73-107.12,39.32-213.5,59.05-320.64Zm217.41,625.66c-35.88,21.74-74.79,31.08-116.64,28.01-108.72-7.96-180.64-100.12-181.24-191.58,64.28,148.12,254.79,190.35,373.99,73.16-1.25,22.02-40.6,68.9-76.1,90.41Zm-113.95-56.22c-125.69-17.94-181.19-135.38-166.75-217.52,127.63,23.51,255.25,47.01,382.86,70.51-12.77,74.47-97.68,163.92-216.11,147.01Zm223.66-177.85c-11.04-1.91-21.7-4.52-32.5-5.42-14.99-1.25-25.41-7.47-32.92-21.03-8.22-14.84-18.78-28.38-27.96-42.71-2.74-4.28-4.29-9.33-7.28-16.07,6.51,1.09,10.53,2.02,14.6,2.4,8.76.82,16.11-4.6,17.69-12.73,1.55-7.97-3.54-15.75-12.12-18.07-4.01-1.09-8.19-1.56-12.28-2.38-3.71-.75-7.41-1.61-12.54-2.73,2.19-13.52,4.33-26.7,6.73-41.47,7.67,1.41,14.64,2.72,21.63,3.97,11.86,2.12,20.11-2.47,21.7-12.03,1.65-9.92-3.81-16.41-15.97-18.9-5.78-1.19-11.59-2.27-17.37-3.47-.98-.2-1.9-.74-3.62-1.43,1.13-6.67,2.19-13.42,3.43-20.13,1.25-6.74,2.69-13.44,4.17-20.74,8.02,1.48,15.09,3,22.24,4.05,11.36,1.67,18.96-2.95,20.82-12.27,1.78-8.93-4.29-16.41-15.23-18.72-3.06-.65-6.13-1.23-9.21-1.8-3.03-.56-6.06-1.07-11.99-2.11,6.58-9.69,10.92-19.49,18.18-26.08,15.91-14.44,33.26-27.3,50.14-40.65,1.43-1.13,3.94-1.77,5.74-1.46,20.79,3.68,41.54,7.59,62.94,11.56-19.69,106.89-39.17,212.7-59.01,320.42Zm516.77-391.5c19.64,106.57,39.25,212.95,59.09,320.6-17.2,3.22-32.84,6.28-48.53,8.97-2.49.43-5.83.03-7.81-1.36-19.89-13.97-39.64-28.15-59.27-42.49-2.92-2.13-5.01-5.4-8.3-9.03,5.81-1.27,10.12-2.13,14.39-3.15,10.25-2.45,15.88-9.87,14.11-18.49-1.91-9.32-10.03-14.13-20.81-12.24-7.51,1.32-15,2.76-24.49,4.52-2.82-13.77-5.55-27.11-8.46-41.3,9.24-1.88,17.66-3.44,26.01-5.33,10.93-2.47,16.07-9.78,13.92-19.34-1.96-8.73-9.81-13.05-20.33-11.23-8.11,1.4-16.23,2.77-25.12,4.29-2.61-14.2-5.03-27.37-7.58-41.28,9.48-1.9,17.96-3.37,26.33-5.34,10.13-2.39,15.56-10.15,13.62-18.75-1.99-8.79-9.72-13.31-20.14-11.66-7.19,1.14-14.36,2.41-24.57,4.14,2.93-11.9,3.73-23.23,8.45-32.57,9.38-18.54,20.78-36.07,31.75-53.77,1.37-2.21,4.98-3.71,7.79-4.26,19.42-3.74,38.9-7.13,59.95-10.92Zm-121.11,211.41c2.8,14,5.42,27.1,8.32,41.63-25.95,4.81-51.59,9.56-77.75,14.41-2.43-14.23-4.68-27.45-7.14-41.84,25.5-4.73,50.55-9.37,76.56-14.2Zm-82.37-16.83c-2.66-14.08-5.15-27.24-7.88-41.72,25.68-4.74,50.94-9.39,77.06-14.21,2.63,14.32,5.03,27.46,7.65,41.74-25.99,4.8-50.98,9.42-76.83,14.19Zm84.71-157.77c-11.73,19.37-18.16,40.32-19.44,62.97-.17,2.92-2.71,7.75-4.87,8.19-24.77,5.03-49.69,9.39-75.72,14.13-10.89-29.98-31.32-52.01-59.54-70.93,57.93-10.66,112.84-20.76,170.12-31.3-4.39,7.04-7.53,11.95-10.54,16.93Zm-91.03,306.86c6.12-11.95,10.15-24.95,15.69-37.21,1.42-3.15,4.79-6.98,7.85-7.6,26.17-5.32,52.45-10.14,78.78-14.62,3.44-.59,9.21.33,10.74,2.64,13.41,20.27,32.41,34.1,52.21,47.15,1.4.92,2.63,2.11,5.76,4.67-64.05,11.82-126.25,23.3-190.96,35.25,7.49-11.2,14.77-20.2,19.93-30.28Zm-142.4-489.62c37.74-60.51,110.82-90.17,178.92-74.45,71.75,16.56,123.6,73.94,131.52,146.74,1.53,14.02.2,28.39-.45,42.57-.12,2.66-2.85,6.89-5.13,7.48-8.94,2.32-18.18,3.48-29.24,5.41,7.45-30.9,6.94-59.62-5.13-86.85-6.25-14.1-15.12-27.22-24.04-39.92-6.91-9.84-16.9-11.01-24.26-4.86-7.64,6.38-7.66,15.15.28,24.74,25.43,30.73,32.74,65.02,21.24,103.42-2.29,7.64-6.16,10.95-14.11,12.36-50.6,8.99-101.14,18.36-151.6,28.1-8.74,1.69-13.88-.76-19.23-7.57-27.24-34.7-30.4-83.42-7.27-121.26,23.63-38.66,67.99-58.13,111.93-49.13,16.41,3.36,24.62.07,26.81-10.75,2.15-10.63-4.53-17.44-21.12-20.13-58.33-9.48-106.53,8.58-139.99,57.4-33.69,49.15-32.98,100.85-2.8,152.14,1.06,1.8,2.27,3.5,3.37,5.27.16.26.09.67.28,2.33-9.53,1.84-19.15,4.22-28.9,5.2-2.34.23-6.13-3.74-7.58-6.62-29.43-58.34-28.16-116.08,6.47-171.61Zm-33.92,217.2c11.91-2.25,24.13-3.13,35.32-6.99,22.11-7.63,39.28-1.88,56.43,13.26,15.69,13.86,32.76,25.89,41.8,45.62.54,1.19.88,2.47,1.76,4.98-7.82,1.39-14.33,2.35-20.76,3.73-9.57,2.04-15.31,9.39-14.15,17.66,1.27,9.05,8.67,14.31,19.09,13.29,3.79-.37,7.52-1.33,11.28-1.99,3.76-.67,7.52-1.3,12.61-2.18,1.44,6.63,2.99,13.21,4.27,19.84,1.31,6.81,2.36,13.66,3.73,21.68-7.58,1.48-14.99,2.93-22.4,4.39-11.06,2.19-16.47,9.12-14.72,18.86,1.59,8.86,9.31,13.74,19.8,12.15,7.49-1.14,14.92-2.7,23.36-4.25,2.39,14.07,4.63,27.3,7.04,41.51-7.94,1.64-14.99,3.06-22.02,4.56-10.98,2.36-16.87,9.7-15.06,18.69,1.85,9.22,10.04,13.97,20.89,12.14,3.02-.51,6.04-.98,11.87-1.92-4.63,9.09-7.68,16.65-12.04,23.35-10.43,16.02-21.42,31.68-32.35,47.37-1.48,2.13-3.72,4.69-6,5.15-16.56,3.4-33.23,6.32-50.69,9.55-19.76-107.22-39.26-213.07-59.05-320.47Zm306.82,579.77c-89.86,16.41-202.68-44.44-214.07-112.25,20.65,13.23,43.24,27.86,66.03,42.18,4.36,2.74,9.43,4.43,14.3,6.24,9.86,3.67,18.38.5,21.87-7.86,3.48-8.36-.67-15.92-9.86-21.18-19.51-11.16-40.07-21.16-57.63-34.92-29.45-23.07-48.31-54.29-59.27-90.12-.98-3.2-1.6-6.51-2.57-10.51,128.49-23.67,255.87-47.13,384.11-70.75,4.27,21.76,2.36,42.71-2.05,63.34-19.71,92.28-99.73,156.44-194.34,156.32-3.82,0-7.8-.32-11.41.64-7.71,2.03-11.52,7.64-11.11,15.54.5,9.66,6.71,15.15,15.63,14.8,18.35-.73,37.04-.99,54.88-4.79,75.07-16.01,128.56-59.89,161.7-128.92.73-1.52,1.58-2.99,2.57-4.84,13.77,73.3-69.18,170.72-158.77,187.09Z"/>
</svg>