<?xml version="1.0" encoding="UTF-8"?>
<svg id="Layer_1" data-name="Layer 1" xmlns="http://www.w3.org/2000/svg" viewBox="0 0 1080 1080">
  <defs>
    <style>
      .cls-1 {
        fill: #ffffff;
      }
    </style>
  </defs>
  <path class="cls-1" d="m81.71,201.81c.91.06,1.78.78,3.78,1.71,0,17.91.12,36.11-.04,54.31-.11,11.7.4,23.1,7.94,29.85-6.71,17.11-13.93,32.32-18.66,48.26-9.16,30.87-16.1,62.4-25.55,93.17-5.99,19.51-8.17,38.02,1.23,56.78.25.5-.13,1.32-.27,2.44-1.32.67-2.82,1.49-4.37,2.2-37.87,17.46-47.32,42.13-30.39,79.96,58.93,131.68,117.91,263.34,176.88,395,1.38,3.09,2.98,6.08,4.65,9.49,34.84-15.56,68.72-30.67,102.59-45.82,23.02-10.3,46.15-20.35,68.96-31.08,15.52-7.3,16.93-22.92,3.63-33.63-5.46-4.4-11.2-8.47-16.44-13.11-12.18-10.81-23.22-22.5-26.8-39.22-5.97-27.91,6.06-56.35,29.91-70.74,24.26-14.64,55.24-12.42,76.66,5.48,22.54,18.83,30.08,48.4,18.76,76.13-3.62,8.86-5.23,16.81,2.43,24.07,7.31,6.94,15,5.11,23.3,1.35,45.3-20.51,90.76-40.67,136.07-61.18,5.34-2.42,10.03-6.25,15.04-9.4,8.26-5.19,16.53-10.37,23.86-14.96,8.21,20.61,15.53,38.97,23.22,58.27-9.49,6-11.15,16.83-10.76,29.13.62,19.51.17,39.06.17,58.67-2.17.24-3.54.49-4.92.54-18.95.67-20.71,2.5-20.43,21.8.64,45.59,1.31,91.17,2.01,136.76.06,3.68.41,7.35.62,10.82h23.27v-144.82h333.67v144.86h25.55c0-4.27.05-8.04,0-11.81-.63-44.54-1.31-89.07-1.92-133.61-.34-24.75-.6-25.07-24.94-26.77-.56-.04-1.07-.73-3.02-2.16,0-17.87.71-36.8-.28-55.64-.54-10.24-3.99-20.33-6.48-32.14,4.41-10.07,11.51-22.39,15.31-35.66,11.77-41.05,22.43-82.43,33.1-123.79,1.22-4.73.63-10.37-.61-15.21-2.91-11.36-6.73-22.48-10.18-33.68,2.24-1.17,3.44-1.88,4.71-2.44,37.02-16.22,46.96-40.75,31.48-77.81-54.51-130.53-109.03-261.05-163.57-391.56-1.56-3.73-3.43-7.32-5.43-11.54-55.1,22.98-109.29,45.58-164.81,68.74.91-25.84,1.79-50.47-12.22-72.34-14.17-22.13-34.26-35.8-59.86-41.06-38.21-7.84-78.26,11.01-96.97,45.68-11.64,21.55-14.56,44.32-7.88,68.15,6.67,23.8,21.29,41.62,42.97,55.49-59.72,24.87-117.77,49.03-175.62,73.12-6.24-12.24-11.88-23.32-17.83-35,10.52-6.49,12.5-16.56,12.19-28.17-.52-19.9-.14-39.83-.14-60.28,3.68-.22,6.76-.42,9.84-.57,12.15-.59,15.99-4.12,15.84-15.95-.77-59.61-1.73-119.22-2.62-178.83h-25.26c.9,52.56,1.8,105.12,2.69,157.69.06,3.73,0,7.47,0,12.95H82.95c-.8-56.01-1.62-113.33-2.44-170.64h-25.26c.78,57.51,1.59,115.01,2.33,172.52.3,23.21.8,23.78,24.13,25.23Zm882.98,705.01c-87.33.54-174.65,1.2-261.98,2.03-7.13.07-9.98-1.94-9.79-9.51.46-18.52.15-37.06.15-56.98,3.74,0,7.14,0,10.54,0,85.58-.06,171.16.03,256.74-.38,9.5-.05,12.91,2.31,12.47,12.14-.66,14.69-.14,29.45.38,44.17.23,6.53-2.24,8.5-8.51,8.54Zm48.7-250.08c-10.63,40.25-20.7,80.68-32.64,120.54-3.92,13.08-12.59,24.8-19.67,36.8-1.17,1.98-5.33,3.1-8.12,3.11-78.87.16-157.74.17-236.61-.04-3.05,0-6.93-1.7-9.01-3.93-14.04-15.06-22.05-33.15-24.43-53.49-.35-2.97,2.4-8.24,5.03-9.35,56.06-23.76,112.3-47.07,168.52-70.44.58-.24,1.34-.03,3.8-.03-3.2,6.78-6,12.69-9.26,19.59,7.47,3.52,14.54,6.85,22.73,10.72,13.11-30.8,30.09-57.31,63.6-68.01-5.46-33.2-10.49-65.32-16.11-97.35-3.19-18.2-5.17-36.09,3.38-53.46,4.88-9.92,12.58-15.73,23.71-16.61,6.74-.53,11.38,2.09,13.55,8.9,17.32,54.33,34.79,108.61,51.98,162.98.96,3.03.38,6.88-.47,10.09Zm-459.16-362.21c21.36-8.81,42.67-17.74,64.11-26.35,8.7-3.5,15.79-8.04,15.7-18.59-.09-10.7-7.64-14.63-16.29-18.01-27.69-10.84-44.27-36.86-42.45-65.99,1.74-27.96,21.37-51.9,48.72-59.42,27.12-7.46,56.47,3.24,72.06,26.62,13.28,19.92,10.02,42.18,8.88,64.24-.31,5.93.63,12.76,3.44,17.82,4.52,8.14,14.14,9.38,25.22,4.76,43.96-18.3,87.87-36.7,131.81-55.05,5.39-2.25,10.84-4.39,17.03-6.89,12.41,29.66,24.55,58.66,36.68,87.68,41.18,98.51,82.39,197,123.51,295.54,9.07,21.73,1.05,36.83-22.77,42.25-10.69-33.2-21.87-66.32-31.93-99.79-5.25-17.47-13.3-31.08-33.02-33.26-20.08-2.22-41.63,9.59-51.01,27.01-13.34,24.75-11.11,50.6-6.24,76.88,4.09,22.03,7.59,44.19,10.74,66.38.45,3.15-1.61,7.85-4.1,9.97-4.45,3.77-9.86,6.7-15.29,8.98-80.05,33.62-160.16,67.09-240.26,100.57-1.61.67-3.32,1.09-6.17,2.01-19.38-44.13-38.45-87.56-58.23-132.58,32.86,1.52,62.44-2.6,85.14-27.34,14.79-16.12,22.88-35.24,25.24-56.62,4.61-41.82-19.96-80.95-59.17-95.36-31.41-11.55-80.36-8.39-112.43,42.82-20.96-46.82-41.57-92.83-62.51-139.6,31-12.8,62.28-25.73,93.56-38.64Zm-131.77,54.71c13.15-5.89,15.85-4.89,21.6,8.24,20.24,46.17,40.47,92.35,60.5,138.62,3.67,8.47,7.74,16.24,18.29,16.21,10.93-.03,15.27-7.71,18.79-16.88,10.05-26.17,36.85-43.66,64.17-42.55,27.29,1.11,50.91,18.77,59.36,44.39,8.47,25.7-.07,54.04-21.65,70.78-17.09,13.25-37.29,13.26-57.31,11.89-31.72-2.17-39.04,7.95-25.89,37.28,17.9,39.94,35.83,79.86,53.71,119.81,6.93,15.47,4.46,21.88-11.03,28.83-38.34,17.2-76.69,34.37-115.05,51.53-1.24.56-2.58.88-4.79,1.62.35-62.69-20.75-96.74-66.86-109.03-39.34-10.49-81.76,7.24-102.01,42.62-24.19,42.27-14.47,78.37,34.82,126.86-46.6,20.89-92.79,41.6-139.71,62.64-1.69-3.21-3.26-5.84-4.51-8.61-56.11-125.25-112.21-250.51-168.26-375.79-10.11-22.59-2.88-37.32,22.35-44.6,9.22,28.56,18.46,57.14,27.66,85.75,3.75,11.66,7.27,23.4,11.12,35.03,5.16,15.59,18.61,24.94,35.18,24.73,29.77-.36,51.83-21.05,54.38-55.73,1.49-20.26-2.27-41.02-4.71-61.42-2.17-18.07-6.08-35.92-8.49-53.96-.41-3.09,2.03-7.44,4.48-9.87,10.38-10.31,21.2-20.18,32.01-30.05,3.26-2.98,6.66-6.22,10.6-8,67.03-30.25,134.14-60.3,201.26-90.35ZM118.31,201.7c87.65-.54,175.29-1.35,262.94-1.74,2.89-.01,8.24,3.6,8.31,5.65.63,20.22.38,40.46.38,62.68-17.98,0-35.74-.09-53.49.02-71.87.43-143.75.81-215.62,1.54-7.86.08-10.42-2.33-10.28-10.12.29-16.47-.04-32.95-.57-49.42-.21-6.36,1.87-8.57,8.33-8.61Zm1.51,96.33c1.17-1.96,5.29-3.01,8.06-3.04,79.96-.81,159.91-1.47,239.87-1.99,2.87-.02,7.1.73,8.39,2.66,7.86,11.7,15.06,23.86,23.09,36.87-32.8,14.73-62.75,28.21-92.73,41.64-34.19,15.31-68.42,30.53-102.58,45.92-3.08,1.38-6.83,3.02-8.43,5.65-11.76,19.28-28.48,32.42-49.82,40.85,5.39,32.85,10.49,65.32,16.12,97.7,3.11,17.87,5.55,35.75-3.67,52.31-3.33,5.98-9.2,11.64-15.28,14.77-11.86,6.1-18.73,2.31-22.85-10.5-16.63-51.64-33.35-103.25-49.64-155-1.56-4.94-1.55-11.07-.24-16.12,10.26-39.65,20.39-79.35,32-118.61,3.48-11.77,11.27-22.35,17.69-33.11Z"/>
  <path class="cls-1" d="m264.27,992.3c9.84,19.07,19.21,37.24,28.75,55.72,7.91-4.17,14.64-7.72,22.02-11.61-9.76-18.88-19.17-37.07-28.71-55.52-7.54,3.89-14.03,7.25-22.06,11.4Z"/>
  <path class="cls-1" d="m791.66,50.77c9.75,18.84,19.05,36.8,28.82,55.66,7.67-4.02,14.6-7.65,22.01-11.53-9.8-18.97-19.06-36.9-28.67-55.5-7.43,3.82-14.21,7.29-22.15,11.37Z"/>
  <path class="cls-1" d="m84.3,1037.51c7.63,3.9,14.62,7.47,22.15,11.31,9.75-18.9,18.99-36.83,28.69-55.63-7.37-3.82-14.11-7.3-22.07-11.42-9.81,19.02-19.07,36.95-28.76,55.74Z"/>
  <path class="cls-1" d="m971.71,95.75c7.85,4.07,14.57,7.56,22.11,11.46,9.63-18.67,19.01-36.84,28.72-55.66-7.69-3.99-14.39-7.47-22-11.43-9.63,18.6-18.9,36.48-28.82,55.62Z"/>
  <path class="cls-1" d="m894.49,69.22h23.53V7.6c-7.14-.31-14.6-.64-23.53-1.03v62.65Z"/>
  <path class="cls-1" d="m187.33,1080h24v-61.5h-24v61.5Z"/>
</svg>