<?xml version="1.0" encoding="UTF-8"?>
<svg id="Layer_1" data-name="Layer 1" xmlns="http://www.w3.org/2000/svg" viewBox="0 0 1080 1080">
  <defs>
    <style>
      .cls-1 {
        fill: #ffffff;
      }
    </style>
  </defs>
  <path class="cls-1" d="m1059.69,405.53c-22.27-25.22-57.41-33.86-88.84-22.1-31.92,11.94-52.28,41.3-52.7,77.59-.46,38.8-2.17,77.75.6,116.36,1.85,25.77-8,40.19-23.27,46.86-12.37-9.11-21.63-16.47-31.43-23.04-32.34-21.68-73.2-17.28-103.14,11.11-45.3,42.95-90.04,86.5-135.8,128.94-21.62,20.06-31.48,43.66-31.3,72.87.45,76.34.14,152.68.19,229.02,0,5.04-.02,10.19.97,15.09,3.11,15.4,16.79,24.24,32.07,21.18,13.8-2.76,21.3-14.08,21.31-32.89.07-78.03.2-156.06-.14-234.08-.06-12.77,3.83-22.43,13.25-31.17,29.06-26.96,57.54-54.56,86.27-81.88,17.73-16.85,35.37-33.8,53.32-50.42,9.34-8.65,20.34-10.27,31.5-3.94,10.53,5.97,16.2,15.86,13.13,27.59-1.89,7.21-7.06,14.37-12.56,19.69-30.92,29.91-62.48,59.15-93.55,88.91-4.74,4.54-9.32,10.08-11.69,16.06-4.5,11.38.89,24.45,11.09,30.83,10.32,6.45,23.46,5.32,33.72-4.25,34.53-32.23,68.85-64.69,102.96-97.38,5.09-4.87,10.83-10.83,12.43-17.25,5.02-20.1,20.6-29.64,35.89-39.97,9.78-6.61,18.96-14.17,29.07-20.19,14.73-8.77,19.86-21.12,19.63-37.99-.67-49.34-.31-98.69-.19-148.03.04-15.53,6.02-24.96,17.64-29.06,19.1-6.74,36.04,6.86,36.07,29.41.12,76.76-.27,153.53.31,230.29.12,15.73-5.07,26.92-16.69,37.35-80.03,71.84-159.57,144.24-239.45,216.27-8.61,7.77-14.46,16.2-14.4,28.16.11,24.88-.24,49.77.12,74.65.27,18.42,11.2,29.89,27.32,29.78,16.04-.11,26.54-11.61,26.91-30.23.33-16.86.7-33.77-.14-50.6-.53-10.66,2.91-17.76,10.91-24.94,76.57-68.76,152.68-138.03,229.08-206.98,17.73-16,29.44-35.01,29.53-59.26.32-84.35.24-168.7.02-253.05-.05-18.9-7.64-35.26-20.03-49.3Z"/>
  <path class="cls-1" d="m457.44,743.37c-45.77-43.08-91.95-85.77-136.49-130.1-37.55-37.37-101.6-33.22-129.13,14.91-5.69-4.02-10.45-8.46-16.06-11.12-11.68-5.54-13.97-14.4-13.77-26.58.71-42.17.26-84.37.27-126.55,0-20.43-5.06-39.22-18.11-55.35-21.64-26.74-56.56-36.91-88.86-25.98C22.77,393.6.8,422.2.55,456.97c-.58,80.57.06,161.15-.46,241.72-.18,28.58,10.42,50.95,31.6,69.94,76.63,68.73,152.69,138.09,229.16,206.98,6.48,5.83,9.56,11.69,9.24,20.59-.66,18.54-.65,37.13-.01,55.67.65,18.86,14.19,30.26,31.54,27.7,13.43-1.98,22.31-12.92,22.57-29.19.37-22.77-.41-45.58.3-68.33.47-15.14-4.81-26.24-16.14-36.41-80.05-71.86-159.59-144.28-239.57-216.22-10.17-9.15-15.19-19.09-14.95-32.98.62-36.27.21-72.56.21-108.84,0-41.34-.6-82.7.49-124.01.23-8.67,4.92-18.68,10.69-25.36,6.68-7.74,17.53-7.8,27.06-3.32,11.08,5.21,15.62,14.57,15.6,26.68-.1,50.62.23,101.25-.19,151.87-.12,14.86,4.69,25.7,17.41,33.98,17.65,11.5,34.65,24.03,51.67,36.46,3.52,2.57,6.29,6.42,8.82,10.08,9.18,13.35,16.41,28.5,27.48,39.99,23.68,24.59,49.28,47.32,74.12,70.79,7.36,6.95,14.5,14.18,22.26,20.66,11.29,9.42,26.96,8.62,36.71-1.24,10.11-10.23,10.24-26.29.12-37.73-2.79-3.15-6.01-5.91-9.08-8.81-30.36-28.68-60.67-57.41-91.12-86-8.49-7.97-14.23-16.89-11.34-29.01,5.2-21.88,29.98-27.65,47.73-10.86,45.06,42.61,89.7,85.65,134.97,128.04,10.37,9.71,14.8,20.21,14.71,34.43-.47,76.35-.25,152.71-.17,229.07,0,5.44.15,11.04,1.36,16.3,2.86,12.51,12.94,20.18,25.55,20.28,12.66.1,22.81-7.42,25.93-19.81,1.12-4.43,1.46-9.16,1.47-13.76.08-78.47-.04-156.93.11-235.4.05-26.81-9.32-49.07-28.96-67.55Z"/>
  <path class="cls-1" d="m802.76,392.92c48.72-71.04,72.49-148.9,56.47-235.75-24.18-131.07-146.35-193.08-264.19-133.65-19.38,9.77-36.98,23.07-55.9,35.04-10.75-7.69-21.98-16.58-34.03-24.18C463.52,8.14,418.35-6.11,369.13,2.52c-75.61,13.24-121.15,61.36-142.46,132.73-22.54,75.48-10.05,148.25,26.41,216.47,61.33,114.74,158.72,189.16,276.19,239.61,6.79,2.92,17.18,2.16,24.2-.84,101.02-43.12,186.67-106.28,249.28-197.57Zm-255.89,141.78c-3.31,1.54-8.44,2.04-11.59.58-95.08-44.01-175.73-105.12-229.01-197.4-27.64-47.88-42.11-99.74-34.01-155.21,3.28-22.49,10.02-45.71,20.68-65.66,32.46-60.73,100.21-79.95,164.36-46.98,21.05,10.82,39.99,26.41,58.32,41.7,18.71,15.6,31.42,16.53,49.28-.64,27.85-26.78,59.06-47.76,97.92-54.54,50.02-8.73,94.19,11.23,121.4,54.18,19.14,30.22,25.59,63.79,26.11,95.88-1.23,64.79-23.65,118.96-59.84,167.91-53.19,71.94-123.18,122.8-203.62,160.17Z"/>
</svg>