<?xml version="1.0" encoding="UTF-8"?>
<svg id="Layer_1" data-name="Layer 1" xmlns="http://www.w3.org/2000/svg" viewBox="0 0 1080 1080">
  <defs>
    <style>
      .cls-1 {
        fill: #ffffff;
      }
    </style>
  </defs>
  <path class="cls-1" d="m1023.85,345.06c-41.94-13.36-83.23-28.73-124.78-43.31-86.76-30.44-173.48-61-260.27-91.35-36.9-12.9-69.52,2.96-82.93,39.89-1.37,3.78-2.88,7.5-5.3,13.8-1.24-4.15-1.81-5.67-2.15-7.25-4.25-19.99-8.18-40.06-12.75-59.98-7.63-33.21-38.49-53.81-71.72-47.07-67,13.59-133.86,27.85-200.78,41.81-19.32,4.03-38.66,7.94-57.95,12.07-8.41,1.8-14.27,6.61-14.44,15.75-.15,7.94,4.1,13.72,11.91,15.3,4.29.87,9.14.05,13.56-.87,82.46-17.19,164.86-34.6,247.33-51.74,24.72-5.14,37.45,3.7,42.57,28.16,26.52,126.59,53.13,253.15,79.69,379.73,16.94,80.71,33.87,161.41,50.76,242.13,4.35,20.8-5.01,35.1-25.95,39.77-9.28,2.07-18.64,3.82-27.95,5.77-126.59,26.52-253.16,53.14-379.77,79.53-26.43,5.51-38.53-3.18-44.06-30.02-7.32-35.55-14.84-71.06-22.29-106.59-35.6-169.69-71.26-339.37-106.78-509.08-5.68-27.13,2.81-39.22,30.25-44.83,22.78-4.66,45.54-9.47,68.25-14.5,11.32-2.51,16.55-10.07,14.23-19.5-2.23-9.09-10.07-13.6-20.53-11.45-25.89,5.32-51.83,10.44-77.6,16.28-33.64,7.63-53.96,39.03-47.14,72.72,9.23,45.59,18.84,91.11,28.39,136.64,34.5,164.52,69.01,329.04,103.6,493.55,7.48,35.58,38.81,56.4,74.17,49.12,66.61-13.72,133.13-27.92,199.8-41.36,6.73-1.36,14.72-.21,21.31,2.09,118.43,41.25,236.73,82.88,355.07,124.38,38.65,13.55,71.05-2.21,84.77-41.18,12.75-36.22,25.42-72.47,38.14-108.7,5.25-14.96,10.81-29.82,15.71-44.89,2.82-8.68-1.57-17.12-9.31-19.91-8.17-2.94-16.13.46-20.14,8.87-1.51,3.16-2.51,6.57-3.68,9.89-16.84,47.85-33.66,95.72-50.51,143.57-8.18,23.24-22.04,30.11-45.12,22.04-101.74-35.61-203.44-71.3-305.15-107-2.7-.95-5.25-2.33-9.87-4.42,27-5.69,51.49-10.74,75.93-16.03,26.85-5.81,53.61-12.03,80.5-17.63,5.75-1.2,12.45-2.16,17.76-.38,38.39,12.92,76.56,26.51,114.74,40.05,8.24,2.92,15.92,3.93,22.13-3.69,7.41-9.1,3.09-21.03-9.7-25.63-27.18-9.79-54.5-19.17-81.75-28.76-10.22-3.6-20.41-7.29-30.99-11.08,15.55-31.65-2.47-60.82-4.25-90.8,9.99-4.04,17.32-2.3,24.49,5.98,12.7,14.65,26.66,28.2,39.99,42.31,10.19,10.79,22.55,14.51,36.58,10.17,13.71-4.24,21.23-14.39,23.72-28.45,3.51-19.78,7.44-39.49,10.58-59.33,1.17-7.42,4.44-11.63,11.32-14.71,18-8.07,35.59-17.04,53.45-25.44,13.21-6.22,21.49-15.9,22.06-30.89.59-15.44-7.09-25.96-20.41-33.04-18.36-9.76-36.75-19.48-54.79-29.82-3.33-1.91-6.59-6.42-7.2-10.16-3.34-20.53-6.04-41.17-8.56-61.81-1.78-14.55-8.49-25.42-22.36-30.74-14.41-5.52-26.89-1.43-37.75,9.04-14.73,14.21-29.29,28.63-44.59,42.2-3.53,3.13-10.06,4.94-14.78,4.28-17.09-2.38-33.93-6.5-50.99-9.07-6.55-.98-8.62-3.77-9.87-9.82-10.96-53.15-21.65-106.38-33.63-159.3-8.51-37.6-18.15-74.69,3.31-111.27,2.62-4.47,3.52-9.93,5.28-14.92,8.57-24.36,22.4-31.23,46.57-22.75,129.65,45.45,259.28,90.95,388.89,136.5,26.74,9.4,32.95,22.26,23.71,48.61-25.65,73.14-51.35,146.25-77.02,219.39-16.8,47.87-33.64,95.72-50.31,143.64-3.74,10.76.08,19.11,9.44,22.26,8.73,2.94,16.42-1.38,20.41-11.73,2.4-6.24,4.43-12.63,6.65-18.95,42.34-120.64,84.68-241.27,127.02-361.91v-21.18c-7.87-29.18-28.27-44.11-56.15-52.99Zm-358.96,255.1c16.63,3.73,30.25.23,42.29-12.2,13.24-13.66,27.42-26.41,41.23-39.52,2.21-2.09,4.63-3.96,8.81-7.51,2.5,17.45,5.05,32.89,6.88,48.4,5.45,46.22,5.26,43.26,43.98,64.09,13.84,7.44,27.65,14.93,43.61,23.55-5.39,2.95-8.54,4.85-11.84,6.45-18.07,8.72-36.17,17.39-54.29,26.01-12.05,5.73-19.03,15.01-21.27,28.25-3.35,19.79-7.07,39.51-10.74,59.25-.62,3.31-1.73,6.54-3.09,11.55-3.56-3.27-6.13-5.41-8.43-7.8-12.46-12.96-25.44-25.49-37.11-39.14-11.99-14.03-26.19-19.52-44.14-15.92-2.72.55-5.52.71-9.58,1.21-5.38-25.62-10.7-50.98-16.02-76.34-5.35-25.49-10.72-50.98-16.52-78.55,16.18,2.82,31.35,4.88,46.23,8.22Z"/>
  <path class="cls-1" d="m312.77,473.62c-4.4-1.81-7.94-3.38-11.55-4.75-50.73-19.26-107.64,2.75-132.33,51.16-24.86,48.75-9.55,109.5,37.38,137.38,43.27,25.72,88.18,48.71,132.75,72.19,17.76,9.35,39.53,4.88,51.91-10.66,31.41-39.44,63.44-78.51,92.6-119.59,24.76-34.89,25.26-73.63,4.24-110.92-20.83-36.95-54.04-54.95-96.28-53.96-31.5.74-57.69,14.5-78.73,39.13Zm104.89-4.08c31.57,9.95,52.54,38.66,52.34,76.05-.28,12.82-5.81,28.14-16.32,41.65-27.73,35.62-55.63,71.11-83.17,106.88-6.64,8.62-13.41,9.66-22.78,4.52-39.24-21.49-78.82-42.37-118.04-63.92-30.86-16.96-45.26-47.22-39.23-80.64,5.64-31.29,31.13-55.12,64.47-59.78,17.44-2.44,33.57,1.9,48.48,11.06,14.85,9.12,20.52,7.91,30.49-6.53,19-27.51,52.36-39.18,83.76-29.29Z"/>
  <path class="cls-1" d="m937.08,498.85c9.47-17.78,15.52-37.37,20.53-49.9.02-22.06-8.06-34.26-22.86-39.49-84.63-29.92-169.3-59.72-254.08-89.22-19.88-6.92-37.46,2.17-44.87,22.05-3.81,10.22-7.31,20.57-10.85,30.89-7.92,23.07.39,40.27,23.4,48.36,50.14,17.64,100.3,35.23,150.44,52.86,32.88,11.56,65.71,23.23,98.63,34.66,16.09,5.59,32.7,2.84,39.66-10.22Zm-13.73-48.46c-4.15,9.24-6.99,19.08-10.71,29.51-3.38-.87-6.35-1.41-9.17-2.39-80-28.01-159.95-56.17-240.02-83.98-7.86-2.73-10.99-5.58-7.15-14.11,4.16-9.24,6.98-19.09,10.94-30.23,31.66,11.08,62.14,21.72,92.6,32.39,52.11,18.26,104.16,36.69,156.36,54.68,7.86,2.71,10.97,5.61,7.15,14.12Z"/>
  <path class="cls-1" d="m114.04,351.31c1.91,10.03,4.12,20,6.26,29.98,5.71,26.62,21.05,36.48,47.69,30.83,28.93-6.14,57.88-12.19,86.82-18.27,56.85-11.95,113.72-23.75,170.52-35.91,17.59-3.77,28.02-16.83,28.04-36.89-1.9-9.51-4.33-22.29-7.01-35.02-5.72-27.16-21.23-36.93-48.53-31.08-29.26,6.27-58.58,12.25-87.87,18.42-55.81,11.77-111.63,23.5-167.41,35.42-22.42,4.79-32.73,20.36-28.51,42.52Zm56.73-16.27c77.16-16.22,154.35-32.32,231.49-48.67,7.9-1.67,12.43-1.18,13.47,8.48,1.08,10.04,4,19.89,6.43,31.35-89.79,18.86-178.8,37.55-269.1,56.52-3.09-14.61-5.77-27.29-8.79-41.6,9.02-2.08,17.73-4.23,26.49-6.07Z"/>
  <path class="cls-1" d="m232.74,825.77c-12.48,2.63-18.35,11.85-14.29,22.12,3.15,7.98,10.91,10.94,22.29,8.57,66.48-13.88,132.97-27.71,199.44-41.64,31.34-6.57,62.64-13.34,93.98-19.93,9.01-1.89,14.57-6.65,14.8-15.29-.19-11.78-8.73-18.15-20.68-15.72-34.49,7.02-68.91,14.32-103.36,21.54-64.06,13.43-128.13,26.86-192.18,40.34Z"/>
</svg>