<?xml version="1.0" encoding="UTF-8"?>
<svg id="Layer_1" data-name="Layer 1" xmlns="http://www.w3.org/2000/svg" viewBox="0 0 1080 1080">
  <defs>
    <style>
      .cls-1 {
        fill: #ffffff;
      }
    </style>
  </defs>
  <path class="cls-1" d="m874.6,669.29c-25.65,4.84-48.75,15.85-71.08,28.89-55.99,32.7-112.01,65.36-168.12,97.87-7.29,4.22-15.14,7.46-25.23,12.37,2.19-6.13,3.34-9.07,4.3-12.07,11.75-36.52-10.04-77.93-47.53-85.71-53.79-11.17-105.55-28.48-156.51-48.23-38.63-14.97-76.15-16.01-113.61,2.24-11.71,5.7-23.19,11.93-34.49,18.41-40.16,23.06-80.19,46.33-121.07,69.98-3.91-6.77-7.39-13.04-11.1-19.18-13.09-21.68-37.11-28.72-59.17-16.87-16.59,8.91-32.98,18.22-49.13,27.9-21.09,12.64-28.03,36.88-15.9,58.47,47.71,84.97,95.71,169.78,143.95,254.45,12.27,21.54,36.39,28.13,58.31,16.54,16.65-8.8,33.06-18.07,49.2-27.77,21.75-13.08,27.99-36.75,16.13-59.32-4.17-7.94-8.69-15.7-12.91-23.28,15.11-12.8,29.76-16.87,49.84-10.98,65.28,19.16,131.38,35.47,197.02,53.42,40.87,11.18,78.66,5.32,114.57-16.9,102.6-63.47,205.4-126.62,308.08-189.95,28.58-17.63,40.95-49.39,32.06-81.68-10.2-37.07-45.39-56.58-87.61-48.61ZM237.69,1017.9c-14.55,8.1-29.08,16.24-43.46,24.64-7.37,4.31-12.02,2.08-15.94-4.86-46.83-82.92-93.73-165.8-140.66-248.67-3.37-5.95-3.46-11.12,2.97-14.82,15.38-8.85,30.84-17.55,46.31-26.23,1.53-.86,3.38-1.15,7.25-2.41,2.8,3.46,6.59,7.03,9.05,11.36,40.95,72.1,81.74,144.3,122.56,216.47,5.35,9.46,10.5,19.03,16.07,28.35,4.2,7.03,3.08,12.13-4.15,16.16Zm674.41-248.04c-102.71,63.31-205.53,126.43-308.11,189.96-28.25,17.5-57.58,21.37-89.54,12.6-71.91-19.74-144.06-38.57-215.99-58.25-11.39-3.12-21.03-2.47-30.79,4.27-7.41,5.11-15.6,9.09-24.82,14.36-28.34-50.06-56.12-99.15-84.18-148.73,2.15-1.6,3.72-3.01,5.5-4.05,42.32-24.51,84.56-49.16,127.08-73.33,10.65-6.05,21.95-11.19,33.41-15.57,20.38-7.79,40.74-6.98,61.62,0,49.39,16.55,99.1,32.16,148.74,47.95,6.52,2.07,13.46,2.82,20.15,4.42,18.93,4.53,29.98,19.63,27.37,37.2-2.61,17.57-16.25,27.68-36.87,24.97-14.99-1.97-29.73-6.23-44.42-10.09-23.1-6.08-46.04-12.79-69.1-19.04-11.38-3.08-20.78,1.74-23.34,11.5-2.52,9.61,2.46,18.81,13.23,21.57,44.5,11.43,88.94,23.18,133.75,33.27,35.05,7.89,68.08.8,99.14-17.63,55.14-32.73,110.46-65.18,166.27-96.74,16.86-9.53,35.44-16.13,53.54-23.29,5.53-2.19,12.09-2.31,18.2-2.43,18.51-.37,31.01,7.91,35.37,22.84,5.34,18.27-.53,34.56-16.2,44.23Z"/>
  <path class="cls-1" d="m369.25,337.79c-.77,3.16-1.04,6.44-1.46,9.67-4.18,32.17,11.14,59.77,40.69,73.3,4.91,2.25,9.87,4.39,15.85,7.04-21.31,45.77-42.4,90.26-62.49,135.2-2.66,5.95-2.3,15.09.36,21.13,3.35,7.63,11.98,7.81,20.09,6.3,19.23-3.56,38.63-6.27,57.77-10.25,7.46-1.55,11.04.36,14.56,6.82,9,16.54,18.87,32.61,28.19,48.99,4.33,7.61,9.24,14.03,19.16,13.48,9.95-.56,13.92-7.71,17.56-15.57,19.48-42.07,38.96-84.13,58.89-125.99,1.84-3.87,6.39-7.34,10.49-9.06,15.03-6.3,29.27.05,43.22,4.7,4.39,1.47,9.21,5.77,11.1,9.99,14.22,31.72,27.84,63.7,41.44,95.7,3.18,7.49,7.37,13.46,16.07,14.29,9.23.88,14.62-4.59,19.04-11.88,9.59-15.8,19.87-31.19,29-47.25,4.47-7.87,9.02-10.31,18.15-8.01,18.59,4.7,37.47,8.37,56.36,11.73,18.29,3.26,27.94-9.01,20.88-26.19-6.74-16.41-13.95-32.63-20.95-48.94-9.96-23.2-19.92-46.4-29.97-69.8,1.92-1.27,3.04-2.15,4.27-2.8,30.35-16.15,45.06-39.22,39-72.8-5.92-32.8.67-60.74,16.57-89.1,15.59-27.79,8.83-58.14-14.13-80.45-7.54-7.33-16.24-13.71-22.65-21.9-6.49-8.29-12-17.84-15.75-27.67-4.22-11.08-5.53-23.23-8.92-34.67-7.96-26.88-31.48-45.8-58.54-47.97-60.45-4.84-40.65,3.84-90.02-32.05-25.71-18.7-56.06-18.25-81.93.54-9.09,6.6-17.55,14.25-27.2,19.86-7.59,4.4-16.38,7.42-25.02,9.17-9.15,1.86-18.76,1.56-28.17,2.08-39.61,2.19-62.34,20.44-69.9,59.91-5.21,27.19-16.77,48.72-38,67.07-33.15,28.64-37.65,56.17-16.6,94.8,12.3,22.58,19.23,45.07,13.01,70.57Zm130.01,256.92c-8.27-14.17-15.64-26.87-23.09-39.54-7.32-12.45-11.92-14.48-25.8-11.98-14.19,2.56-28.41,4.98-44.92,7.86,16.7-35.96,32.68-70.36,49.71-107.04,5.88,8.69,11.28,15.63,15.57,23.19,14.63,25.79,34.55,43.58,67.18,44.41-13.02,27.99-25.47,54.75-38.65,83.09Zm300.99-66.95c-15.09-3-28.12-5.48-41.1-8.19-18.58-3.87-21.66-2.6-31.83,13.8-7.04,11.34-14.1,22.67-22.05,35.45-8.67-20.09-16.75-38.83-25.2-58.43,25.27-4.76,40.54-20.68,52.9-40.92,7.19-11.77,16.21-22.43,24.4-33.59,1.26.4,2.51.8,3.77,1.2,12.75,29.58,25.51,59.15,39.1,90.68ZM389.21,204.66c33-25.65,51.47-58.53,57.39-99.75,2.18-15.15,14.95-23.31,30.72-24.43,2.17-.15,4.35-.42,6.51-.32,36.3,1.72,67.24-10.5,94.23-34.64,6.38-5.71,15.42-8.45,22.64-12.24,7.44,2.56,12.96,4.15,18.2,6.4,2.93,1.26,5.66,3.32,8.02,5.53,27.1,25.37,59.26,35.88,96.2,35.35,22.58-.33,31.87,8.67,37.18,30.4,1.03,4.22,2.23,8.43,2.87,12.71,4.13,27.37,17.43,48.98,38.26,67.33,30.86,27.19,32.02,32.58,12.24,68.48-14.44,26.23-18.19,52.96-12.56,81.76,1.04,5.31,1.44,10.79,1.61,16.2.46,14.13-6.02,24.3-18.54,30.57-5.17,2.59-10.44,5.1-15.91,6.93-28.12,9.4-49.2,26.99-63.29,53.1-2.74,5.08-5.99,9.96-9.54,14.52-9.07,11.67-20.79,16.56-35.45,12.53-11.16-3.07-22.32-6.18-33.36-9.63-16.07-5.02-32.01-5.11-48.07-.04-10.35,3.27-20.76,6.36-31.23,9.19-17.13,4.64-29.55.04-39.53-14.53-5.12-7.47-10.1-15.04-14.86-22.75-10.64-17.23-25.1-29.75-44.09-37.06-8.1-3.12-15.97-6.82-23.92-10.32-18.01-7.92-24.89-20.17-22.41-39.88,1.04-8.27,2.21-16.52,3.24-24.79,2.34-18.78.31-36.8-8.8-53.77-5.13-9.56-10.03-19.28-14.55-29.14-6.43-14.03-5.21-28.38,6.8-37.72Z"/>
  <path class="cls-1" d="m84.72,779.74c-9.3-.32-17.44,7.26-17.88,16.64-.46,9.96,7.32,18.08,17.32,18.07,9.55,0,17.27-7.53,17.42-16.98.15-9.27-7.6-17.42-16.87-17.74Z"/>
  <path class="cls-1" d="m602.2,415.55c87.97.18,159.79-71.62,159.82-159.79.03-88.21-71.57-159.79-159.76-159.72-87.65.07-158.97,71.37-159.17,159.12-.2,88.31,71.12,160.21,159.12,160.39Zm2.08-284.65c68.51.95,124.02,58.02,122.91,126.35-1.13,69.34-58.34,124.94-127.03,123.47-68.68-1.47-123.18-58.14-122.21-127.05.97-68.62,57.67-123.73,126.33-122.77Z"/>
  <path class="cls-1" d="m553.9,313.08c12.63,12.57,19.38,12.91,32.43,1.14,33.92-30.62,67.73-61.36,101.56-92.08,1.87-1.7,3.88-3.4,5.23-5.49,4.85-7.54,4.97-15.24-1.27-21.95-6.23-6.71-13.93-7.42-21.71-2.8-3.38,2-6.2,4.98-9.15,7.65-29.81,27.01-59.6,54.04-90.38,81.96-10.52-10.8-20.45-21.27-30.7-31.42-8.58-8.49-18.75-9.18-26.03-2.27-7.69,7.3-7.23,17.76,1.59,26.77,12.69,12.96,25.58,25.71,38.44,38.5Z"/>
</svg>