<?xml version="1.0" encoding="UTF-8"?>
<svg id="Layer_1" data-name="Layer 1" xmlns="http://www.w3.org/2000/svg" viewBox="0 0 1080 1080">
  <defs>
    <style>
      .cls-1 {
        fill: #ffffff;
      }
    </style>
  </defs>
  <path class="cls-1" d="m77.51,1017.12c100.52-1.21,201.06-.41,301.59-.41h12.3c7.61,44.66,29.69,63.28,74.1,63.28,50.97,0,101.94.02,152.91,0,40.08-.02,64.27-21.4,69.48-61.28.07-.53.79-.98,1.66-2h12.12c104.4,0,208.8.09,313.2-.05,36.93-.05,64.97-27.03,65-63.27.19-212.31.19-424.63,0-636.94-.03-35.88-27.81-62.82-63.92-63.3-6.55-.09-13.1-.01-20.35-.01,0-12.85.02-24.39,0-35.93-.04-20.31-6.99-27.34-27.19-27.35-52.73-.03-105.46-.19-158.18.2-7.38.05-10.21-2.5-12.65-9.05-27.42-73.46-77-126.3-148.65-158.26-17.65-7.88-29.5-5.02-34.97,7.9-5.39,12.73.72,22.85,18.53,30.7,100.81,44.46,157.49,152.73,134.67,259.29-14.08,65.77-50,117.11-107.88,151.82-31.47,18.87-46.53,45.55-45.5,81.85.14,4.8.02,9.6.02,14.49h-52.74v-12.21c0-65.03.31-130.06-.29-195.09-.1-11.25,3.27-18.95,11.22-26.43,15.62-14.67,30.65-30,45.5-45.46,9.17-9.56,9.01-21.69.58-30.15-8.45-8.48-20.55-8.6-30.15.44-10.74,10.12-21.15,20.61-31.35,31.28-5.26,5.5-9.75,11.73-15.13,18.29-17.51-17.65-32.24-32.69-47.21-47.5-11.04-10.92-23.35-11.67-32.46-2.41-9.07,9.22-8.11,21.31,2.91,32.47,15.81,16,32.07,31.57,47.48,47.95,3.6,3.82,6.4,10.13,6.43,15.31.42,67.84.29,135.68.26,203.52,0,3.38-.3,6.76-.45,9.89h-52.27c0-2.93-.12-5.04.02-7.12,2.83-41.79-14.93-70.42-50.87-92.75-104.97-65.2-138.22-201.57-77.12-308.99,25.66-45.11,62.87-77.76,110.34-98.83,5.32-2.36,10.83-5.46,14.7-9.65,6.46-7,5.9-17.69.11-25.28-6.23-8.17-15.98-10.31-27.55-5.32-73.39,31.63-124.93,84.43-153.19,159.36-2.79,7.39-6.12,9.99-14.17,9.92-52.72-.41-105.45-.24-158.18-.19-18.17.02-25.75,7.54-25.86,25.48-.07,12.48-.01,24.97-.01,37.78-6.92,0-12.18.11-17.44-.02-20.95-.5-39.15,6.36-51.9,23.02-6.64,8.67-10.13,19.74-15.04,29.73v658.12c11.04,39.74,39.34,53.6,77.52,53.14Zm918.09-112.55c.01-198.63,0-397.26,0-595.89v-13.25c8.28,0,15.61-.46,22.85.11,10.45.82,18.06,8.72,19.17,19.18.33,3.13.17,6.32.17,9.48,0,207.07,0,414.14,0,621.2,0,22.83-6.41,29.12-29.68,29.12-104.41,0-208.83,0-313.24,0-31.36,0-45.7,12.63-49.53,43.57-1.38,11.14-8.92,19.22-20,19.48-21.01.49-42.04.14-64.2.14,0-22.9-.57-44.34.16-65.73.78-22.88,19.51-39.56,43.63-39.61,60.82-.13,121.64-.04,182.46-.04,60.12,0,120.23.01,180.35,0,20.89,0,27.85-6.93,27.85-27.76Zm-339.75-249.02c.49-34.44.41-68.9.04-103.34-.2-18.96,7.07-32.46,23.61-42.55,74.31-45.31,118.87-111.38,131.49-197.36,3.77-25.72.58-52.47.58-79.51h140.99v657.36h-11.81c-101.94,0-203.88-.04-305.82.03-24.78.02-49.99-2.87-73.53,11.02v-162c8.81-.9,17.51-1.18,25.98-2.75,39.26-7.26,67.88-40.86,68.46-80.92Zm-189.56-43.44h147.05c0,16.41,1.34,32.58-.33,48.43-2.16,20.48-19.98,35.11-40.89,35.46-21.43.35-42.88.37-64.31,0-22.09-.39-40.14-17.05-41.35-38.62-.83-14.68-.16-29.44-.16-45.27ZM127.3,232.4h140.88c-.27,4.76-.45,9.16-.78,13.54-8.3,112.94,35.04,200.53,130.11,261.75,18.29,11.78,27.2,25.71,26.66,47.33-.78,30.92-.22,61.87-.19,92.8.04,54.61,34.3,89.34,89.18,90.47,1.39.03,2.78.18,4.95.32v162.25c-27.03-15.5-56.58-10.43-85.39-10.55-97.37-.4-194.75-.15-292.13-.15h-13.3V232.4Zm-54.63,62.91c3.46,0,6.92,0,11.7,0v12.94c0,198.28,0,396.56,0,594.84,0,23.02,6.29,29.25,29.52,29.25,118.83,0,237.66,0,356.48,0,32.14,0,48.49,16.43,48.52,48.71.02,18.55,0,37.09,0,56.73-22.05,0-42.43.24-62.8-.09-12.33-.2-20.2-8.04-21.52-20.21-3.17-29.2-18.49-42.94-48.02-42.95-105.12-.01-210.23,0-315.35,0-22.49,0-29.03-6.46-29.03-28.69,0-206.72,0-413.44,0-620.15,0-24.55,5.89-30.41,30.5-30.38Z"/>
  <path class="cls-1" d="m520.02,27.22c2.93,9.23,9.71,14.56,19.43,14.77,10.21.22,17.34-5.11,20.46-14.76,3.18-9.84-.42-17.73-8.58-23.71-1.65-1.21-3.35-2.34-5.02-3.51h-12.66c-1.68,1.17-3.38,2.3-5.03,3.51-8.18,5.97-11.72,13.87-8.6,23.71Z"/>
</svg>