<?xml version="1.0" encoding="UTF-8"?>
<svg id="Layer_1" data-name="Layer 1" xmlns="http://www.w3.org/2000/svg" viewBox="0 0 1080 1080">
  <defs>
    <style>
      .cls-1 {
        fill: #ffffff;
      }
    </style>
  </defs>
  <path class="cls-1" d="m596.08,43.83c-262.28,42.96-416.24,330.35-306.5,572.91,5.69,12.57,4.35,19.43-5.38,29.06-87.38,86.5-173.78,173.98-261.32,260.31-25.43,25.08-31.02,52.87-18.45,84.69,15.04,38.05,42.01,65.44,79.72,81.48,35.27,15,60.36,9.63,87.42-17.39,83.33-83.23,166.67-166.47,250.02-249.68,4.42-4.41,9.02-8.63,13.35-12.75,98.41,63.32,196.62,78.52,291.62,65.94,221.97-29.4,383.99-247.22,348.45-469.23C1038.07,158.32,826.85,6.03,596.08,43.83Zm-201.72,738.61c-82.92,82.89-166.13,165.47-248.56,248.84-13.98,14.14-28.17,16.26-45.08,9.5-30.99-12.38-52.73-34.33-64.22-65.62-5.15-14.03-4.86-27.47,7.31-39.58,87.62-87.12,174.87-174.61,262.27-261.95,2.33-2.33,5.03-4.28,5.9-5.01,30.49,34.76,60.23,68.67,91.3,104.08-1.55,1.7-5.07,5.88-8.92,9.73Zm271.62,44.86c-209.07-.47-377.24-169.69-376.62-378.99.61-206.79,170.09-375.7,376.96-375.68,208.26.02,378.89,170.92,377.99,378.6-.9,207.91-170.55,376.54-378.33,376.08Z"/>
  <path class="cls-1" d="m853.18,429.85c-3.06,4.97-9.17,11.29-13.99,11.39-17.16.34-34.42-1.27-51.52-3.25-3.85-.45-9.67-4.87-10.36-8.31-6.15-30.91-23.07-54.55-48.79-73.89,7.1-17.62,14.09-34.95,20.73-51.44,15.12,0,29.3,2.56,42.15-.47,41.07-9.69,63.12-52.16,49.06-91.23-13.71-38.13-57.89-56.9-94.7-40.23-37.82,17.12-51.99,61.5-31.9,98.87,2.44,4.55,5.27,11,3.83,15.16-6.31,18.3-14.11,36.08-21.77,55.04-39.95-10.14-74.37.62-106.7,25.8-8.99-9.73-16.63-19.13-25.45-27.24-9.31-8.55-12-15.33-6.49-28.99,19.66-48.82-24.11-101.19-75.71-92.5-41.18,6.94-66.6,44.26-57.75,84.78,8.64,39.55,48.92,62.58,88.93,51.41,5.18-1.45,12.99-1.89,16.62.96,14.37,11.31,27.57,24.12,40.68,35.9-18.16,35.08-19.65,67.44-8.28,101.02-17.54,11.06-34.78,21.35-51.33,32.63-7.86,5.35-13.13,4.97-21.16-.54-28.52-19.56-64.51-16.01-88.39,7.38-23.42,22.95-27.7,59.09-10.3,86.98,17.34,27.79,51.93,39.87,82.74,28.9,31.82-11.33,50.05-41.79,46.34-76.02-.48-4.45,1.68-11.39,5.02-13.67,17.94-12.27,36.64-23.44,55.71-35.38,25.5,27.83,56.72,41.2,94.84,39.55,3.52,18.93,6.42,36.97,10.35,54.78,2.58,11.7.4,19.58-9.51,27.98-24.51,20.79-29.89,55.01-15.3,83.1,15.25,29.36,47.77,44.01,80,36.05,29.05-7.18,51.44-35.08,52.34-65.26.97-32.6-19.19-60.55-50.62-69.79-6.43-1.89-13.1-2.95-19.88-4.44-2.83-15.39-4.45-30.32-8.49-44.56-4.98-17.55-2.7-29.15,15.63-38.13,11.19-5.48,20.59-16.68,28.01-27.26,8.69-12.39,14.35-26.9,21.7-41.22,17.45,1.11,35.18,2.65,52.94,3.22,9.43.3,13.4,4.15,16.92,13.12,13.88,35.4,50.75,52.68,85.62,41.47,30.56-9.83,49.75-37.08,48.79-69.33-.91-30.71-22.36-57.61-52.07-65.29-30.74-7.95-61.45,5.32-78.48,32.96Zm-77.77-227.78c19.29.45,34.81,16.79,33.92,35.71-.86,18.26-16.71,33.51-34.85,33.52-19.08,0-34.7-15.99-34.46-35.28.25-19.57,15.71-34.41,35.38-33.95Zm-283.4,120.6c-19.09,0-34.51-15.88-34.3-35.34.21-19.65,15.51-34.3,35.35-33.83,18.73.44,33.69,15.45,33.87,33.97.18,18.75-16.13,35.19-34.92,35.2Zm-42.73,293.94c-19.14-.33-34.56-16.64-33.85-35.81.68-18.58,15.97-33.36,34.55-33.38,19.12-.02,35.13,15.99,34.89,34.92-.23,19.02-16.41,34.6-35.59,34.26Zm273.25,45.03c18.82-.3,35.31,15.82,35.44,34.64.14,19.04-15.73,34.62-35.16,34.53-19.71-.09-34.46-15.3-34.08-35.13.36-18.81,15.19-33.75,33.8-34.04Zm-55.18-134.5c-43.19.24-77.81-34.08-77.82-77.16-.01-42.1,34.05-76.48,76.36-77.06,42.2-.59,78.21,35.1,78.12,77.41-.08,41.91-34.68,76.58-76.66,76.8Zm281.14-62.61c.11,19.52-15.21,34.91-34.68,34.85-19.3-.07-34.76-15.84-34.46-35.16.29-18.65,15.23-33.6,33.91-33.95,19.47-.36,35.12,14.86,35.23,34.27Z"/>
</svg>