<?xml version="1.0" encoding="UTF-8"?>
<svg id="Layer_1" data-name="Layer 1" xmlns="http://www.w3.org/2000/svg" viewBox="0 0 1080 1080">
  <defs>
    <style>
      .cls-1 {
        fill: #ffffff;
      }
    </style>
  </defs>
  <path class="cls-1" d="m990.33,78.01c-.96.35-2.02.4-3.91.74-6.99-17.46-18.52-31-36.43-38.2-17.62-7.08-34.99-5.53-51.87,2.41-23.94-53.56-84.93-55.29-113.26-14.91-10.24-3.17-19.94-7.72-30.05-9.01-25.29-3.24-45.35,6.69-59.33,27.98-3.2,4.87-6.13,7.39-12.35,7.36-54.81-.26-109.62,0-164.43-.39-5.96-.04-12.49-2.22-17.73-5.21-21.65-12.34-43-25.21-64.26-38.23C424.98,3.38,412.63-.03,398.8,0c-86.78.22-173.57.02-260.36.16-33.48.06-60.36,21.83-64.84,54.47-1.69,12.32,1.91,25.37,3.28,39.95-15.03,5.92-28.62,17.43-35.81,35.26-7.09,17.6-5.89,35.03,2.71,52.8-23.76,9.88-39.37,26.63-42.65,52.15-3.3,25.69,7.41,45.78,27.7,60.21-3.26,9.96-7.78,19.24-9.21,28.98-3.78,25.72,6.09,46.26,27.63,60.49,5.93,3.92,7.52,7.91,7.5,14.46-.21,53.42.12,106.84-.39,160.25-.07,7.29-2.56,15.26-6.16,21.67-11.84,21.12-24.55,41.77-37.23,62.4-7.2,11.72-10.58,24.12-10.55,37.93.2,85.05,1.44,170.12-.4,255.13-1.12,51.43,47.94,86.54,90.66,65.44.86-.43,2.03-.24,3-.34,18.57,41.21,55.74,50.39,89.87,35.42,8.18,23.26,25.83,36.33,48.88,42.98h21.08c17.18-5.12,32.46-13.05,41.68-28.69,9.46,3.4,17.98,7.97,27,9.41,26.77,4.27,48.36-5.14,63.14-28.12,3.35-5.2,6.8-6.86,12.63-6.84,54.38.17,108.77-.07,163.15.34,6.28.05,13.14,2.29,18.7,5.37,17.16,9.52,33.65,20.23,50.72,29.91,11.8,6.69,24.12,12.44,36.22,18.61h288.85c2.16-.92,4.26-2.01,6.49-2.75,36.9-12.13,54.46-48.52,40.89-84.8-.6-1.61-1.18-3.23-2.14-5.88,17.87-6.98,31.38-18.54,38.59-36.32,7.12-17.57,5.81-34.97-2.76-53.05,23.51-8.61,36.67-26.14,43.33-49.18v-21.09c-5.2-17.16-13.13-32.48-28.22-41.39,3.38-11.15,7.95-21.17,9.28-31.6,3.12-24.45-6.74-44.03-26.98-57.65-6.44-4.33-8.41-8.66-8.37-16.08.31-52.61-.1-105.23.46-157.84.08-7.95,2.69-16.57,6.46-23.64,8.88-16.68,19.47-32.45,28.79-48.91,6.68-11.8,12.43-24.12,18.59-36.21V124.52c-.61-.8-1.49-1.52-1.78-2.43-13.42-42.19-46.84-58.97-87.89-44.09ZM36.74,246.35c-1.81-11.06,5.25-23.98,16.34-27.87,5.48-1.92,11.68-2.44,17.56-2.48,33.73-.22,67.46-.1,101.2-.11,18.02,0,26.78-6,26.58-18.11-.2-12.04-9.02-17.89-27.05-17.9-22.84-.01-45.68.12-68.52-.05-18.21-.14-30.34-10.87-30.41-26.47-.07-15.21,12.72-26.94,30.24-27.04,35.14-.2,70.27-.06,105.41-.1,3.51,0,7.08.16,10.51-.42,9.53-1.59,16.02-9.3,15.76-18.22-.29-9.54-7.4-16.97-17.78-17.12-23.89-.37-47.78-.15-71.68-.22-3.86,0-7.76.09-11.57-.39-14.65-1.88-25.02-13.11-24.93-26.69.09-13.09,11.24-25.1,25.21-26.86,3.81-.48,7.72-.27,11.58-.27,83.63-.01,167.26-.2,250.88.29,8.25.05,17.27,2.87,24.57,6.88,20.6,11.31,40.64,23.68,60.61,36.1,12.36,7.69,25.5,11.06,39.96,11.01,49.54-.19,99.09-.07,148.63-.07h13.71v159.04c-10.93-8.85-20.39-16.96-30.3-24.44-33.74-25.47-81.96-10.3-92.47,29.61-2.67,10.16-1.49,21.33-2.17,33.64-13.49,0-28.51.88-43.38-.2-25-1.81-44.16,7.08-61.78,25.05-53.4,54.43-107.98,107.7-162.28,161.24-4.37,4.31-9.65,8.71-15.31,10.47-9.49,2.96-18.27-.31-23.84-8.97-5.75-8.94-5.15-18.2,1.47-26.46,14.28-17.82,28.88-35.38,43.3-53.1,2.65-3.26,5.5-6.49,7.42-10.18,5.71-10.99-.9-23.66-13.16-25.4-3.8-.54-7.71-.34-11.57-.34-62.54-.02-125.09,0-187.63-.05-4.55,0-9.18-.02-13.63-.82-14.9-2.68-24.45-14.8-23.29-29.06,1.11-13.65,12.17-24.03,27.14-24.2,29.86-.34,59.73-.12,89.6-.13,17.94,0,26.82-5.97,26.79-17.97-.03-11.98-8.95-17.93-26.86-17.94-35.49-.01-70.98.16-106.47-.13-14.59-.12-26.19-10.23-28.37-23.55Zm719,332.99c-.12,4.94-2.57,11.02-6.03,14.5-51.11,51.23-102.64,102.04-153.87,153.16-6.19,6.17-12.82,8.97-21.5,8.87-24.59-.3-49.18.24-73.76-.39-4.91-.13-10.92-2.74-14.41-6.23-50.97-50.88-101.52-102.18-152.4-153.14-6.42-6.43-9.53-13.21-9.4-22.33.37-24.59-.17-49.19.38-73.77.1-4.63,2.4-10.36,5.65-13.61,51.39-51.45,102.94-102.74,154.99-153.52,4.91-4.79,13.22-7.57,20.28-8.34,12.15-1.34,24.55-.37,42.89-.37,28.62-9.47,50.58,8.65,72.69,32.48,40.37,43.49,83.11,84.79,125.12,126.73,6.7,6.69,9.93,13.74,9.76,23.26-.41,24.24.2,48.49-.41,72.72Zm-393.03,204.29c-1.89,4.26-2.08,9.53-2.09,14.34-.13,56.21-.08,112.43-.09,168.64,0,10.19.34,20.4-.19,30.56-.77,14.75-10.08,25.81-22.68,27.97-17.05,2.91-31.08-9.47-31.27-28.26-.28-27.75-.08-55.51-.08-83.27,0-2.81.01-5.62,0-8.43-.08-14.86-6.88-23.55-18.24-23.33-11,.21-17.63,8.71-17.66,22.88-.05,24.95-.01,49.89-.02,74.84,0,11.24.13,22.49-.04,33.73-.27,17.3-11.87,30.28-27.02,30.48-15.45.21-26.8-11.97-26.96-30.1-.3-35.13-.09-70.27-.11-105.4-.01-17.94-6.1-26.73-18.25-26.42-11.78.29-17.73,9.02-17.75,26.13-.02,23.19.12,46.38-.05,69.57-.14,18.18-10.95,30.29-26.57,30.28-15.24,0-26.83-12.74-26.93-30.32-.2-34.78-.07-69.56-.08-104.35,0-3.16.17-6.35-.15-9.48-1.11-10.78-8.84-18.09-18.55-17.77-9.91.33-17.02,7.69-17.14,18.88-.27,24.94.23,49.9-.35,74.83-.15,6.75-1.77,14.1-4.9,20.02-5.08,9.63-17.25,13.92-27.18,11.44-11.62-2.9-20.14-12.41-21.66-24.45-.39-3.12-.26-6.31-.26-9.47-.01-84.67-.17-169.35.26-254.02.04-7.61,2.53-15.98,6.26-22.67,11.79-21.14,24.55-41.75,37.26-62.36,7.24-11.74,10.5-24.27,10.46-37.99-.13-49.89-.05-99.78-.05-149.67v-13.78h158.87c-9.31,11.6-18.1,21.82-26.09,32.64-24.73,33.46-8.32,80.92,31.84,90.45,10.17,2.41,21.39.36,33.19.36,0,17.61.46,34.78-.12,51.92-.68,19.87,6.23,35.78,20.37,49.88,55.73,55.55,110.99,111.58,166.23,167.63,4.28,4.34,8.53,9.75,10.18,15.42,2.79,9.58-.75,18.24-9.58,23.55-9.08,5.47-18.21,4.55-26.44-2.12-19.37-15.7-38.5-31.71-57.98-47.28-10.67-8.53-23.51-6.5-28.41,4.52Zm681.27,53.62c-.1,14.82-11.59,26.12-28.33,26.6-18.96.54-37.94.16-56.92.18-18.27.01-36.54-.1-54.81.04-13.64.11-21.63,6.67-21.82,17.51-.2,11.12,8.28,18.31,22.27,18.41,22.49.15,44.97.04,67.46.05,3.16,0,6.33-.06,9.48.11,15.19.83,26.31,11.6,26.74,25.84.43,14.03-11.48,26.88-26.54,27.4-17.2.59-34.43.26-51.64.28-21.08.03-42.16-.16-63.24.09-12.4.15-20.45,7.54-20.5,18-.05,10.59,7.81,17.74,20.37,17.84,25.65.19,51.3-.24,76.94.22,17.04.31,29.09,12.38,28.65,27.42-.42,14.27-12.99,25.9-28.85,26.61-2.81.13-5.62.06-8.43.06-29.16,0-58.32,0-87.49,0-54.46,0-108.92.27-163.38-.29-7.94-.08-16.61-2.71-23.61-6.58-20.88-11.55-41.21-24.09-61.51-36.66-12.05-7.46-24.87-10.81-38.97-10.76-50.24.17-100.49.06-150.73.06h-12.02v-158.97c10.97,8.89,20.44,17.08,30.43,24.57,33.75,25.3,81.96,9.8,92.29-30.18,2.63-10.17,1.36-21.35,1.94-33.26,16.08,0,33.24-.49,50.36.13,20.32.74,36.36-6.63,50.7-21.02,55.3-55.51,111.11-110.52,166.92-165.52,4.35-4.29,9.75-8.55,15.43-10.21,9.58-2.81,18.24.75,23.62,9.5,5.58,9.07,4.57,18.26-2.02,26.47-13.64,16.98-27.54,33.75-41.33,50.62-2.44,2.99-6.05,5.69-6.98,9.11-1.64,6-3.99,13.59-1.67,18.39,2.32,4.81,9.7,7.76,15.45,10.1,3.63,1.47,8.32.34,12.54.34,61.14,0,122.27,0,183.41.02,4.21,0,8.47-.11,12.62.49,15.52,2.24,25.75,14.33,24.79,28.92-.93,14.12-12.16,24.55-27.74,24.71-29.16.3-58.32.09-87.49.1-3.16,0-6.33-.11-9.49.04-10.88.51-18.53,7.65-18.81,17.42-.29,10.05,7.7,18.22,18.96,18.35,24.59.28,49.19.09,73.78.1,13.35,0,26.71-.21,40.05.08,16.43.35,29.19,12.53,29.09,27.28Zm-.16-440.72c-.04,7.6-2.54,15.94-6.24,22.64-11.37,20.57-23.55,40.72-36.08,60.61-8.38,13.29-11.81,27.36-11.72,42.93.29,49.54.11,99.08.11,148.62v11.84h-159.05c8-9.82,15.04-18.66,22.3-27.33,10.86-12.97,16.66-27.68,14.82-44.69-3.79-34.94-34.13-57.43-68.8-51.36-1.99.35-4,.55-7.08.96,0-18.16-.45-35.68.12-53.16.65-19.9-6.46-35.73-20.57-49.81-55.7-55.59-110.94-111.64-166.15-167.71-4.27-4.34-8.42-9.78-10.12-15.46-2.74-9.18.9-17.32,9.01-22.86,8.1-5.54,18.78-5.01,27.45,1.9,16.48,13.14,32.67,26.63,48.98,39.97,2.99,2.45,5.63,6.02,9.05,7.08,6.26,1.95,13.35,4.27,19.41,3.04,8-1.62,10.75-9.19,10.74-17.31-.04-22.84,0-45.68,0-68.51,0-43.22-.42-86.44.37-129.64.16-8.5,3.44-17.94,8.11-25.12,5.89-9.05,18.75-11.14,28.53-7.01,11.62,4.9,17.12,14.13,17.17,26.53.11,29.16.04,58.33.05,87.49,0,2.81-.07,5.62.03,8.43.43,11.45,7.81,19.46,17.86,19.47,10.01,0,17.86-8.05,17.93-19.43.2-35.49.08-70.97.09-106.46,0-3.51-.17-7.05.2-10.53,1.47-13.92,13.3-25.22,26.49-25.52,13.59-.31,25.28,9.93,26.83,24.54.92,8.69.56,17.54.58,26.31.06,29.87-.07,59.73.08,89.6.06,13.43,7.05,21.54,17.87,21.47,10.74-.07,17.91-8.34,18.01-21.62.19-24.59-.05-49.19.11-73.78.12-18.32,10.66-30.37,26.27-30.56,15.58-.19,27.17,12.75,27.26,31.08.17,34.78.05,69.57.06,104.35,0,2.81-.15,5.64.12,8.43,1.02,10.8,8.6,18.21,18.3,18.05,9.89-.16,17.27-7.55,17.41-18.63.3-24.59-.04-49.19.26-73.78.07-5.86.72-12.06,2.75-17.49,4-10.71,16.43-17.43,27.14-15.86,12.15,1.78,22.17,12.05,23.89,24.79.47,3.46.31,7.01.31,10.52.01,84.33.17,168.65-.26,252.97Z"/>
</svg>