<?xml version="1.0" encoding="UTF-8"?>
<svg id="Layer_1" data-name="Layer 1" xmlns="http://www.w3.org/2000/svg" viewBox="0 0 1080 1080">
  <defs>
    <style>
      .cls-1 {
        fill: #c75495;
      }
    </style>
  </defs>
  <path class="cls-1" d="m705.72,1006.5c-51.3-1.01-98.44-22.47-139.45-52.13-41.99-30.37-76.64-68.48-113.26-104.77-34.66-34.34-71.65-66.68-113.05-92.69-20.38-12.8-41.76-23.98-63.98-33.23-23.73-9.87-48.29-16.7-73.09-23.26-46.78-12.37-95.44-25.47-133.46-56.97-39.62-32.83-60.41-81.49-63.7-132.24-3.44-53,12.01-104.76,36.24-151.45,24.43-47.07,56.8-90.31,91.58-130.21,65.26-74.88,145.14-139.43,237.5-177.53,46.9-19.35,96.7-31.47,147.38-34.64,57.13-3.58,114.73,3.7,169.56,19.96,49.8,14.77,97.05,37.2,141.06,64.68,42.12,26.31,81.46,57.53,115.22,94.02,32.91,35.57,60.67,76.63,77.31,122.35,9.21,25.3,15.48,51.88,20.53,78.28,5.27,27.53,8.74,55.39,10.46,83.36,3.44,55.93-.07,112.34-10.74,167.36-9.98,51.5-25.87,102.46-49.93,149.19-43.8,85.09-115.4,163.32-207.31,195.97-25.37,9.01-51.89,14.23-78.87,13.93-1.64-.02-1.64,2.52,0,2.54,101.64,1.12,191.63-69.28,249.08-147.63,62.81-85.65,93.38-191.51,100.18-296.67,3.65-56.38.21-113.25-10.42-168.74-5.06-26.41-11.32-52.99-20.53-78.28-8.3-22.81-19.37-44.57-32.45-65.01-52.77-82.44-135.64-144.88-223.01-186.91C667.45,17.15,550.79.05,441.06,26.5c-97.84,23.59-185.46,78.85-257.95,147.59-37.05,35.14-70.54,74.04-100.34,115.49-32.14,44.7-60.22,93.69-73.07,147.66C-1.67,485,.08,536.99,20.08,582.27c19.98,45.25,57.92,76.71,102.88,95.6,46.8,19.66,97.61,26.68,144.78,45.2,47.84,18.78,91.27,46.87,130.58,79.76,77.62,64.95,138.95,155.7,236.89,192.49,22.59,8.49,46.38,13.25,70.52,13.72,1.64.03,1.64-2.51,0-2.54Z"/>
</svg>