<?xml version="1.0" encoding="UTF-8"?>
<svg id="Layer_1" data-name="Layer 1" xmlns="http://www.w3.org/2000/svg" viewBox="0 0 1080 1080">
  <defs>
    <style>
      .cls-1 {
        fill: #00b1ff;
      }
    </style>
  </defs>
  <path class="cls-1" d="m138.68,772.17c12.64,3.19,25.57,2.36,38.45,1.5,14.74-.99,28.8-.91,43.29,2.34,27.41,6.13,53.5,17.37,78.06,30.85,49.67,27.25,92.97,64.31,140.87,94.34,46.05,28.88,95.53,52.4,147.24,69.25,52.62,17.14,109.71,30.09,165.22,22.1,44.86-6.45,89.47-27.76,113.95-67.33,24.88-40.22,25.95-89.42,32.71-134.85,3.5-23.52,8.46-47.18,18.79-68.76,11.44-23.88,29.07-43.9,46.22-63.79,15.21-17.64,29.67-35.65,41.39-55.85,10.97-18.91,19.82-39.05,26.5-59.86,13.41-41.77,18.15-86.38,13.82-130.04-4.26-42.94-17.35-85.14-39.72-122.15-25.27-41.8-62.29-74.73-102.96-101.15-44.65-29-93.79-52.54-143.63-71.13s-105.31-31.65-160.29-32.49c-53.16-.81-106.2,8.47-156.64,25.02-50.56,16.59-98.69,40.38-143.28,69.33-40.48,26.28-78.23,56.95-111.55,91.9-33.09,34.72-61.83,73.76-83.76,116.47-18.82,36.67-32.16,75.87-40.49,116.2-8.29,40.15-12,81.73-8,122.63,3.77,38.52,14.77,77.37,38.14,108.76,11.7,15.72,26.29,31.29,45.7,36.7,1.25.35,1.79-1.6.54-1.95-21.19-5.9-37.22-24.58-49.09-42.27-10.86-16.19-18.74-34.22-24.18-52.9-11.3-38.79-12.59-80.1-8.78-120.12,8.13-85.5,39.88-166.84,91.6-235.39,59.05-78.26,140.25-140.21,228.77-181.62,47.88-22.4,98.84-38.68,151.23-46.21,53.46-7.68,107.62-5.43,160.23,6.77,53.81,12.48,105.24,33.89,154.35,58.89,45.33,23.07,89.43,50.36,124.8,87.36,61.82,64.66,85.88,157,73.28,244.62-6.19,43.03-21.06,84.92-44.42,121.65-25.84,40.63-65.83,71.75-84.73,116.79-18.07,43.05-17.39,90.77-26.31,135.96-4.48,22.7-11.58,45.15-24.57,64.51-13.03,19.41-31.58,34.41-52.41,44.8-48.53,24.22-104.85,23.14-156.86,12.7-53.34-10.71-105.22-29.49-153.85-53.77-23.69-11.83-46.67-25.05-68.83-39.53-23.43-15.31-45.88-32.05-68.74-48.19-43.85-30.95-91.13-60.57-144.51-71.23-12.72-2.54-25.38-2.31-38.27-1.45-12.97.86-25.97,1.84-38.71-1.37-1.26-.32-1.8,1.63-.54,1.95Z"/>
</svg>