<?xml version="1.0" encoding="UTF-8"?>
<svg id="Layer_1" data-name="Layer 1" xmlns="http://www.w3.org/2000/svg" viewBox="0 0 1080 1080">
  <defs>
    <style>
      .cls-1 {
        fill: #e11a4b;
      }
    </style>
  </defs>
  <path class="cls-1" d="m1050.29,512.29c5.68,86.35-14.44,174.21-58.32,248.91-46.09,78.47-118.2,139.58-204.83,168.52-48.79,16.3-100.42,22.44-151.73,21.61-47.05-.77-95.05-5.93-140.1-20.01-40.32-12.6-79.79-33.08-107.39-65.81-29.12-34.53-36.36-78.13-47.51-120.46-5.41-20.55-12.29-40.93-23.73-58.98s-28.52-34.03-47.44-45.76c-40.16-24.91-87.31-35.22-127.71-59.79C56.84,528.98,8.18,426.56,22.37,328.14c3.54-24.57,11.88-48.96,28.32-67.97,15.34-17.74,36.22-30.02,58.36-37.28,51.44-16.88,106.29-6.82,157.95,3.37,25.62,5.05,51.29,10.27,77.33,12.6,25.97,2.33,52.1,1.32,77.96-1.78,50.99-6.11,100.6-19.86,150.97-29.41,25.6-4.85,51.47-8.62,77.53-9.68,24.69-1,49.38.74,73.78,4.57,44.68,7.02,88.22,21.11,128.58,41.51,40.54,20.5,77.86,47.37,109.89,79.61,33.45,33.67,62.14,72.66,75.63,118.67,6.67,22.76,9.97,46.31,11.61,69.93.09,1.32,2.16,1.33,2.07,0-3.38-48.59-15.05-95.72-42.95-136.29-25.86-37.61-58.87-70.46-95.7-97.31-74.43-54.26-168.6-86.13-261.08-82.83-106.33,3.8-207.35,51.88-314.82,40.29-54.17-5.84-106.79-23.16-161.51-24.31-46.9-.99-98.22,11.39-129.12,49.31s-33.02,91.96-26.42,137.59c7.05,48.75,27.82,95.49,59.88,132.94,30.98,36.18,71.16,59.65,114.93,77.14s94.23,36.53,120.96,80.92c23.5,39.03,25.85,85.85,41.54,127.86,14.86,39.79,43.44,70.49,80.07,91.46,37.51,21.47,80.31,32.91,122.92,38.62,50.95,6.82,102.92,8.2,153.9.98,50.85-7.2,100.35-23.46,144.56-49.79,37.56-22.36,70.91-51.52,98.56-85.35,54.8-67.05,87.03-151.4,93.88-237.53,1.69-21.2,1.8-42.5.4-63.72-.09-1.32-2.15-1.33-2.07,0Z"/>
</svg>