<?xml version="1.0" encoding="UTF-8"?>
<svg id="Layer_1" data-name="Layer 1" xmlns="http://www.w3.org/2000/svg" viewBox="0 0 1080 1080">
  <defs>
    <style>
      .cls-1 {
        fill: #ffffff;
      }
    </style>
  </defs>
  <path class="cls-1" d="m955.88,463.6c43.95-2.33,79.12-46.74,79.12-100.98,0-49.49-29.27-90.78-67.76-99.43v-12.91c3.62-3.47,6.91-7.32,9.83-11.62,2.02-2.99,2.96-6.59,2.67-10.2-5.15-61.91-33.25-119.33-79.16-161.66C854.41,24.23,794.34.78,731.41.78h-68.8c-137.45,0-249.26,111.44-249.26,248.4v3.49c0,4.92,2.3,9.57,6.21,12.58,5.58,4.29,12.02,7.89,19.1,10.7.58.23,1.16.4,1.73.62v115.54c0,70.66,23.6,129.95,68.25,171.46,13.01,12.09,27.7,22.46,43.72,31-6.76,6.67-12.96,13.83-18.54,21.44-19.64,8.13-40.91,12.4-62.88,12.4-4.01,0-7.99-.17-11.94-.47v-50.23c0-16.2-13.24-29.39-29.51-29.39h-23.75c-.22-24.96-20.71-45.2-45.88-45.2h-87.38c-25.17,0-45.66,20.24-45.89,45.2h-23.74c-16.28,0-29.51,13.18-29.51,29.39v222.25h-98.84c-16.27,0-29.51,13.18-29.51,29.39v224.57c0,16.2,13.24,29.39,29.51,29.39h574.36c1.21,0,2.39-.14,3.53-.4,12.72-1.37,24.23-6.65,33.34-14.56,9.1,7.9,20.59,13.17,33.29,14.55,1.15.27,2.35.4,3.58.4h182.41c41.54,0,75.34-33.55,75.34-74.79,0-37.11-27.37-67.97-63.11-73.79v-31.14c0-8.75-7.09-15.86-15.86-15.86s-15.86,7.1-15.86,15.86v30.14h-102.75c-8.62-23.28-31.11-39.51-57.1-39.51-15.28,0-29.24,5.63-39.95,14.9-10.7-9.27-24.66-14.9-39.93-14.9-25.99,0-48.48,16.23-57.1,39.51h-4.09v-43.9c11.4,1.46,22.81,2.21,34.19,2.21,100.06,0,196.57-55.4,243.56-150.47,6.93-14.02,7.96-29.87,2.89-44.62-5.08-14.8-15.67-26.72-29.81-33.56-29.04-14.02-64.27-1.96-78.54,26.91-13.59,27.5-34.98,50.02-61.85,65.11-7.64,4.29-10.36,13.96-6.07,21.59,4.29,7.64,13.96,10.36,21.6,6.07,32.47-18.24,58.32-45.45,74.76-78.72,6.58-13.33,22.88-18.88,36.31-12.4,6.48,3.12,11.31,8.56,13.62,15.3,2.3,6.69,1.83,13.89-1.33,20.28-46.83,94.76-149.4,144.75-249.31,130.23v-3.42c7.9-10.42,13.09-23.02,14.49-36.88.4-3.89.45-7.78.21-11.64,10.83,1.19,21.76,1.45,32.69.71,8.74-.6,15.33-8.18,14.73-16.91-.6-8.74-8.17-15.3-16.91-14.73-13.82.96-27.66-.05-41.14-2.82-.46-.75-.93-1.5-1.42-2.25l-16.2-42.34c-4.87-12.89-17.39-21.55-31.17-21.55-2.7,0-5.37.36-7.99,1,4.07-40.21,22.67-74.19,51.86-98.56,14.24,5.03,29.22,8.8,44.76,11.25,6.65,29.95,33.58,52.44,65.71,52.44s57.8-21.44,65.21-50.34c23.93-2.46,46.93-8.58,68.36-17.86,36.27,27.42,57.71,68.63,57.71,117.94v107.83c0,8.75,7.1,15.86,15.86,15.86s15.86-7.1,15.86-15.86v-107.83c0-53.74-20.35-99.95-58.9-133.94,45.21-28.15,80.39-71.6,97.55-124.22Zm-259.35,491.05c0-15.84,13.07-28.73,29.15-28.73,14.83,0,27.27,10.95,28.94,25.46.93,8.01,7.7,14.05,15.75,14.05h134.65c24.06,0,43.62,19.33,43.62,43.08s-19.57,43.08-43.62,43.08h-180.22c-.37-.05-.74-.09-1.12-.12-15.22-1.02-27.14-13.59-27.14-28.62v-68.2Zm-111.93,10.78h16.49c8.06,0,14.83-6.04,15.75-14.05,1.67-14.51,14.11-25.46,28.95-25.46,8.8,0,16.68,3.88,22.03,9.99-1.95,5.91-3.01,12.21-3.01,18.75v68.2c0,6.51,1.07,12.79,3.01,18.69-4.93,5.62-12.01,9.39-20.04,9.93-.38.02-.75.07-1.12.12h-62.07v-86.16Zm-125.61-305.69c3.96.24,7.95.39,11.94.39,13.95,0,27.64-1.49,40.96-4.31-7.41,18.92-11.72,39.53-12.44,61.41-9.4,1.03-18.91,1.56-28.52,1.56-4,0-7.98-.12-11.94-.31v-58.75Zm2.57,240.36c1.85,0,5.84,2.25,6.77,3.83l19.79,33.96c.88,1.54.88,5.93,0,7.47l-19.79,33.95c-.93,1.58-4.92,3.84-6.77,3.84h-39.58c-1.86,0-5.85-2.26-6.78-3.84l-19.79-33.96c-.88-1.54-.88-5.93,0-7.47l19.79-33.96c.93-1.58,4.92-3.84,6.78-3.84h39.58Zm-189.09-365.26h87.38c7.67,0,13.93,6.01,14.16,13.49h-115.69c.22-7.47,6.48-13.49,14.16-13.49Zm-67.43,45.2h222.23v219.92h-222.23v-219.92Zm93.9,471.55H76.71v-219.91h222.24v219.91Zm253.95,0h-222.23v-219.91h106.97c-.74,2.22-1.28,4.54-1.52,6.96l-.45,4.4c-.97,9.69,2.51,18.81,8.77,25.34h-22.45c-13.19,0-27.57,8.24-34.18,19.59l-19.78,33.96c-6.66,11.41-6.66,27.99,0,39.4l19.78,33.96c6.62,11.35,20.99,19.59,34.18,19.59h39.58c13.19,0,27.57-8.24,34.18-19.6l19.79-33.95c6.65-11.41,6.65-27.98,0-39.4l-19.78-33.96c-1.53-2.6-3.47-5.04-5.7-7.26l26.83,2.7c2.57.26,5.17.39,7.74.39,9.99,0,19.54-1.92,28.27-5.4v173.19Zm-19.56-290.81c3.27-4.34,4.09-10.05,2.17-15.14l-1.58-4.15c-.16-.41-.14-.83.04-1.23.18-.4.49-.69.91-.84l4.44-1.68c.2-.07.39-.12.58-.12.11,0,1.11.03,1.53,1.11l16.88,44.13c.46,1.23,1.08,2.39,1.83,3.46,5.76,8.19,8.39,18.13,7.41,27.96-2.17,21.56-20.62,37.83-42.92,37.83-1.51,0-3.04-.08-4.56-.23l-52.54-5.29c-.18-.02-.31-.18-.3-.36l.45-4.39c.02-.24.25-.3.36-.3h0l37.95,3.82c8.7.9,16.48-5.47,17.37-14.18l.28-2.82c.43-4.19-.83-8.37-3.49-11.63-2.66-3.26-6.51-5.33-10.7-5.75l-46.32-4.67c-.15-.02-.31-.21-.29-.36l.44-4.39c.02-.24.26-.27.36-.3l46.32,4.67c4.19.41,8.37-.84,11.63-3.5,3.25-2.66,5.32-6.51,5.74-10.69l.28-2.82c.88-8.71-5.48-16.49-14.19-17.37l-37.96-3.82c-.16-.02-.31-.21-.3-.36l.45-4.39c.02-.24.26-.26.36-.29l43.02,4.33c.11,0,.31.02.4.04,5.43.45,10.69-1.93,13.95-6.28Zm160.9-120.47c-13.12,0-24.57-7.04-30.73-17.49,2.82.08,5.65.13,8.5.13h52.88c-6.18,10.38-17.59,17.36-30.65,17.36Zm41.37-49.07h-63.6c-121.43,0-199.9-78.15-199.9-199.12v-110.97c15.96-1.4,31.35-8.5,45.54-21.25,2.63-2.35,5.2-4.89,7.76-7.62.9,3.01,2.02,5.91,3.33,8.65,6.74,14.04,18.7,23.92,34.59,28.55,25.81,7.55,51.88-3.53,77.79-32.98,6.48,15.42,19.71,26.75,39.16,32.89,8.53,2.68,16.99,4.02,25.35,4.01,27.75,0,54.32-14.71,77.96-43.47,8.02-9.76,14.66-19.9,19.85-28.82,6.7,9.23,15.63,19.5,26.95,28.49,6.86,5.43,16.84,4.29,22.28-2.58,5.44-6.86,4.29-16.83-2.58-22.27-22.27-17.67-33.05-42.61-33.13-42.81-2.47-5.91-8.24-9.75-14.63-9.75h-.13c-6.44.06-12.22,4.01-14.6,9.99-.38.96-38.8,95.56-97.77,76.96-14.54-4.58-28.09-13.68-18.48-46.4,2.25-7.66-1.54-15.79-8.86-18.99-7.3-3.2-15.86-.47-19.96,6.38-25.74,42.96-51.34,64.46-70.29,58.92-7.3-2.14-12.03-5.9-14.88-11.84-5.62-11.72-3.67-31.57,5.23-53.11,3.28-7.95-.36-17.05-8.22-20.55-7.84-3.49-17.05-.1-20.75,7.66-39.4,82.62-72.39,69.55-83.23,65.25-1.83-.73-3.57-1.53-5.22-2.4,2.74-117.12,99.25-211.57,217.48-211.57h68.8c110.26,0,204.05,84.12,216.15,192.6-4.41,5-9.84,8.61-16.5,10.96-6.57,2.33-13.05,4.01-19.29,4.99-8.65,1.36-14.55,9.48-13.19,18.14,1.37,8.65,9.48,14.56,18.14,13.19,6.18-.98,12.48-2.45,18.82-4.4v9.44c0,4.23,1.68,8.28,4.68,11.26,2.97,2.95,6.99,4.6,11.17,4.6.32,0,.64,0,1.02-.02,28.07.12,50.88,31.19,50.88,69.38s-22.9,69.37-51.05,69.37c-1.81,0-3.66-.14-5.66-.45-8.01-1.22-15.63,3.78-17.72,11.6-23.14,87.2-102.61,148.09-193.26,148.09Z"/>
  <path class="cls-1" d="m784.31,331.87c-8.76,0-15.86,7.09-15.86,15.86v26.01c0,8.76,7.09,15.86,15.86,15.86s15.86-7.09,15.86-15.86v-26.01c0-8.76-7.1-15.86-15.86-15.86Z"/>
  <path class="cls-1" d="m550.01,331.87c-8.76,0-15.86,7.09-15.86,15.86v26.01c0,8.76,7.09,15.86,15.86,15.86s15.86-7.09,15.86-15.86v-26.01c0-8.76-7.1-15.86-15.86-15.86Z"/>
  <path class="cls-1" d="m667.15,412.42h10.28c8.76,0,15.86-7.1,15.86-15.86s-7.09-15.86-15.86-15.86h-4.7v-14.71c0-8.76-7.1-15.86-15.86-15.86s-15.86,7.09-15.86,15.86v19.99c0,14.57,11.72,26.43,26.13,26.43Z"/>
  <path class="cls-1" d="m729.7,437.52h-117.91c-16.27,0-29.51,13.18-29.51,29.39,0,48.41,39.68,87.8,88.46,87.8s88.47-39.39,88.47-87.8c0-16.2-13.24-29.39-29.51-29.39Zm-58.96,85.48c-30.5,0-55.47-23.91-56.71-53.77h113.42c-1.25,29.86-26.21,53.77-56.71,53.77Z"/>
  <path class="cls-1" d="m377.5,653.88l-27.79-3.97-12.39-24.74c-4.02-8.04-12.12-13.03-21.15-13.03s-17.13,5-21.15,13.02l-12.39,24.74-27.82,3.98c-8.93,1.29-16.23,7.39-19.06,15.95-2.82,8.51-.44,18.05,6.04,24.26l19.98,19.19-4.7,27.04c-1.54,8.83,2.19,17.91,9.43,23.07,4.05,2.92,8.84,4.47,13.84,4.47,3.82,0,7.61-.93,10.92-2.66l24.92-12.91,24.83,12.87c3.37,1.77,7.17,2.7,10.99,2.7,5.01,0,9.8-1.54,13.78-4.42,7.31-5.22,11.04-14.3,9.5-23.12l-4.7-27.04,19.96-19.18c6.48-6.22,8.86-15.75,6.05-24.26-2.81-8.55-10.12-14.65-19.09-15.96Zm-34.98,42.38c-3.81,3.65-5.54,8.95-4.63,14.15l3.33,19.14-17.76-9.2c-2.28-1.19-4.79-1.78-7.29-1.78s-5,.59-7.29,1.78l-17.75,9.2,3.33-19.14c.9-5.19-.83-10.5-4.64-14.16l-13.9-13.35,19.43-2.78c5.15-.74,9.6-3.96,11.93-8.6l8.9-17.77,8.9,17.77c2.33,4.65,6.79,7.86,11.93,8.6l19.42,2.78-13.9,13.35Z"/>
  <path class="cls-1" d="m172.2,1009.24c4.19,4.1,9.74,6.36,15.63,6.36s11.43-2.25,15.63-6.35l56.76-55.52c9.73-9.51,15.09-22.2,15.09-35.73s-5.36-26.21-15.09-35.73c-9.65-9.43-22.44-14.62-36.03-14.62s-26.39,5.19-36.03,14.62l-.33.32-.32-.32c-9.64-9.42-22.44-14.62-36.03-14.62s-26.39,5.19-36.03,14.62c-9.73,9.51-15.09,22.2-15.09,35.73s5.36,26.21,15.09,35.74l56.75,55.5Zm-34.58-104.29c3.68-3.6,8.6-5.58,13.85-5.58s10.18,1.98,13.86,5.58l11.41,11.17c6.16,6.02,16.01,6.02,22.18,0l11.41-11.16c3.68-3.6,8.6-5.59,13.86-5.59s10.17,1.98,13.85,5.58c3.58,3.49,5.54,8.14,5.54,13.06,0,4.92-1.97,9.56-5.54,13.06l-50.21,49.1-50.21-49.1c-3.58-3.49-5.55-8.14-5.54-13.06,0-4.92,1.97-9.56,5.54-13.06Z"/>
  <path class="cls-1" d="m950.9,412.29c2.54,0,5.13-.61,7.52-1.91,33.87-18.3,28.33-56.64,20.67-74.36-3.48-8.04-12.81-11.74-20.85-8.26-8.04,3.48-11.74,12.81-8.26,20.85.44,1,10.42,24.65-6.64,33.87-7.71,4.16-10.57,13.78-6.41,21.49,2.87,5.3,8.33,8.32,13.97,8.32Z"/>
</svg>