<?xml version="1.0" encoding="UTF-8"?>
<svg id="Layer_1" data-name="Layer 1" xmlns="http://www.w3.org/2000/svg" viewBox="0 0 1080 1080">
  <defs>
    <style>
      .cls-1 {
        fill: #ffffff;
      }
    </style>
  </defs>
  <g>
    <g>
      <path class="cls-1" d="m543.27,635.47c-26.5,0-48.06-23.28-48.06-51.89s21.56-51.89,48.06-51.89,48.06,23.28,48.06,51.89-21.56,51.89-48.06,51.89Zm0-72.04c-9,0-16.32,9.04-16.32,20.15s7.32,20.15,16.32,20.15,16.32-9.04,16.32-20.15-7.32-20.15-16.32-20.15Z"/>
      <path class="cls-1" d="m448.5,577.9c-8.76,0-15.87-7.1-15.87-15.87,0-6.13-4.98-11.11-11.11-11.11s-11.11,4.98-11.11,11.11c0,8.76-7.1,15.87-15.87,15.87s-15.87-7.1-15.87-15.87c0-23.63,19.22-42.85,42.85-42.85s42.85,19.22,42.85,42.85c0,8.76-7.1,15.87-15.87,15.87Z"/>
      <path class="cls-1" d="m689.67,577.9c-8.76,0-15.87-7.1-15.87-15.87,0-6.13-4.98-11.11-11.11-11.11s-11.11,4.98-11.11,11.11c0,8.76-7.1,15.87-15.87,15.87s-15.87-7.1-15.87-15.87c0-23.63,19.22-42.85,42.85-42.85s42.85,19.22,42.85,42.85c0,8.76-7.1,15.87-15.87,15.87Z"/>
    </g>
    <path class="cls-1" d="m594.6,171.21h-102.67c-8.76,0-15.87-7.1-15.87-15.87V15.87c0-8.76,7.1-15.87,15.87-15.87h102.67c8.76,0,15.87,7.1,15.87,15.87v139.47c0,8.76-7.1,15.87-15.87,15.87Zm-86.8-31.74h70.93V31.74h-70.93v107.74Z"/>
    <path class="cls-1" d="m146.82,269.92h-70.14c-35.96,0-65.22-29.26-65.22-65.22s29.26-65.22,65.22-65.22h101.85c6.76,0,12.77,4.28,14.99,10.66,2.22,6.38.15,13.47-5.16,17.66-16.31,12.88-25.67,32.15-25.67,52.87v33.38c0,8.76-7.1,15.87-15.87,15.87Zm-70.14-98.71c-18.46,0-33.49,15.02-33.49,33.49s15.02,33.49,33.49,33.49h54.27v-17.52c0-17.68,4.62-34.64,13.18-49.46h-67.46Z"/>
    <path class="cls-1" d="m1009.86,269.92h-70.14c-8.76,0-15.87-7.1-15.87-15.87v-33.39c0-20.72-9.36-39.99-25.67-52.87-5.3-4.19-7.37-11.27-5.16-17.66,2.22-6.38,8.23-10.66,14.99-10.66h101.85c35.96,0,65.22,29.26,65.22,65.23s-29.26,65.22-65.22,65.22Zm-54.27-31.74h54.27c18.46,0,33.49-15.02,33.49-33.49s-15.02-33.49-33.49-33.49h-67.46c8.56,14.82,13.18,31.78,13.18,49.46v17.52Z"/>
    <path class="cls-1" d="m773.3,269.92h-460.07c-8.76,0-15.87-7.1-15.87-15.87v-33.39c0-20.72-9.36-39.99-25.67-52.87-5.3-4.19-7.37-11.28-5.16-17.66,2.22-6.38,8.23-10.66,14.99-10.66h523.48c6.76,0,12.78,4.28,14.99,10.66,2.22,6.38.15,13.47-5.16,17.66-16.31,12.88-25.67,32.15-25.67,52.87v33.39c0,8.76-7.1,15.87-15.87,15.87Zm-444.2-31.74h428.33v-17.52c0-17.68,4.62-34.64,13.18-49.46h-454.7c8.56,14.82,13.18,31.78,13.18,49.46v17.52Z"/>
    <path class="cls-1" d="m264.07,616.43h-117.25c-8.76,0-15.87-7.1-15.87-15.87V220.67c0-54.63,44.45-99.08,99.08-99.08s99.07,44.45,99.07,99.08v214.69c0,3.22-.98,6.36-2.81,9.01-30.38,44.03-46.44,95.7-46.44,149.44,0,2.13.03,4.25.08,6.37.1,4.27-1.52,8.41-4.51,11.47-2.99,3.06-7.08,4.79-11.36,4.79Zm-101.38-31.74h85.56c1.67-55.26,18.55-108.29,49.11-154.21v-209.82c0-37.13-30.21-67.34-67.34-67.34s-67.34,30.21-67.34,67.34v364.02Z"/>
    <path class="cls-1" d="m939.71,616.43h-117.25c-4.28,0-8.37-1.73-11.35-4.78-2.99-3.06-4.61-7.19-4.51-11.47.05-2.12.08-4.24.08-6.37,0-53.74-16.06-105.41-46.44-149.44-1.83-2.65-2.81-5.79-2.81-9.01v-214.69c0-54.63,44.44-99.07,99.08-99.07s99.08,44.44,99.08,99.07v379.89c0,8.76-7.1,15.87-15.87,15.87Zm-101.43-31.74h85.56V220.67c0-37.13-30.21-67.34-67.34-67.34s-67.34,30.21-67.34,67.34v209.82c30.56,45.91,47.44,98.94,49.11,154.21Z"/>
    <path class="cls-1" d="m712.35,489.18c-21.1,0-41.11-7.91-56.36-21.78-15.25,13.87-35.26,21.78-56.36,21.78s-41.11-7.91-56.36-21.78c-15.25,13.87-35.26,21.78-56.36,21.78s-41.11-7.91-56.36-21.78c-15.25,13.87-35.26,21.78-56.36,21.78-32.15,0-60.96-17.93-75.18-46.81-2.54-5.16-2.09-11.29,1.18-16.03,55.2-79.95,146.07-127.69,243.09-127.69,39.84,0,78.51,7.81,114.93,23.23,8.07,3.42,11.85,12.73,8.43,20.8-3.42,8.07-12.74,11.84-20.8,8.43-32.49-13.75-66.99-20.72-102.56-20.72-83.22,0-161.38,39.35-211.07,105.77,9.7,13.31,25.1,21.27,41.99,21.27s33.49-8.6,43.2-23.01c2.95-4.38,7.88-7,13.16-7h0c5.28,0,10.21,2.62,13.16,7,9.71,14.4,25.86,23,43.2,23s33.49-8.6,43.2-23.01c2.95-4.38,7.88-7,13.16-7h0c5.28,0,10.21,2.62,13.16,7,9.71,14.4,25.86,23,43.2,23s33.49-8.6,43.2-23.01c2.95-4.38,7.88-7,13.16-7h0c5.28,0,10.21,2.62,13.16,7,9.71,14.4,25.86,23,43.2,23s32.29-7.97,41.99-21.27c-16.06-21.47-35.25-40.32-57.14-56.11-7.11-5.13-8.71-15.05-3.59-22.15,5.13-7.11,15.05-8.71,22.15-3.59,27.59,19.9,51.34,44.13,70.59,72.03,3.27,4.73,3.72,10.87,1.18,16.03-14.22,28.87-43.03,46.81-75.18,46.81Z"/>
    <path class="cls-1" d="m543.27,985.47c-83.9,0-152.43-65.63-156.02-149.4-.25-5.79,2.68-11.26,7.65-14.26,4.96-3,11.17-3.06,16.18-.14,39.98,23.24,85.69,35.53,132.19,35.53s92.21-12.29,132.19-35.53c5.01-2.92,11.22-2.87,16.18.14,4.96,3,7.9,8.47,7.65,14.26-3.59,83.78-72.12,149.4-156.02,149.4Zm-119.67-121.83c14.87,52.32,62.85,90.09,119.67,90.09s104.79-37.77,119.67-90.09c-37.49,16.61-78.3,25.3-119.67,25.3s-82.18-8.68-119.67-25.3Z"/>
    <path class="cls-1" d="m543.27,888.94c-80.98,0-156.52-32.15-212.7-90.53-6.08-6.31-5.88-16.36.43-22.44,6.32-6.07,16.36-5.88,22.44.43,50.14,52.1,117.56,80.8,189.83,80.8,145.25,0,263.42-118.16,263.42-263.39,0-46-11.77-90.5-34.22-129.97-15.49,16.02-36.93,25.34-60.11,25.34-21.11,0-41.11-7.91-56.36-21.78-15.25,13.87-35.26,21.78-56.36,21.78s-41.11-7.91-56.36-21.78c-15.25,13.87-35.26,21.78-56.36,21.78s-41.11-7.91-56.36-21.78c-15.25,13.87-35.26,21.78-56.36,21.78-23.18,0-44.62-9.32-60.11-25.34-22.45,39.48-34.22,83.97-34.22,129.97s13.12,95.29,37.95,136.27c4.54,7.5,2.15,17.25-5.35,21.79-7.5,4.55-17.25,2.15-21.8-5.35-27.83-45.94-42.55-98.75-42.55-152.72,0-60.2,18-118.11,52.06-167.46,3.2-4.63,8.6-7.22,14.22-6.81,5.61.41,10.59,3.76,13.08,8.81,8.84,17.95,26.74,29.09,46.71,29.09,17.34,0,33.49-8.6,43.2-23,2.95-4.38,7.88-7,13.16-7h0c5.28,0,10.21,2.62,13.16,7,9.71,14.4,25.86,23,43.2,23s33.49-8.6,43.2-23c2.95-4.38,7.88-7,13.16-7h0c5.28,0,10.21,2.62,13.16,7,9.71,14.4,25.86,23,43.2,23s33.49-8.6,43.2-23.01c2.95-4.38,7.88-7,13.16-7h0c5.28,0,10.21,2.62,13.16,7,9.71,14.4,25.86,23,43.2,23,19.97,0,37.87-11.15,46.71-29.09,2.49-5.05,7.46-8.4,13.08-8.82,5.6-.41,11.03,2.18,14.22,6.81,34.06,49.35,52.06,107.25,52.06,167.46,0,162.73-132.4,295.13-295.15,295.13Z"/>
  </g>
  <path class="cls-1" d="m842.52,1083.3H244.01c-8.76,0-15.87-7.1-15.87-15.87v-137.01c-61.86-58.71-97.19-140.75-97.19-226.22v-103.64c0-8.76,7.1-15.87,15.87-15.87s15.87,7.1,15.87,15.87v103.64c0,78.9,33.53,154.55,91.98,207.54,3.32,3.01,5.21,7.28,5.21,11.76v128.06h566.77v-128.06c0-4.48,1.89-8.75,5.21-11.76,58.46-52.99,91.98-128.64,91.98-207.54v-103.64c0-8.76,7.1-15.87,15.87-15.87s15.87,7.1,15.87,15.87v103.64c0,85.47-35.33,167.51-97.2,226.22v137.01c0,8.76-7.1,15.87-15.87,15.87Z"/>
</svg>