<?xml version="1.0" encoding="UTF-8"?>
<svg id="Layer_1" data-name="Layer 1" xmlns="http://www.w3.org/2000/svg" viewBox="0 0 1080 1080">
  <defs>
    <style>
      .cls-1 {
        fill: #ffffff;
      }
    </style>
  </defs>
  <path class="cls-1" d="m1054.14,818.12h-63.76c15.57-13.12,27.34-31.62,33.55-57.74,4.09-17.23,2.23-33.32.26-50.35-2.26-19.55-4.6-39.75,1.27-65.94h0c4.51-20.14,1.23-35.25-9.76-44.92-13.3-11.7-35.04-12.2-64.59-1.47-9.37,3.41-17.75,8.55-24.88,15.1-17.67-6.66-36.71-9.12-55.73-7.1-34.48,3.68-66.38,24.36-86.7,54.44-20.7-13.93-46.05-25.01-74.38-32.42-8.42-2.2-17.01,2.84-19.21,11.25-2.2,8.41,2.84,17.01,11.25,19.21,26.43,6.9,49.62,17.26,67.84,30.2-.49,1.32-.96,2.65-1.4,3.98-5.19,15.79-7.08,32.12-5.46,47.23,3.31,31.05,16.3,58.32,36.28,78.51h-154.06v-48.96h41.86c8.69,0,15.74-7.05,15.74-15.74s-7.05-15.74-15.74-15.74h-181.22v-58.84c1.89-.83,3.86-1.83,5.95-3.05,30.52-17.84,74.31-27.63,120.15-26.89.09,0,.17,0,.26,0,8.58,0,15.6-6.88,15.74-15.49.14-8.69-6.79-15.86-15.48-16-18.15-.29-35.83.89-52.71,3.39v-83.68c13.95-10.2,27.13-23.4,37.35-41.13,15.05-26.12,15.65-40.43,16.74-66.4.17-4.16.37-8.71.63-13.77,0-.14,0-.28,0-.42,0-.14.02-.27.02-.41v-38.62c0-45.79-37.25-83.05-83.04-83.05h-5.5c23.32-23.84,38.92-54.76,38.92-82.56v-32.31c0-40.59-13-75.07-37.58-99.73-22.03-22.09-51.67-34.53-83.47-35.03-.17,0-.33,0-.5,0-31.8.5-61.45,12.94-83.5,35.03-24.61,24.66-37.62,59.14-37.62,99.73v32.31c0,27.79,15.6,58.71,38.95,82.56h-5.53c-40.82,0-60.92,24.95-72.5,43.73l-91.67,148.87c-10.37-18.62-36.07-58.66-66.46-60.99-8.46-.64-19.07-.38-26.14,7.45-7.44,8.25-5.57,18.57-4.21,26.11l22.15,126.31c1.96,11.2,3.51,20.05,10.91,26.05,7.75,6.3,16.66,5.34,26.98,4.24,2.12-.22,4.5-.48,7.21-.73,43.7-4.03,76.84,8.68,89.06,14.32,13.23,6.12,24.94,12.77,35.31,19.64v84.38c-.49,0-.95,0-1.44,0h-126.69c-18.52,0-19.02-1.05-21.41-6.09-3.08-6.53-31.22-63.88-69.56-66.82-8.48-.66-19.12-.39-26.19,7.47-7.45,8.28-5.61,18.24-4.14,26.25l21.81,124.59H31c-14.23,0-25.8,11.57-25.8,25.8v123.42c0,14.26,11.58,25.86,25.8,25.86h39.24v29.24c0,33.49,27.24,60.73,60.73,60.73h823.2c33.49,0,60.73-27.25,60.73-60.73v-29.24h39.24c14.26,0,25.86-11.6,25.86-25.86v-123.42c0-14.23-11.6-25.8-25.86-25.8h0Zm-110.48-93.6c-12.66-27.52-15.19-53.33-7.13-72.66,4.94-11.83,13.7-20.32,25.33-24.55,12.52-4.54,20.97-5.82,26.22-5.82,3.99,0,6.14.74,6.82,1.33.54.48,2.09,4.31-.17,14.39h0c-7.04,31.39-4.15,56.37-1.83,76.45,1.72,14.82,3.2,27.62.38,39.45-8.93,37.57-30.7,55.67-82,62.13.13-.12.27-.23.41-.35,43.55-37.59,41.41-69.9,31.95-90.37Zm-149.91,11.75c-1.15-10.71.26-22.48,4.04-33.99,9.81-29.49,37.13-61.1,76.05-65.25,11.38-1.22,22.75-.22,33.6,2.78-11.46,27.54-8.76,62.29,7.62,97.89,15.41,33.37-43.24,68.86-61.84,79.08-32.88-12.47-55.45-42.76-59.47-80.51h0Zm-180.58,32.89v48.96h-137.03c-12.44-1.19-22.19-11.68-22.19-24.42,0-13.53,11.01-24.54,24.54-24.54h134.69Zm-65.46-141.88c-19.3,5.19-36.99,12.34-52.36,21.32-.3.18-.58.34-.84.49-1.75-2.07-4.02-4.98-6.12-7.67-2.56-3.28-5.75-7.37-9.57-12.06-8.16-9.94-19.83-21.89-31.87-32.85l86.72-34.99c4.53-1.83,9.25-3.86,14.06-6.1v71.85h0Zm-136.73-50.22c-4.8,1.92-10.09,1.84-14.91-.22-4.81-2.06-8.52-5.84-10.45-10.68-1.93-4.8-1.86-10.1.2-14.91,2.06-4.83,5.86-8.55,10.68-10.47.14-.05.28-.12.42-.17l79.54-34.46,18.7,36.96-84.17,33.96Zm52.03-501.87c39.17.73,80.96,27.48,88.59,84.27-34.4-6.56-104.57-20.6-112.72-22.72,0,0,0,0-.01,0-4.57-1.18-8.79-1.69-12.72-1.69-14.89,0-25.48,7.37-34.36,13.54-5.45,3.79-10.72,7.46-17.32,10.14,7.9-56.28,49.52-82.81,88.55-83.53h0Zm-89.88,135.58v-18.76c16.87-3.86,28.02-11.58,36.64-17.58,10.33-7.18,13.64-9.17,21.21-7.21h0c5.65,1.46,87.3,18.16,121.84,24.52v19.03c0,27.06-25.83,66.72-61.43,83.66-.5.2-.98.42-1.45.66-1.95.89-3.92,1.73-5.93,2.47-8.18,3-14.66,4.33-21,4.33s-12.99-1.38-20.99-4.31c-1.91-.71-3.82-1.52-5.71-2.38-.5-.27-1.03-.51-1.56-.73-33.08-15.88-61.62-53.86-61.62-83.71h0Zm126.2,114.59v4.72c0,22.92-16.29,41.56-36.32,41.56s-36.38-18.65-36.38-41.56v-4.73c1.49.63,2.98,1.22,4.49,1.78,11.65,4.27,21.79,6.26,31.9,6.26s20.19-1.99,31.91-6.28c1.48-.55,2.95-1.14,4.42-1.75h0Zm-169.96,28.22c12.59-20.43,25.83-28.76,45.69-28.76h20.08v5.26c0,40.28,30.45,73.05,67.87,73.05s67.81-32.77,67.81-73.05v-5.26h20.08c28.43,0,51.56,23.13,51.56,51.56v38.22c-.26,5.01-.45,9.54-.63,13.68-1.05,25.01-1.37,32.56-12.56,51.99-12.74,22.08-32.24,37.42-64.83,50.98l-19.19-37.94c7.33-3.84,12.55-7.89,19.92-15.62.78-.82,1.47-1.72,2.06-2.69l18.98-31.24c4.52-7.43,2.15-17.11-5.28-21.63-7.43-4.52-17.11-2.15-21.63,5.28l-18.08,29.75c-6.01,6.17-8.75,7.68-17.81,11.64l-98.82,42.82c-8.86,3.59-16.33,9.5-21.86,17.05-14.06-7.75-29.22-13.43-44.87-17.67l32.06-52.12c4.56-7.41,2.24-17.1-5.16-21.66-7.41-4.55-17.1-2.24-21.66,5.16l-37.95,61.7c-15.21-2.44-30.48-3.98-45.27-5.16l89.5-145.36Zm-103.36,230.38c-14.14-1.86-30.16-2.54-47.56-.94-2.87.26-9.47.97-10.35,1.06-.32-1.69-22.24-126.72-22.24-126.72,12.44,5.29,31.17,29.78,41.46,51.37,5.85,12.37,12.06,17.61,20.38,19.6,9.8,1.26,16.93,1.05,20.17,1.27,4.16.3,8.39.63,12.64.98l-14.48,53.37Zm111.17,89.42c24.7,23.66,35.35,45.66,36.69,53.95-4.75,2.43-17.05,4.04-36.69,4.83v-58.78Zm-132.09,90.84h99.16c61.11,0,82.15-3.61,93.77-16.08,3.79-4.07,8.14-11.17,7.39-21.92-1.99-29.06-42.07-89.23-121.81-126.1-5.53-2.56-14.68-6.33-26.7-9.76l15.28-56.34c28.84,4.03,57.36,11.07,80.54,25.28.04,6.3,1.25,12.59,3.67,18.58,5.04,12.62,14.72,22.53,27.27,27.9,6.48,2.78,13.31,4.17,20.14,4.17,3.19,0,6.39-.31,9.55-.92,14.73,12.13,31.2,28.21,41.09,40.26,3.58,4.39,6.52,8.16,9.11,11.48,3.43,4.4,6.74,8.63,10.25,12.14v64.97c-28.71,2.38-51.35,26.5-51.35,55.82,0,8.75,2.02,17.04,5.61,24.42h-222.98v-53.91Zm-77.4-24.11c10.61,22.36,28.93,23.98,45.91,24.1v53.92h-63.56l-22.04-125.97c12.53,4.92,30.15,27.74,39.69,47.95h0Zm920.82,221.61h-468.33c-8.69,0-15.74,7.05-15.74,15.74s7.05,15.74,15.74,15.74h403.23v29.24c0,16.13-13.12,29.24-29.24,29.24H130.97c-16.12,0-29.24-13.12-29.24-29.24v-29.24h409.18c8.69,0,15.74-7.05,15.74-15.74s-7.05-15.74-15.74-15.74H36.69v-112.1h60.06s.03,0,.05,0c.01,0,951.71,0,951.71,0v112.1Z"/>
</svg>