<?xml version="1.0" encoding="UTF-8"?>
<svg id="Layer_1" data-name="Layer 1" xmlns="http://www.w3.org/2000/svg" viewBox="0 0 1080 1080">
  <defs>
    <style>
      .cls-1 {
        fill: #ffffff;
      }
    </style>
  </defs>
  <g id="g3352">
    <g id="g3358">
      <path class="cls-1" d="m807.36,875.16c-8.76,0-15.87-7.1-15.87-15.87v-30.28h-95.29c-23.83,0-43.22-19.39-43.22-43.22v-12.84c0-8.37,3.63-16.34,9.95-21.87l35.87-31.25-51.62-35.51c-9.56-6.57-14.77-17.85-13.58-29.42l16.11-152.8c.92-8.71,8.73-15.04,17.44-14.12,8.72.92,15.04,8.73,14.12,17.44l-16.1,152.76,56.43,38.81c6.99,4.83,11.26,12.44,11.74,20.9.47,8.45-2.91,16.48-9.29,22.04l-39.33,34.26v11.6c0,6.33,5.15,11.49,11.49,11.49h111.16c8.76,0,15.87,7.1,15.87,15.87v46.15c0,8.76-7.1,15.87-15.87,15.87Z"/>
    </g>
    <g id="g3362">
      <path class="cls-1" d="m946.95,875.16c-8.76,0-15.87-7.1-15.87-15.87v-115.37c0-8.76,7.1-15.87,15.87-15.87s15.87,7.1,15.87,15.87v115.37c0,8.76-7.1,15.87-15.87,15.87Z"/>
    </g>
    <g id="g3366">
      <path class="cls-1" d="m946.99,759.79h-58.19c-8.76,0-15.87-7.1-15.87-15.87v-24.6c0-15.39,9.7-29.45,24.14-34.99,17.05-6.54,28.07-21.28,28.07-37.54,0-22.59-20.98-40.97-46.76-40.97-3.77,0-7.52.4-11.15,1.18-7.43,1.61-15.09-.22-21.02-5.01-5.99-4.83-9.42-12.02-9.42-19.71v-39.53c-28.68,1.11-84.22,1.01-137.48-11.8-70.32-16.92-113.47-50.03-128.24-98.41-2.23-7.33-.74-15.32,3.99-21.37,4.75-6.08,12.17-9.46,19.88-9.06,10.1.53,19.45.83,27.98.89-12.66-19-24.92-48.89-17.01-88,1.42-7.01,5.87-12.92,12.21-16.24,6.34-3.31,13.74-3.58,20.29-.75,19.03,8.23,49.8,17.76,84.43,26.15,8.52,2.06,13.75,10.64,11.69,19.16-2.06,8.52-10.64,13.75-19.16,11.69-31.02-7.51-59.37-16.02-79.82-23.9-2.85,29.55,9.67,50.95,21.36,64.14,6.15,6.94,7.7,16.54,4.05,25.04-3.64,8.48-11.65,13.94-20.88,14.25-10.07.34-21.59.28-34.38-.18,14.56,31.01,48.48,53.1,101.05,65.75,49.82,11.99,102.37,11.99,129.27,10.93,8.48-.33,16.8,2.83,22.91,8.7,6.11,5.87,9.62,14.1,9.62,22.58v32.35c3.26-.38,6.56-.57,9.85-.57,43.28,0,78.5,32.62,78.5,72.71,0,29.51-19.01,55.88-48.43,67.17-2.29.88-3.78,2.99-3.78,5.36v8.74h36.59c76.26-64.08,114.75-136.54,105.75-199.43-4.61-32.23-22.39-59.36-45.3-69.14-6.33-2.7-10.2-9.18-9.58-16.03.64-7.05-2.75-14.7-10.09-22.74-23.06-25.25-75.22-44.29-121.34-44.29-19.33,0-43.21-2.2-70.97-6.53-8.66-1.35-14.58-9.47-13.23-18.13,1.35-8.66,9.48-14.58,18.13-13.23,25.78,4.02,48.63,6.15,66.07,6.15,54.98,0,115.87,22.97,144.78,54.62,10.25,11.22,16.35,23.37,18.01,35.64,28.62,16.52,49.3,49.7,54.95,89.17,4.93,34.49-1.74,72.22-19.31,109.13-20.31,42.66-54.64,84.02-102.05,122.94-2.84,2.33-6.4,3.6-10.07,3.6Z"/>
    </g>
    <g id="g3370">
      <path class="cls-1" d="m774.9,972.06c-7.33,0-14.38-2.94-19.63-8.38-6.68-6.92-9.23-16.6-6.82-25.91l19.12-73.82c3.14-12.09,14.05-20.53,26.53-20.53h171.77c15.11,0,27.4,12.29,27.4,27.4v31.29c0,12.94-8.82,23.94-21.45,26.75l-190.88,42.53c-2.01.45-4.04.67-6.04.67Zm22.56-96.9l-16.51,63.72,180.59-40.24v-23.48h-164.08Z"/>
    </g>
    <g id="g3374">
      <path class="cls-1" d="m330.81,546.85c-6.39,0-12.42-3.89-14.83-10.23l-78.43-205.93-77.7,205.89c-3.1,8.2-12.26,12.34-20.45,9.24-8.2-3.09-12.34-12.25-9.24-20.45l87.57-232.04c.06-.15.11-.29.17-.43,3.28-7.98,10.98-13.14,19.61-13.14h.02c8.64,0,16.33,5.18,19.6,13.18.05.12.1.24.14.36l88.37,232.03c3.12,8.19-.99,17.36-9.18,20.48-1.86.71-3.77,1.04-5.64,1.04Z"/>
    </g>
    <g id="g3378">
      <path class="cls-1" d="m303.25,489.06h-131.13c-8.76,0-15.87-7.1-15.87-15.87s7.1-15.87,15.87-15.87h131.13c8.76,0,15.87,7.1,15.87,15.87s-7.1,15.87-15.87,15.87Z"/>
    </g>
    <g id="g3382">
      <path class="cls-1" d="m220.29,951.19c-34.66,0-62.86-28.2-62.86-62.86s28.2-62.85,62.86-62.85,62.85,28.2,62.85,62.85-28.2,62.86-62.85,62.86Zm0-93.97c-17.16,0-31.12,13.96-31.12,31.12s13.96,31.12,31.12,31.12,31.12-13.96,31.12-31.12-13.96-31.12-31.12-31.12Z"/>
    </g>
    <g id="g3386">
      <path class="cls-1" d="m267.27,957.43c-8.76,0-15.87-7.1-15.87-15.87v-106.47c0-8.76,7.1-15.87,15.87-15.87s15.87,7.1,15.87,15.87v106.47c0,8.76-7.1,15.87-15.87,15.87Z"/>
    </g>
    <g id="g3390">
      <path class="cls-1" d="m386.21,951.19c-34.66,0-62.86-28.2-62.86-62.86s28.2-62.85,62.86-62.85,62.85,28.2,62.85,62.85-28.2,62.86-62.85,62.86Zm0-93.97c-17.16,0-31.12,13.96-31.12,31.12s13.96,31.12,31.12,31.12,31.12-13.96,31.12-31.12-13.96-31.12-31.12-31.12Z"/>
    </g>
    <g id="g3394">
      <path class="cls-1" d="m433.2,957.43c-8.76,0-15.87-7.1-15.87-15.87v-106.47c0-8.76,7.1-15.87,15.87-15.87s15.87,7.1,15.87,15.87v106.47c0,8.76-7.1,15.87-15.87,15.87Z"/>
    </g>
    <g id="g3398">
      <path class="cls-1" d="m452.61,625.87H23.2c-14.58,0-26.45-11.86-26.45-26.45V227.2c0-14.58,11.86-26.45,26.45-26.45h429.41c14.58,0,26.45,11.86,26.45,26.45v372.22c0,14.58-11.86,26.45-26.45,26.45Zm-424.12-31.74h418.83V232.49H28.49v361.64Z"/>
    </g>
    <g id="g3402">
      <path class="cls-1" d="m86.39,232.48c-4.96,0-9.85-2.32-12.94-6.67-5.08-7.14-3.41-17.05,3.74-22.13l120.7-85.84c7.14-5.08,17.05-3.41,22.13,3.74,5.08,7.14,3.41,17.05-3.74,22.13l-120.7,85.84c-2.79,1.98-6,2.94-9.18,2.94Z"/>
    </g>
    <g id="g3406">
      <path class="cls-1" d="m389.42,232.48c-3.18,0-6.39-.95-9.18-2.94l-120.7-85.84c-7.14-5.08-8.81-14.99-3.74-22.13,5.08-7.14,14.99-8.81,22.13-3.74l120.7,85.84c7.14,5.08,8.81,14.99,3.74,22.13-3.09,4.35-7.98,6.67-12.94,6.67Z"/>
    </g>
    <g id="g3410">
      <path class="cls-1" d="m237.91,164.07c-28.57,0-51.82-23.24-51.82-51.82s23.24-51.82,51.82-51.82,51.82,23.24,51.82,51.82-23.24,51.82-51.82,51.82Zm0-71.9c-11.07,0-20.08,9.01-20.08,20.08s9.01,20.08,20.08,20.08,20.08-9.01,20.08-20.08-9.01-20.08-20.08-20.08Z"/>
    </g>
    <g id="g3414">
      <path class="cls-1" d="m515.79,1037.21H238.81c-8.76,0-15.87-7.1-15.87-15.87s7.1-15.87,15.87-15.87h271.7v-162.85c0-22.52,8.67-43.79,24.4-59.9l27.42-28.07-131.88,15.9c-3.38.41-6.84.62-10.27.62H96v234.3h68.76c8.76,0,15.87,7.1,15.87,15.87s-7.1,15.87-15.87,15.87h-74.05c-14.58,0-26.45-11.86-26.45-26.45v-244.87c0-14.58,11.86-26.45,26.45-26.45h329.48c2.16,0,4.33-.13,6.46-.39l158.74-19.14c9.48-1.15,18.34,3.65,22.58,12.21,4.23,8.57,2.65,18.52-4.03,25.36l-46.32,47.41c-9.91,10.15-15.37,23.54-15.37,37.72v168.14c0,14.58-11.86,26.45-26.45,26.45Z"/>
    </g>
  </g>
</svg>