<?xml version="1.0" encoding="UTF-8"?>
<svg id="Layer_1" data-name="Layer 1" xmlns="http://www.w3.org/2000/svg" viewBox="0 0 1080 1080">
  <defs>
    <style>
      .cls-1 {
        fill: #ffffff;
      }
    </style>
  </defs>
  <path class="cls-1" d="m92.06,555.71c-8.74,0-15.82-7.08-15.82-15.82v-152.52c0-8.74,7.08-15.82,15.82-15.82,31.59,0,57.28-25.69,57.28-57.26s-25.7-57.26-57.28-57.26c-8.74,0-15.82-7.08-15.82-15.82V109.78c0-20.36,16.56-36.92,36.92-36.92h131.42c8.74,0,15.82,7.08,15.82,15.82,0,31.59,25.69,57.28,57.26,57.28s57.26-25.7,57.26-57.28c0-8.74,7.08-15.82,15.82-15.82h152.52c8.74,0,15.82,7.08,15.82,15.82s-7.08,15.82-15.82,15.82h-138.1c-7.48,41.51-43.87,73.11-87.5,73.11s-80.01-31.59-87.5-73.11h-117.01c-2.91,0-5.27,2.37-5.27,5.27v117.01c41.51,7.48,73.11,43.87,73.11,87.5s-31.59,80.01-73.11,87.5v138.1c0,8.74-7.08,15.82-15.82,15.82Z"/>
  <path class="cls-1" d="m994.48,555.71h-152.52c-8.74,0-15.82-7.08-15.82-15.82,0-31.57-25.69-57.26-57.26-57.26s-57.26,25.69-57.26,57.26c0,8.74-7.08,15.82-15.82,15.82h-152.52c-8.74,0-15.82-7.08-15.82-15.82v-152.52c0-8.74,7.08-15.82,15.82-15.82,31.57,0,57.26-25.69,57.26-57.26s-25.69-57.26-57.26-57.26c-8.74,0-15.82-7.08-15.82-15.82V88.68c0-8.74,7.08-15.82,15.82-15.82h138.1C688.86,31.35,725.24-.23,768.87-.23s80.01,31.58,87.5,73.08h23.06c8.74,0,15.82,7.08,15.82,15.82s-7.08,15.82-15.82,15.82h-37.47c-8.74,0-15.82-7.08-15.82-15.82,0-31.57-25.69-57.26-57.26-57.26s-57.26,25.69-57.26,57.26c0,8.74-7.08,15.82-15.82,15.82h-136.7v122.28c41.5,7.48,73.08,43.87,73.08,87.5s-31.58,80.01-73.08,87.5v122.28h122.28c7.49-41.5,43.87-73.08,87.5-73.08s80.01,31.58,87.5,73.08h122.28v-136.7c0-8.74,7.08-15.82,15.82-15.82,31.57,0,57.26-25.69,57.26-57.26s-25.69-57.26-57.26-57.26c-8.74,0-15.82-7.08-15.82-15.82V109.78c0-2.91-2.37-5.27-5.27-5.27h-20.11c-8.74,0-15.82-7.08-15.82-15.82s7.08-15.82,15.82-15.82h20.11c20.36,0,36.92,16.56,36.92,36.92v117.01c41.5,7.48,73.08,43.87,73.08,87.5s-31.58,80.01-73.08,87.5v138.11c0,8.74-7.08,15.82-15.82,15.82Z"/>
  <path class="cls-1" d="m317.66,1080c-43.63,0-80.01-31.58-87.5-73.08h-117.01c-20.36,0-36.92-16.56-36.92-36.92v-123.63c-41.5-7.49-73.08-43.87-73.08-87.5s31.58-80.03,73.08-87.52v-131.46c0-8.74,7.08-15.82,15.82-15.82h43.36c8.74,0,15.82,7.08,15.82,15.82s-7.08,15.82-15.82,15.82h-27.53v130.05c0,8.74-7.08,15.82-15.82,15.82-31.57,0-57.26,25.7-57.26,57.28s25.69,57.26,57.26,57.26c8.74,0,15.82,7.08,15.82,15.82v138.05c0,2.91,2.37,5.27,5.27,5.27h131.42c8.74,0,15.82,7.08,15.82,15.82,0,31.57,25.69,57.26,57.26,57.26s57.26-25.69,57.26-57.26c0-8.74,7.08-15.82,15.82-15.82h136.7v-33.23c0-8.74,7.08-15.82,15.82-15.82s15.82,7.08,15.82,15.82v49.05c0,8.74-7.08,15.82-15.82,15.82h-138.11c-7.48,41.5-43.87,73.08-87.5,73.08Z"/>
  <path class="cls-1" d="m543.27,884.02c-8.74,0-15.82-7.08-15.82-15.82v-21.83c-41.5-7.49-73.08-43.87-73.08-87.5s31.58-80.03,73.08-87.52v-115.64h-122.37c-7.7,41.23-44.06,72.6-87.41,72.6s-79.69-31.37-87.4-72.6h-21c-8.74,0-15.82-7.08-15.82-15.82s7.08-15.82,15.82-15.82h35.32c8.7,0,15.76,7.02,15.82,15.72.21,31.37,25.9,56.88,57.26,56.88s57.06-25.51,57.26-56.88c.06-8.7,7.12-15.72,15.82-15.72h152.52c8.74,0,15.82,7.08,15.82,15.82v145.87c0,8.74-7.08,15.82-15.82,15.82-31.57,0-57.26,25.7-57.26,57.28s25.69,57.26,57.26,57.26c8.74,0,15.82,7.08,15.82,15.82v36.25c0,8.74-7.08,15.82-15.82,15.82Z"/>
  <path class="cls-1" d="m994.48,584.87c-8.74,0-15.82-7.08-15.82-15.82v-29.16c0-8.74,7.08-15.82,15.82-15.82s15.82,7.08,15.82,15.82v29.16c0,8.74-7.08,15.82-15.82,15.82Z"/>
  <path class="cls-1" d="m973.38,1006.92h-120.05c-8.74,0-15.82-7.08-15.82-15.82,0-31.59-25.69-57.28-57.26-57.28s-57.28,25.7-57.28,57.28c0,8.74-7.08,15.82-15.82,15.82h-163.87c-8.74,0-15.82-7.08-15.82-15.82s7.08-15.82,15.82-15.82h149.46c7.49-41.51,43.88-73.11,87.52-73.11s80.01,31.59,87.5,73.11h105.64c2.91,0,5.27-2.37,5.27-5.27v-123.63c-41.51-7.49-73.11-43.87-73.11-87.5s31.59-80.03,73.11-87.52v-28.46c0-8.74,7.08-15.82,15.82-15.82s15.82,7.08,15.82,15.82v42.87c0,8.74-7.08,15.82-15.82,15.82-31.59,0-57.28,25.7-57.28,57.28s25.7,57.26,57.28,57.26c8.74,0,15.82,7.08,15.82,15.82v138.05c0,20.36-16.56,36.92-36.92,36.92Z"/>
  <path class="cls-1" d="m840.89,417.17c-3.06,0-6.16-.89-8.88-2.74-41.09-27.93-94.2-27.93-135.3,0-7.23,4.91-17.07,3.04-21.98-4.19-4.91-7.23-3.03-17.07,4.19-21.98,51.91-35.27,118.98-35.27,170.88,0,7.23,4.91,9.1,14.75,4.19,21.98-3.06,4.51-8.04,6.93-13.1,6.93Z"/>
  <path class="cls-1" d="m721.19,285.33c-2.25,0-4.54-.48-6.71-1.5l-53.28-24.99c-7.91-3.71-11.32-13.13-7.6-21.05,3.71-7.91,13.13-11.32,21.05-7.61l53.28,24.99c7.91,3.71,11.32,13.13,7.6,21.05-2.69,5.74-8.39,9.11-14.34,9.11Z"/>
  <path class="cls-1" d="m807.52,285.33c-5.95,0-11.64-3.37-14.34-9.11-3.71-7.91-.31-17.33,7.6-21.05l53.28-24.99c7.92-3.71,17.33-.31,21.05,7.61,3.71,7.91.31,17.33-7.6,21.05l-53.28,24.99c-2.17,1.02-4.46,1.5-6.71,1.5Z"/>
  <path class="cls-1" d="m698.51,317.45c-8.74,0-15.82-7.08-15.82-15.82v-37.97c0-8.74,7.08-15.82,15.82-15.82s15.82,7.08,15.82,15.82v37.97c0,8.74-7.08,15.82-15.82,15.82Z"/>
  <path class="cls-1" d="m830.21,317.45c-8.74,0-15.82-7.08-15.82-15.82v-37.97c0-8.74,7.08-15.82,15.82-15.82s15.82,7.08,15.82,15.82v37.97c0,8.74-7.08,15.82-15.82,15.82Z"/>
  <path class="cls-1" d="m322.18,417.34c-29.74,0-59.49-8.82-85.44-26.46-7.23-4.91-9.1-14.75-4.19-21.98,4.91-7.23,14.75-9.1,21.98-4.19,41.1,27.93,94.2,27.93,135.3,0,7.23-4.91,17.07-3.03,21.98,4.19,4.91,7.23,3.03,17.07-4.19,21.98-25.95,17.64-55.7,26.46-85.44,26.46Z"/>
  <path class="cls-1" d="m256.33,317.45c-8.74,0-15.82-7.08-15.82-15.82v-37.97c0-8.74,7.08-15.82,15.82-15.82s15.82,7.08,15.82,15.82v37.97c0,8.74-7.08,15.82-15.82,15.82Z"/>
  <path class="cls-1" d="m388.02,317.45c-8.74,0-15.82-7.08-15.82-15.82v-37.97c0-8.74,7.08-15.82,15.82-15.82s15.82,7.08,15.82,15.82v37.97c0,8.74-7.08,15.82-15.82,15.82Z"/>
  <path class="cls-1" d="m764.36,851.25c-29.74,0-59.49-8.82-85.44-26.46-7.23-4.91-9.1-14.75-4.19-21.98,4.91-7.23,14.75-9.1,21.98-4.19,41.1,27.93,94.21,27.93,135.3,0,7.23-4.91,17.07-3.03,21.98,4.19,4.91,7.23,3.03,17.07-4.19,21.98-25.95,17.64-55.7,26.46-85.44,26.46Z"/>
  <path class="cls-1" d="m698.51,751.37c-8.74,0-15.82-7.08-15.82-15.82v-37.97c0-8.74,7.08-15.82,15.82-15.82s15.82,7.08,15.82,15.82v37.97c0,8.74-7.08,15.82-15.82,15.82Z"/>
  <path class="cls-1" d="m830.21,751.37c-8.74,0-15.82-7.08-15.82-15.82v-37.97c0-8.74,7.08-15.82,15.82-15.82s15.82,7.08,15.82,15.82v37.97c0,8.74-7.08,15.82-15.82,15.82Z"/>
  <path class="cls-1" d="m322.18,851.25c-29.74,0-59.49-8.82-85.44-26.46-7.23-4.91-9.1-14.75-4.19-21.98,4.91-7.23,14.75-9.1,21.98-4.19,41.1,27.93,94.2,27.93,135.3,0,7.23-4.91,17.07-3.03,21.98,4.19,4.91,7.23,3.03,17.07-4.19,21.98-25.95,17.64-55.7,26.46-85.44,26.46Z"/>
  <path class="cls-1" d="m256.33,751.37c-8.74,0-15.82-7.08-15.82-15.82v-37.97c0-8.74,7.08-15.82,15.82-15.82s15.82,7.08,15.82,15.82v37.97c0,8.74-7.08,15.82-15.82,15.82Z"/>
  <path class="cls-1" d="m388.02,751.37c-8.74,0-15.82-7.08-15.82-15.82v-37.97c0-8.74,7.08-15.82,15.82-15.82s15.82,7.08,15.82,15.82v37.97c0,8.74-7.08,15.82-15.82,15.82Z"/>
</svg>