<?xml version="1.0" encoding="UTF-8"?>
<svg id="Layer_1" data-name="Layer 1" xmlns="http://www.w3.org/2000/svg" viewBox="0 0 1080 1080">
  <defs>
    <style>
      .cls-1 {
        fill: #ffffff;
      }
    </style>
  </defs>
  <path class="cls-1" d="m214.35,304.48h18.04c29.87-.03,54.07-24.24,54.11-54.11v-18.04h-36.07v18.04c-.01,9.96-8.08,18.02-18.04,18.04h-18.04v36.07Z"/>
  <circle class="cls-1" cx="196.32" cy="196.27" r="18.04"/>
  <circle class="cls-1" cx="304.53" cy="196.27" r="18.04"/>
  <path class="cls-1" d="m935.77,611.08c-.01,9.96-8.08,18.02-18.04,18.04h-18.04v36.07h18.04c29.87-.03,54.07-24.24,54.11-54.11v-18.04h-36.07v18.04Z"/>
  <path class="cls-1" d="m971.84,340.55h-72.14c-59.74.07-108.15,48.48-108.21,108.21v161.66l-37.35-43.57-17.11-85.56c-.06-.31-.16-.61-.24-.92h.03s-9.46-37.04-9.46-37.04l34.75-13.9c6.85-2.74,11.34-9.37,11.34-16.75v-72.14c0-3.56-1.05-7.04-3.03-10l-36.07-54.11c-3.34-5.02-8.98-8.03-15.01-8.03h-36.65l-1.02-4.01,4.54-6.06c31.19-41.44,48.72-91.55,50.18-143.39.47-16.93-8.91-32.61-24.05-40.2-.06-.03-.12-.06-.19-.09-10.68-5.26-23.05-5.9-34.22-1.77-7.88-26.93-35.03-43.38-62.55-37.88l-13.44,2.69c-51.76,10.35-86.75,58.9-80.21,111.28.03.25.07.5.11.75l17.4,103.63c.02.11.04.23.06.34l15.44,82.36-20.13,5.03c-6.46,1.61-11.51,6.66-13.12,13.12l-16.72,66.88-49.04,44.95-118.28-65.71-9.47-28.4c41.53-26.48,66.69-72.31,66.72-121.56v-126.25c-.08-69.69-56.56-126.17-126.25-126.25h-36.07c-69.69.08-126.17,56.56-126.25,126.25v126.25c.03,49.25,25.18,95.09,66.72,121.56l-9.47,28.4-119.08,66.16c-28.62,15.91-46.37,46.08-46.38,78.83v119.87c0,5.82,2.81,11.29,7.55,14.68l28.52,20.37v361.73c0,9.96,8.07,18.04,18.04,18.04h414.81c9.96,0,18.04-8.07,18.04-18.04v-360.71h54.11c6.63,0,12.73-3.64,15.88-9.48l34.12-63.37,22.49,112.46c.59,2.95,1.91,5.7,3.83,8.01l87.05,104.46,35.27,211.6c1.45,8.7,8.97,15.07,17.79,15.07h306.6c9.96,0,18.04-8.07,18.04-18.04v-324.64c0-7.76-4.97-14.66-12.33-17.11l-27.93-9.31c25.84-26.81,40.28-62.59,40.26-99.83v-162.32c-.07-59.74-48.48-108.15-108.21-108.21Zm-144.28,108.21c.05-39.82,32.32-72.1,72.14-72.14h72.14c39.82.05,72.1,32.32,72.14,72.14v18.04h-51.89c-35.44.04-66.34-24.09-74.9-58.48-2.42-9.66-12.21-15.54-21.87-13.12-6.46,1.62-11.51,6.66-13.12,13.12l-.54,2.15c-6.63,26.66-27.45,47.48-54.11,54.12v-15.83Zm-117.86-144.28l27.69,41.53v54.47l-19.02,7.61-26.46-103.61h17.79Zm-134.91-57.26l-17.3-103.06c-4-33.51,18.44-64.46,51.53-71.08l13.44-2.69c9.77-1.95,19.27,4.38,21.22,14.15.23,1.17.35,2.35.35,3.54v17.89c-22.66,15.48-36.17,41.18-36.07,68.62v13.78h36.07v-13.78c-.06-17.9,10.06-34.28,26.1-42.23,3.17-1.59,5.81-4.07,7.57-7.15l8.74-15.21c1.97-3.41,6.25-4.71,9.78-2.95l.1.05c2.54,1.31,4.1,3.96,4.02,6.81-1.25,44.41-16.27,87.33-42.98,122.82l-9.73,12.97c-3.28,4.37-4.4,9.99-3.05,15.28l53.89,211.03-72.97,41.7-6.5-34.66,36.27-18.14c6.11-3.05,9.97-9.3,9.97-16.13v-90.18c0-6.83-3.86-13.08-9.97-16.13l-36.07-18.04c-3.85-1.93-8.26-2.41-12.44-1.36l-16.96,4.24-15.01-80.08Zm-41.64,196.81c2.61-2.39,4.45-5.49,5.31-8.92l15.41-61.64,55.17-13.79,20.13,10.07v67.88l-62.17,31.09c-2.29,1.15-4.32,2.77-5.93,4.76l-229.05,281.9h-59.3l-85.99-42.99,53.04-95.47,56.7,28.35c6.69,3.35,14.74,2.22,20.25-2.84l216.42-198.39ZM232.39,33.95h36.07c28.29,0,54.93,13.29,71.95,35.89-20.27,33.8-56.84,54.42-96.25,54.29h-101.95c.06-49.78,40.4-90.12,90.18-90.18Zm-90.18,216.42v-90.18h101.95c43.51.15,84.86-18.9,113.02-52.06.96,5.28,1.44,10.63,1.45,15.99v126.25c0,59.76-48.45,108.21-108.21,108.21s-108.21-48.45-108.21-108.21Zm108.21,144.28c15.2,0,30.3-2.41,44.74-7.14l6.77,20.3-28.19,28.19c-.84.84-1.59,1.76-2.25,2.75l-21.06,31.6-21.06-31.6c-.66-.99-1.41-1.91-2.25-2.75l-28.19-28.19,6.77-20.3c14.44,4.73,29.54,7.14,44.74,7.14Zm-216.42,150.66c0-19.65,10.66-37.75,27.83-47.3l113.32-62.95,25.19,25.19,35.08,52.62c5.52,8.29,16.72,10.53,25.01,5,1.98-1.32,3.68-3.02,5-5l35.08-52.62,25.19-25.19,102.01,56.67-126.22,115.7-61.04-30.52-72.14-36.07-16.13,32.26,55.29,27.65-71.22,128.19-102.26-73.04v-110.59Zm414.81,498.61H70.07v-317.93l61.66,44.04c8.11,5.79,19.37,3.91,25.16-4.2.4-.55.76-1.13,1.09-1.72l11.22-20.19,91.2,45.6c2.5,1.25,5.27,1.9,8.07,1.9h72.14c5.43,0,10.57-2.45,14-6.66l67.86-83.51h26.36v342.67Zm79.4-378.74h-76.46l133.81-164.69,6.78,36.13-8.2,4.69c-6.74,3.85-10.26,11.59-8.74,19.2l2.48,12.42-49.68,92.26Zm515.76,378.74h-273.29l-33.56-201.35c-.53-3.16-1.88-6.12-3.93-8.58l-87.25-104.69-32.62-163.12,93.23-53.28,13.13,65.64c.61,3.03,1.98,5.85,3.99,8.2l108.21,126.25,1.01-.87c45.26,46.21,115.78,56.57,172.41,25.31l38.66,12.88v293.6Zm-108.21-324.64c-59.74-.07-108.15-48.48-108.21-108.21v-109.73c29.34-4.81,55.49-21.27,72.51-45.64,21.27,29.64,55.54,47.2,92.02,47.16h51.89v108.21c-.07,59.74-48.48,108.15-108.21,108.21Z"/>
  <circle class="cls-1" cx="881.66" cy="556.97" r="18.04"/>
  <circle class="cls-1" cx="989.87" cy="556.97" r="18.04"/>
</svg>