<?xml version="1.0" encoding="UTF-8"?>
<svg id="Layer_1" data-name="Layer 1" xmlns="http://www.w3.org/2000/svg" viewBox="0 0 1080 1080">
  <defs>
    <style>
      .cls-1 {
        fill: #ffffff;
      }
    </style>
  </defs>
  <g id="Outline">
    <path class="cls-1" d="m1062,972h-36v-126c0-9.94-8.06-18-18-18h-234v36h216v36h-234c-9.94,0-18,8.06-18,18s8.06,18,18,18h234v36h-432v-36h126c9.94,0,18-8.06,18-18s-8.06-18-18-18h-122.69c7.6-21.5,27.89-35.91,50.69-36h124.83v-36h-124.83c-28.44.08-55.15,13.64-72,36.56-16.85-22.91-43.56-36.48-72-36.56H72c-9.94,0-18,8.06-18,18v126H18C8.06,972,0,980.06,0,990v72c0,9.94,8.06,18,18,18h198v-36H36v-36h1008v36H252v36h810c9.94,0,18-8.06,18-18v-72c0-9.94-8.06-18-18-18Zm-972-36h234c9.94,0,18-8.06,18-18s-8.06-18-18-18H90v-36h378c22.8.09,43.09,14.5,50.69,36h-122.69c-9.94,0-18,8.06-18,18s8.06,18,18,18h126v36H90v-36Z"/>
    <path class="cls-1" d="m833.69,96.93L545.69.92c-3.69-1.23-7.68-1.23-11.38,0L246.31,96.93c-9.43,3.15-14.51,13.35-11.36,22.78,1.87,5.59,6.35,9.91,12.01,11.56l113.04,32.98v105.75c.08,8.6,6.31,15.91,14.8,17.35-17,25.52-27.76,54.68-31.43,85.12-9.11,78.11,28.65,154.25,96.35,194.26,17.22,9.61,28,27.68,28.28,47.39v123.88c0,39.76,32.24,72,72,72s72-32.24,72-72v-123.84c.33-19.79,11.18-37.91,28.48-47.54,60.29-35.72,97.34-100.54,97.52-170.62.1-38.63-11.17-76.44-32.4-108.72,8.31-1.59,14.34-8.82,14.4-17.28v-105.75l54-15.75v49.5c0,9.94,8.06,18,18,18s18-8.06,18-18v-59.99l23.04-6.73c9.54-2.8,15.01-12.8,12.21-22.34-1.66-5.65-5.98-10.14-11.56-12.01h0Zm-257.69,605.07h-72v-36h72v36Zm-36,72c-19.88,0-36-16.12-36-36h72c0,19.88-16.12,36-36,36Zm82.19-238.39c-28.33,16.05-45.94,45.99-46.19,78.55v15.84h-18v-128.56c31.69-8.18,53.88-36.71,54-69.44v-18h-36v18c0,19.88-16.12,36-36,36s-36-16.12-36-36v-18h-36v18c.12,32.73,22.31,61.26,54,69.44v128.56h-18v-15.88c-.21-32.5-17.77-62.41-46.04-78.43-55.41-32.79-86.31-95.13-78.84-159.08,4.03-33.01,18.19-63.97,40.52-88.61h240.86c26.75,29.61,41.54,68.1,41.51,108-.15,57.35-30.47,110.38-79.81,139.61Zm61.81-283.61h-288v-77.26l138.96,40.54c3.29.96,6.79.96,10.08,0l138.96-40.54v77.26Zm-144-72.76l-227.65-66.38,227.65-75.89,227.63,75.89-227.63,66.38Z"/>
    <path class="cls-1" d="m900,396c0-9.94-8.06-18-18-18h-54c-9.94,0-18,8.06-18,18s8.06,18,18,18h54c9.94,0,18-8.06,18-18Z"/>
    <path class="cls-1" d="m180,396c0,9.94,8.06,18,18,18h54c9.94,0,18-8.06,18-18s-8.06-18-18-18h-54c-9.94,0-18,8.06-18,18Z"/>
    <path class="cls-1" d="m807.44,504.36c-8.71-4.79-19.66-1.6-24.44,7.11-4.79,8.71-1.6,19.66,7.11,24.44.57.31,1.16.6,1.76.85l48.6,23.4c9.18,3.81,19.71-.54,23.53-9.72,3.52-8.48.09-18.26-7.96-22.68l-48.6-23.4Z"/>
    <path class="cls-1" d="m215.44,240.27c-4.3,8.96-.53,19.7,8.42,24.01l48.69,23.4c9.18,3.81,19.71-.54,23.53-9.72,3.52-8.48.09-18.26-7.96-22.68l-48.6-23.4c-8.94-4.34-19.71-.61-24.05,8.33,0,.02-.02.04-.03.06Z"/>
    <path class="cls-1" d="m845.24,240.74l-49.34,21.92c-9.09,4.03-13.18,14.67-9.15,23.75,2.89,6.51,9.35,10.71,16.48,10.7,2.51,0,5-.52,7.29-1.55l49.34-21.96c9.09-4.04,13.19-14.68,9.15-23.77-4.04-9.09-14.68-13.19-23.77-9.15v.05Z"/>
    <path class="cls-1" d="m269.48,496.44l-49.36,21.96c-9.09,4.04-13.18,14.69-9.14,23.78,4.04,9.09,14.69,13.18,23.78,9.14l49.34-21.92c9.09-4.04,13.18-14.67,9.14-23.76-4.04-9.09-14.67-13.18-23.76-9.14v-.05Z"/>
  </g>
</svg>